%TF.GenerationSoftware,KiCad,Pcbnew,8.0.3*%
%TF.CreationDate,2024-06-12T10:41:30+03:00*%
%TF.ProjectId,Design,44657369-676e-42e6-9b69-6361645f7063,1*%
%TF.SameCoordinates,Original*%
%TF.FileFunction,Drillmap*%
%TF.FilePolarity,Positive*%
%FSLAX45Y45*%
G04 Gerber Fmt 4.5, Leading zero omitted, Abs format (unit mm)*
G04 Created by KiCad (PCBNEW 8.0.3) date 2024-06-12 10:41:30*
%MOMM*%
%LPD*%
G01*
G04 APERTURE LIST*
%ADD10C,0.100000*%
%ADD11C,0.120000*%
%ADD12C,0.200000*%
%ADD13C,0.130000*%
%ADD14C,0.170000*%
%ADD15C,0.250000*%
G04 APERTURE END LIST*
D10*
X1200000Y-1200721D02*
X21200000Y-1200721D01*
X21200000Y-15850720D01*
X1200000Y-15850720D01*
X1200000Y-1200721D01*
D11*
X10276400Y-1200061D02*
X9846400Y-1200061D01*
X10276400Y-1300061D02*
X10276400Y-1200061D01*
X10316400Y-1340061D02*
X10676400Y-1340061D01*
X10716400Y-1200061D02*
X11146400Y-1200061D01*
X10716400Y-1300061D02*
X10716400Y-1200061D01*
X10316400Y-1340061D02*
G75*
G02*
X10276400Y-1300061I0J40000D01*
G01*
X10716400Y-1300061D02*
G75*
G02*
X10676400Y-1340061I-40000J0D01*
G01*
D12*
D10*
X2350940Y-5305441D02*
X2390940Y-5345441D01*
X2390940Y-5305441D02*
X2350940Y-5345441D01*
X2582080Y-5307981D02*
X2622080Y-5347981D01*
X2622080Y-5307981D02*
X2582080Y-5347981D01*
X2587160Y-6196981D02*
X2627160Y-6236981D01*
X2627160Y-6196981D02*
X2587160Y-6236981D01*
X2587160Y-7494921D02*
X2627160Y-7534921D01*
X2627160Y-7494921D02*
X2587160Y-7534921D01*
X2587160Y-9303401D02*
X2627160Y-9343401D01*
X2627160Y-9303401D02*
X2587160Y-9343401D01*
X2587160Y-10984881D02*
X2627160Y-11024881D01*
X2627160Y-10984881D02*
X2587160Y-11024881D01*
X2587160Y-12699381D02*
X2627160Y-12739381D01*
X2627160Y-12699381D02*
X2587160Y-12739381D01*
X2589700Y-14312281D02*
X2629700Y-14352281D01*
X2629700Y-14312281D02*
X2589700Y-14352281D01*
X3435520Y-6456061D02*
X3475520Y-6496061D01*
X3475520Y-6456061D02*
X3435520Y-6496061D01*
X3450760Y-9854581D02*
X3490760Y-9894581D01*
X3490760Y-9854581D02*
X3450760Y-9894581D01*
X3466000Y-13255641D02*
X3506000Y-13295641D01*
X3506000Y-13255641D02*
X3466000Y-13295641D01*
X3480000Y-8431441D02*
X3520000Y-8471441D01*
X3520000Y-8431441D02*
X3480000Y-8471441D01*
X3480000Y-11831441D02*
X3520000Y-11871441D01*
X3520000Y-11831441D02*
X3480000Y-11871441D01*
X3480000Y-15231441D02*
X3520000Y-15271441D01*
X3520000Y-15231441D02*
X3480000Y-15271441D01*
X3567600Y-8322541D02*
X3607600Y-8362541D01*
X3607600Y-8322541D02*
X3567600Y-8362541D01*
X3567600Y-11722541D02*
X3607600Y-11762541D01*
X3607600Y-11722541D02*
X3567600Y-11762541D01*
X3567600Y-15122541D02*
X3607600Y-15162541D01*
X3607600Y-15122541D02*
X3567600Y-15162541D01*
X3940980Y-3335721D02*
X3980980Y-3375721D01*
X3980980Y-3335721D02*
X3940980Y-3375721D01*
X3940980Y-3958021D02*
X3980980Y-3998021D01*
X3980980Y-3958021D02*
X3940980Y-3998021D01*
X3948600Y-7726341D02*
X3988600Y-7766341D01*
X3988600Y-7726341D02*
X3948600Y-7766341D01*
X3948600Y-11126341D02*
X3988600Y-11166341D01*
X3988600Y-11126341D02*
X3948600Y-11166341D01*
X3948600Y-14526341D02*
X3988600Y-14566341D01*
X3988600Y-14526341D02*
X3948600Y-14566341D01*
X4144180Y-13392801D02*
X4184180Y-13432801D01*
X4184180Y-13392801D02*
X4144180Y-13432801D01*
X4177200Y-6595341D02*
X4217200Y-6635341D01*
X4217200Y-6595341D02*
X4177200Y-6635341D01*
X4182280Y-9994281D02*
X4222280Y-10034281D01*
X4222280Y-9994281D02*
X4182280Y-10034281D01*
X4245780Y-15384161D02*
X4285780Y-15424161D01*
X4285780Y-15384161D02*
X4245780Y-15424161D01*
X4448980Y-9112901D02*
X4488980Y-9152901D01*
X4488980Y-9112901D02*
X4448980Y-9152901D01*
X4454060Y-12519041D02*
X4494060Y-12559041D01*
X4494060Y-12519041D02*
X4454060Y-12559041D01*
X4469300Y-5729621D02*
X4509300Y-5769621D01*
X4509300Y-5729621D02*
X4469300Y-5769621D01*
X4718220Y-12519041D02*
X4758220Y-12559041D01*
X4758220Y-12519041D02*
X4718220Y-12559041D01*
X4868080Y-2364121D02*
X4908080Y-2404121D01*
X4908080Y-2364121D02*
X4868080Y-2404121D01*
X4898560Y-9117981D02*
X4938560Y-9157981D01*
X4938560Y-9117981D02*
X4898560Y-9157981D01*
X5002800Y-4817761D02*
X5042800Y-4857761D01*
X5042800Y-4817761D02*
X5002800Y-4857761D01*
X5040800Y-5719461D02*
X5080800Y-5759461D01*
X5080800Y-5719461D02*
X5040800Y-5759461D01*
X5157640Y-15561961D02*
X5197640Y-15601961D01*
X5197640Y-15561961D02*
X5157640Y-15601961D01*
X5407200Y-10332101D02*
X5447200Y-10372101D01*
X5447200Y-10332101D02*
X5407200Y-10372101D01*
X5409740Y-6935311D02*
X5449740Y-6975311D01*
X5449740Y-6935311D02*
X5409740Y-6975311D01*
X5412280Y-13738241D02*
X5452280Y-13778241D01*
X5452280Y-13738241D02*
X5412280Y-13778241D01*
X5536100Y-6433201D02*
X5576100Y-6473201D01*
X5576100Y-6433201D02*
X5536100Y-6473201D01*
X5536100Y-11576701D02*
X5576100Y-11616701D01*
X5576100Y-11576701D02*
X5536100Y-11616701D01*
X5541180Y-14982841D02*
X5581180Y-15022841D01*
X5581180Y-14982841D02*
X5541180Y-15022841D01*
X5563020Y-8179631D02*
X5603020Y-8219631D01*
X5603020Y-8179631D02*
X5563020Y-8219631D01*
X5630080Y-11867041D02*
X5670080Y-11907041D01*
X5670080Y-11867041D02*
X5630080Y-11907041D01*
X5640240Y-15253921D02*
X5680240Y-15293921D01*
X5680240Y-15253921D02*
X5640240Y-15293921D01*
X5675800Y-8441251D02*
X5715800Y-8481251D01*
X5715800Y-8441251D02*
X5675800Y-8481251D01*
X5889160Y-4076081D02*
X5929160Y-4116081D01*
X5929160Y-4076081D02*
X5889160Y-4116081D01*
X5914560Y-11142361D02*
X5954560Y-11182361D01*
X5954560Y-11142361D02*
X5914560Y-11182361D01*
X5914560Y-14551041D02*
X5954560Y-14591041D01*
X5954560Y-14551041D02*
X5914560Y-14591041D01*
X5919640Y-7748921D02*
X5959640Y-7788921D01*
X5959640Y-7748921D02*
X5919640Y-7788921D01*
X5928149Y-10736659D02*
X5968149Y-10776659D01*
X5968149Y-10736659D02*
X5928149Y-10776659D01*
X5929800Y-10332101D02*
X5969800Y-10372101D01*
X5969800Y-10332101D02*
X5929800Y-10372101D01*
X5930689Y-7339869D02*
X5970689Y-7379869D01*
X5970689Y-7339869D02*
X5930689Y-7379869D01*
X5932340Y-6935311D02*
X5972340Y-6975311D01*
X5972340Y-6935311D02*
X5932340Y-6975311D01*
X5933229Y-14142799D02*
X5973229Y-14182799D01*
X5973229Y-14142799D02*
X5933229Y-14182799D01*
X5934880Y-13738241D02*
X5974880Y-13778241D01*
X5974880Y-13738241D02*
X5934880Y-13778241D01*
X6044100Y-10331401D02*
X6084100Y-10371401D01*
X6084100Y-10331401D02*
X6044100Y-10371401D01*
X6046640Y-6934611D02*
X6086640Y-6974611D01*
X6086640Y-6934611D02*
X6046640Y-6974611D01*
X6049180Y-13737541D02*
X6089180Y-13777541D01*
X6089180Y-13737541D02*
X6049180Y-13777541D01*
X6160940Y-8754761D02*
X6200940Y-8794761D01*
X6200940Y-8754761D02*
X6160940Y-8794761D01*
X6183800Y-10700401D02*
X6223800Y-10740401D01*
X6223800Y-10700401D02*
X6183800Y-10740401D01*
X6186340Y-7303611D02*
X6226340Y-7343611D01*
X6226340Y-7303611D02*
X6186340Y-7343611D01*
X6188880Y-14106541D02*
X6228880Y-14146541D01*
X6228880Y-14106541D02*
X6188880Y-14146541D01*
X6204120Y-12216781D02*
X6244120Y-12256781D01*
X6244120Y-12216781D02*
X6204120Y-12256781D01*
X6549560Y-7510161D02*
X6589560Y-7550161D01*
X6589560Y-7510161D02*
X6549560Y-7550161D01*
X6552100Y-7177421D02*
X6592100Y-7217421D01*
X6592100Y-7177421D02*
X6552100Y-7217421D01*
X6553340Y-10565781D02*
X6593340Y-10605781D01*
X6593340Y-10565781D02*
X6553340Y-10605781D01*
X6553340Y-10895981D02*
X6593340Y-10935981D01*
X6593340Y-10895981D02*
X6553340Y-10935981D01*
X6555880Y-13964301D02*
X6595880Y-14004301D01*
X6595880Y-13964301D02*
X6555880Y-14004301D01*
X6555880Y-14294501D02*
X6595880Y-14334501D01*
X6595880Y-14294501D02*
X6555880Y-14334501D01*
X6808640Y-2547001D02*
X6848640Y-2587001D01*
X6848640Y-2547001D02*
X6808640Y-2587001D01*
X7227740Y-9544701D02*
X7267740Y-9584701D01*
X7267740Y-9544701D02*
X7227740Y-9584701D01*
X7230280Y-8937641D02*
X7270280Y-8977641D01*
X7270280Y-8937641D02*
X7230280Y-8977641D01*
X7242980Y-5691521D02*
X7282980Y-5731521D01*
X7282980Y-5691521D02*
X7242980Y-5731521D01*
X7245520Y-6268101D02*
X7285520Y-6308101D01*
X7285520Y-6268101D02*
X7245520Y-6308101D01*
X7245520Y-12287901D02*
X7285520Y-12327901D01*
X7285520Y-12287901D02*
X7245520Y-12327901D01*
X7245520Y-12790821D02*
X7285520Y-12830821D01*
X7285520Y-12790821D02*
X7245520Y-12830821D01*
X7682400Y-6900141D02*
X7722400Y-6940141D01*
X7722400Y-6900141D02*
X7682400Y-6940141D01*
X7682400Y-10300141D02*
X7722400Y-10340141D01*
X7722400Y-10300141D02*
X7682400Y-10340141D01*
X7682400Y-13700141D02*
X7722400Y-13740141D01*
X7722400Y-13700141D02*
X7682400Y-13740141D01*
X8477608Y-8039941D02*
X8517608Y-8079941D01*
X8517608Y-8039941D02*
X8477608Y-8079941D01*
X8477608Y-11439941D02*
X8517608Y-11479941D01*
X8517608Y-11439941D02*
X8477608Y-11479941D01*
X8477608Y-14839941D02*
X8517608Y-14879941D01*
X8517608Y-14839941D02*
X8477608Y-14879941D01*
X9147980Y-4378341D02*
X9187980Y-4418341D01*
X9187980Y-4378341D02*
X9147980Y-4418341D01*
X9150520Y-4081161D02*
X9190520Y-4121161D01*
X9190520Y-4081161D02*
X9150520Y-4121161D01*
X9346100Y-7420841D02*
X9386100Y-7460841D01*
X9386100Y-7420841D02*
X9346100Y-7460841D01*
X9346100Y-7624041D02*
X9386100Y-7664041D01*
X9386100Y-7624041D02*
X9346100Y-7664041D01*
X9346100Y-10820841D02*
X9386100Y-10860841D01*
X9386100Y-10820841D02*
X9346100Y-10860841D01*
X9346100Y-11024041D02*
X9386100Y-11064041D01*
X9386100Y-11024041D02*
X9346100Y-11064041D01*
X9346100Y-14220841D02*
X9386100Y-14260841D01*
X9386100Y-14220841D02*
X9346100Y-14260841D01*
X9346100Y-14424041D02*
X9386100Y-14464041D01*
X9386100Y-14424041D02*
X9346100Y-14464041D01*
X9447700Y-6442941D02*
X9487700Y-6482941D01*
X9487700Y-6442941D02*
X9447700Y-6482941D01*
X9447700Y-9842941D02*
X9487700Y-9882941D01*
X9487700Y-9842941D02*
X9447700Y-9882941D01*
X9447700Y-13242941D02*
X9487700Y-13282941D01*
X9487700Y-13242941D02*
X9447700Y-13282941D01*
X9549300Y-6125441D02*
X9589300Y-6165441D01*
X9589300Y-6125441D02*
X9549300Y-6165441D01*
X9549300Y-8309841D02*
X9589300Y-8349841D01*
X9589300Y-8309841D02*
X9549300Y-8349841D01*
X9549300Y-9525441D02*
X9589300Y-9565441D01*
X9589300Y-9525441D02*
X9549300Y-9565441D01*
X9549300Y-11709841D02*
X9589300Y-11749841D01*
X9589300Y-11709841D02*
X9549300Y-11749841D01*
X9549300Y-12925441D02*
X9589300Y-12965441D01*
X9589300Y-12925441D02*
X9549300Y-12965441D01*
X9549300Y-15109841D02*
X9589300Y-15149841D01*
X9589300Y-15109841D02*
X9549300Y-15149841D01*
X9562000Y-8805141D02*
X9602000Y-8845141D01*
X9602000Y-8805141D02*
X9562000Y-8845141D01*
X9562000Y-12205141D02*
X9602000Y-12245141D01*
X9602000Y-12205141D02*
X9562000Y-12245141D01*
X9562000Y-15605141D02*
X9602000Y-15645141D01*
X9602000Y-15605141D02*
X9562000Y-15645141D01*
X9676300Y-8805141D02*
X9716300Y-8845141D01*
X9716300Y-8805141D02*
X9676300Y-8845141D01*
X9676300Y-12205141D02*
X9716300Y-12245141D01*
X9716300Y-12205141D02*
X9676300Y-12245141D01*
X9676300Y-15605141D02*
X9716300Y-15645141D01*
X9716300Y-15605141D02*
X9676300Y-15645141D01*
X9680000Y-6125441D02*
X9720000Y-6165441D01*
X9720000Y-6125441D02*
X9680000Y-6165441D01*
X9680000Y-8347941D02*
X9720000Y-8387941D01*
X9720000Y-8347941D02*
X9680000Y-8387941D01*
X9680000Y-9525441D02*
X9720000Y-9565441D01*
X9720000Y-9525441D02*
X9680000Y-9565441D01*
X9680000Y-11747941D02*
X9720000Y-11787941D01*
X9720000Y-11747941D02*
X9680000Y-11787941D01*
X9680000Y-12925441D02*
X9720000Y-12965441D01*
X9720000Y-12925441D02*
X9680000Y-12965441D01*
X9680000Y-15147941D02*
X9720000Y-15187941D01*
X9720000Y-15147941D02*
X9680000Y-15187941D01*
X9839850Y-6811241D02*
X9879850Y-6851241D01*
X9879850Y-6811241D02*
X9839850Y-6851241D01*
X9839850Y-10211241D02*
X9879850Y-10251241D01*
X9879850Y-10211241D02*
X9839850Y-10251241D01*
X9839850Y-13611241D02*
X9879850Y-13651241D01*
X9879850Y-13611241D02*
X9839850Y-13651241D01*
X10311300Y-6125441D02*
X10351300Y-6165441D01*
X10351300Y-6125441D02*
X10311300Y-6165441D01*
X10311300Y-9525441D02*
X10351300Y-9565441D01*
X10351300Y-9525441D02*
X10311300Y-9565441D01*
X10311300Y-12925441D02*
X10351300Y-12965441D01*
X10351300Y-12925441D02*
X10311300Y-12965441D01*
X10425600Y-13585841D02*
X10465600Y-13625841D01*
X10465600Y-13585841D02*
X10425600Y-13625841D01*
X10539900Y-6900141D02*
X10579900Y-6940141D01*
X10579900Y-6900141D02*
X10539900Y-6940141D01*
X10539900Y-10300141D02*
X10579900Y-10340141D01*
X10579900Y-10300141D02*
X10539900Y-10340141D01*
X10887880Y-12468241D02*
X10927880Y-12508241D01*
X10927880Y-12468241D02*
X10887880Y-12508241D01*
X10890420Y-11792601D02*
X10930420Y-11832601D01*
X10930420Y-11792601D02*
X10890420Y-11832601D01*
X10890420Y-12074541D02*
X10930420Y-12114541D01*
X10930420Y-12074541D02*
X10890420Y-12114541D01*
X10892960Y-12894961D02*
X10932960Y-12934961D01*
X10932960Y-12894961D02*
X10892960Y-12934961D01*
X10923440Y-13829681D02*
X10963440Y-13869681D01*
X10963440Y-13829681D02*
X10923440Y-13869681D01*
X10925980Y-14324981D02*
X10965980Y-14364981D01*
X10965980Y-14324981D02*
X10925980Y-14364981D01*
X10938680Y-15221601D02*
X10978680Y-15261601D01*
X10978680Y-15221601D02*
X10938680Y-15261601D01*
X10976780Y-9069721D02*
X11016780Y-9109721D01*
X11016780Y-9069721D02*
X10976780Y-9109721D01*
X10976780Y-9488821D02*
X11016780Y-9528821D01*
X11016780Y-9488821D02*
X10976780Y-9528821D01*
X10979320Y-6092841D02*
X11019320Y-6132841D01*
X11019320Y-6092841D02*
X10979320Y-6132841D01*
X10979320Y-8683641D02*
X11019320Y-8723641D01*
X11019320Y-8683641D02*
X10979320Y-8723641D01*
X10984400Y-5546741D02*
X11024400Y-5586741D01*
X11024400Y-5546741D02*
X10984400Y-5586741D01*
X10984400Y-7045341D02*
X11024400Y-7085341D01*
X11024400Y-7045341D02*
X10984400Y-7085341D01*
X10984400Y-8391541D02*
X11024400Y-8431541D01*
X11024400Y-8391541D02*
X10984400Y-8431541D01*
X11581300Y-6557241D02*
X11621300Y-6597241D01*
X11621300Y-6557241D02*
X11581300Y-6597241D01*
X11581300Y-9957241D02*
X11621300Y-9997241D01*
X11621300Y-9957241D02*
X11581300Y-9997241D01*
X11581300Y-13357241D02*
X11621300Y-13397241D01*
X11621300Y-13357241D02*
X11581300Y-13397241D01*
X11771800Y-5947641D02*
X11811800Y-5987641D01*
X11811800Y-5947641D02*
X11771800Y-5987641D01*
X11771800Y-9347641D02*
X11811800Y-9387641D01*
X11811800Y-9347641D02*
X11771800Y-9387641D01*
X11771800Y-12747641D02*
X11811800Y-12787641D01*
X11811800Y-12747641D02*
X11771800Y-12787641D01*
X11924200Y-8538441D02*
X11964200Y-8578441D01*
X11964200Y-8538441D02*
X11924200Y-8578441D01*
X11924200Y-11938441D02*
X11964200Y-11978441D01*
X11964200Y-11938441D02*
X11924200Y-11978441D01*
X11924200Y-15338441D02*
X11964200Y-15378441D01*
X11964200Y-15338441D02*
X11924200Y-15378441D01*
X11949600Y-6887441D02*
X11989600Y-6927441D01*
X11989600Y-6887441D02*
X11949600Y-6927441D01*
X11949600Y-10287441D02*
X11989600Y-10327441D01*
X11989600Y-10287441D02*
X11949600Y-10327441D01*
X11949600Y-13687441D02*
X11989600Y-13727441D01*
X11989600Y-13687441D02*
X11949600Y-13727441D01*
X12076600Y-8259041D02*
X12116600Y-8299041D01*
X12116600Y-8259041D02*
X12076600Y-8299041D01*
X12076600Y-11659041D02*
X12116600Y-11699041D01*
X12116600Y-11659041D02*
X12076600Y-11699041D01*
X12076600Y-15059041D02*
X12116600Y-15099041D01*
X12116600Y-15059041D02*
X12076600Y-15099041D01*
X12483000Y-6227041D02*
X12523000Y-6267041D01*
X12523000Y-6227041D02*
X12483000Y-6267041D01*
X12483000Y-9627041D02*
X12523000Y-9667041D01*
X12523000Y-9627041D02*
X12483000Y-9667041D01*
X12483000Y-13027041D02*
X12523000Y-13067041D01*
X12523000Y-13027041D02*
X12483000Y-13067041D01*
X12597300Y-8538441D02*
X12637300Y-8578441D01*
X12637300Y-8538441D02*
X12597300Y-8578441D01*
X12597300Y-8703541D02*
X12637300Y-8743541D01*
X12637300Y-8703541D02*
X12597300Y-8743541D01*
X12597300Y-8932141D02*
X12637300Y-8972141D01*
X12637300Y-8932141D02*
X12597300Y-8972141D01*
X12597300Y-11938441D02*
X12637300Y-11978441D01*
X12637300Y-11938441D02*
X12597300Y-11978441D01*
X12597300Y-12103541D02*
X12637300Y-12143541D01*
X12637300Y-12103541D02*
X12597300Y-12143541D01*
X12597300Y-12332141D02*
X12637300Y-12372141D01*
X12637300Y-12332141D02*
X12597300Y-12372141D01*
X12597300Y-15338441D02*
X12637300Y-15378441D01*
X12637300Y-15338441D02*
X12597300Y-15378441D01*
X12597300Y-15503541D02*
X12637300Y-15543541D01*
X12637300Y-15503541D02*
X12597300Y-15543541D01*
X12597300Y-15732141D02*
X12637300Y-15772141D01*
X12637300Y-15732141D02*
X12597300Y-15772141D01*
X12648100Y-7954241D02*
X12688100Y-7994241D01*
X12688100Y-7954241D02*
X12648100Y-7994241D01*
X12648100Y-11354241D02*
X12688100Y-11394241D01*
X12688100Y-11354241D02*
X12648100Y-11394241D01*
X12648100Y-14754241D02*
X12688100Y-14794241D01*
X12688100Y-14754241D02*
X12648100Y-14794241D01*
X12660800Y-6341341D02*
X12700800Y-6381341D01*
X12700800Y-6341341D02*
X12660800Y-6381341D01*
X12660800Y-9741341D02*
X12700800Y-9781341D01*
X12700800Y-9741341D02*
X12660800Y-9781341D01*
X12660800Y-13141341D02*
X12700800Y-13181341D01*
X12700800Y-13141341D02*
X12660800Y-13181341D01*
X13031640Y-5838841D02*
X13071640Y-5878841D01*
X13071640Y-5838841D02*
X13031640Y-5878841D01*
X13199280Y-5391801D02*
X13239280Y-5431801D01*
X13239280Y-5391801D02*
X13199280Y-5431801D01*
X13238600Y-8487641D02*
X13278600Y-8527641D01*
X13278600Y-8487641D02*
X13238600Y-8527641D01*
X13238600Y-11887641D02*
X13278600Y-11927641D01*
X13278600Y-11887641D02*
X13238600Y-11927641D01*
X13238600Y-15287641D02*
X13278600Y-15327641D01*
X13278600Y-15287641D02*
X13238600Y-15327641D01*
X13247540Y-1673241D02*
X13287540Y-1713241D01*
X13287540Y-1673241D02*
X13247540Y-1713241D01*
X13247540Y-2039001D02*
X13287540Y-2079001D01*
X13287540Y-2039001D02*
X13247540Y-2079001D01*
X13252620Y-2437781D02*
X13292620Y-2477781D01*
X13292620Y-2437781D02*
X13252620Y-2477781D01*
X13394860Y-4233561D02*
X13434860Y-4273561D01*
X13434860Y-4233561D02*
X13394860Y-4273561D01*
X13397400Y-4568841D02*
X13437400Y-4608841D01*
X13437400Y-4568841D02*
X13397400Y-4608841D01*
X13859680Y-6054741D02*
X13899680Y-6094741D01*
X13899680Y-6054741D02*
X13859680Y-6094741D01*
X13968900Y-5556901D02*
X14008900Y-5596901D01*
X14008900Y-5556901D02*
X13968900Y-5596901D01*
X14113680Y-4015121D02*
X14153680Y-4055121D01*
X14153680Y-4015121D02*
X14113680Y-4055121D01*
X14456580Y-6362081D02*
X14496580Y-6402081D01*
X14496580Y-6362081D02*
X14456580Y-6402081D01*
X14568340Y-5442601D02*
X14608340Y-5482601D01*
X14608340Y-5442601D02*
X14568340Y-5482601D01*
X14786780Y-8424561D02*
X14826780Y-8464561D01*
X14826780Y-8424561D02*
X14786780Y-8464561D01*
X15038240Y-10817241D02*
X15078240Y-10857241D01*
X15078240Y-10817241D02*
X15038240Y-10857241D01*
X15061100Y-8424561D02*
X15101100Y-8464561D01*
X15101100Y-8424561D02*
X15061100Y-8464561D01*
X15086500Y-7228221D02*
X15126500Y-7268221D01*
X15126500Y-7228221D02*
X15086500Y-7268221D01*
X15416700Y-4337701D02*
X15456700Y-4377701D01*
X15456700Y-4337701D02*
X15416700Y-4377701D01*
X15426860Y-3555381D02*
X15466860Y-3595381D01*
X15466860Y-3555381D02*
X15426860Y-3595381D01*
X15721500Y-8416941D02*
X15761500Y-8456941D01*
X15761500Y-8416941D02*
X15721500Y-8456941D01*
X15988200Y-8409321D02*
X16028200Y-8449321D01*
X16028200Y-8409321D02*
X15988200Y-8449321D01*
X16036460Y-7474601D02*
X16076460Y-7514601D01*
X16076460Y-7474601D02*
X16036460Y-7514601D01*
X16242200Y-3933841D02*
X16282200Y-3973841D01*
X16282200Y-3933841D02*
X16242200Y-3973841D01*
X16882280Y-14218301D02*
X16922280Y-14258301D01*
X16922280Y-14218301D02*
X16882280Y-14258301D01*
X16892440Y-6999621D02*
X16932440Y-7039621D01*
X16932440Y-6999621D02*
X16892440Y-7039621D01*
X16892440Y-10819781D02*
X16932440Y-10859781D01*
X16932440Y-10819781D02*
X16892440Y-10859781D01*
X17496960Y-6214761D02*
X17536960Y-6254761D01*
X17536960Y-6214761D02*
X17496960Y-6254761D01*
X17662060Y-5744861D02*
X17702060Y-5784861D01*
X17702060Y-5744861D02*
X17662060Y-5784861D01*
X17707780Y-8460121D02*
X17747780Y-8500121D01*
X17747780Y-8460121D02*
X17707780Y-8500121D01*
X18010040Y-4545981D02*
X18050040Y-4585981D01*
X18050040Y-4545981D02*
X18010040Y-4585981D01*
X18022740Y-8457581D02*
X18062740Y-8497581D01*
X18062740Y-8457581D02*
X18022740Y-8497581D01*
X18030360Y-7472061D02*
X18070360Y-7512061D01*
X18070360Y-7472061D02*
X18030360Y-7512061D01*
X18482480Y-5854081D02*
X18522480Y-5894081D01*
X18522480Y-5854081D02*
X18482480Y-5894081D01*
X18553600Y-8447421D02*
X18593600Y-8487421D01*
X18593600Y-8447421D02*
X18553600Y-8487421D01*
X18784740Y-8447421D02*
X18824740Y-8487421D01*
X18824740Y-8447421D02*
X18784740Y-8487421D01*
X18840620Y-7070741D02*
X18880620Y-7110741D01*
X18880620Y-7070741D02*
X18840620Y-7110741D01*
X19447680Y-6463681D02*
X19487680Y-6503681D01*
X19487680Y-6463681D02*
X19447680Y-6503681D01*
X10016400Y-2150061D02*
G75*
G02*
X9976400Y-2150061I-20000J0D01*
G01*
X9976400Y-2150061D02*
G75*
G02*
X10016400Y-2150061I20000J0D01*
G01*
X9976400Y-2100061D02*
X9976400Y-2200061D01*
X10016400Y-2200061D02*
G75*
G02*
X9976400Y-2200061I-20000J0D01*
G01*
X10016400Y-2200061D02*
X10016400Y-2100061D01*
X10016400Y-2100061D02*
G75*
G03*
X9976400Y-2100061I-20000J0D01*
G01*
X10516400Y-1650061D02*
G75*
G02*
X10476400Y-1650061I-20000J0D01*
G01*
X10476400Y-1650061D02*
G75*
G02*
X10516400Y-1650061I20000J0D01*
G01*
X10546400Y-1630061D02*
X10446400Y-1630061D01*
X10446400Y-1670061D02*
G75*
G02*
X10446400Y-1630061I0J20000D01*
G01*
X10446400Y-1670061D02*
X10546400Y-1670061D01*
X10546400Y-1670061D02*
G75*
G03*
X10546400Y-1630061I0J20000D01*
G01*
X11016400Y-2150061D02*
G75*
G02*
X10976400Y-2150061I-20000J0D01*
G01*
X10976400Y-2150061D02*
G75*
G02*
X11016400Y-2150061I20000J0D01*
G01*
X11016400Y-2200061D02*
X11016400Y-2100061D01*
X10976400Y-2100061D02*
G75*
G02*
X11016400Y-2100061I20000J0D01*
G01*
X10976400Y-2100061D02*
X10976400Y-2200061D01*
X10976400Y-2200061D02*
G75*
G03*
X11016400Y-2200061I20000J0D01*
G01*
X10246400Y-2110061D02*
X10246400Y-2190061D01*
X10206400Y-2150061D02*
X10286400Y-2150061D01*
X10206400Y-2115061D02*
X10206400Y-2185061D01*
X10286400Y-2185061D02*
G75*
G02*
X10206400Y-2185061I-40000J0D01*
G01*
X10286400Y-2185061D02*
X10286400Y-2115061D01*
X10286400Y-2115061D02*
G75*
G03*
X10206400Y-2115061I-40000J0D01*
G01*
X10746400Y-2110061D02*
X10746400Y-2190061D01*
X10706400Y-2150061D02*
X10786400Y-2150061D01*
X10786400Y-2185061D02*
X10786400Y-2115061D01*
X10706400Y-2115061D02*
G75*
G02*
X10786400Y-2115061I40000J0D01*
G01*
X10706400Y-2115061D02*
X10706400Y-2185061D01*
X10706400Y-2185061D02*
G75*
G03*
X10786400Y-2185061I40000J0D01*
G01*
X4438606Y-6881797D02*
X4438606Y-6811085D01*
X4367894Y-6811085D01*
X4367894Y-6881797D01*
X4438606Y-6881797D01*
X4438606Y-7081797D02*
X4438606Y-7011085D01*
X4367894Y-7011085D01*
X4367894Y-7081797D01*
X4438606Y-7081797D01*
X4438606Y-7281797D02*
X4438606Y-7211085D01*
X4367894Y-7211085D01*
X4367894Y-7281797D01*
X4438606Y-7281797D01*
X4438606Y-7481797D02*
X4438606Y-7411085D01*
X4367894Y-7411085D01*
X4367894Y-7481797D01*
X4438606Y-7481797D01*
X4438606Y-7681797D02*
X4438606Y-7611085D01*
X4367894Y-7611085D01*
X4367894Y-7681797D01*
X4438606Y-7681797D01*
X4438606Y-7881797D02*
X4438606Y-7811085D01*
X4367894Y-7811085D01*
X4367894Y-7881797D01*
X4438606Y-7881797D01*
X4438606Y-10281797D02*
X4438606Y-10211085D01*
X4367894Y-10211085D01*
X4367894Y-10281797D01*
X4438606Y-10281797D01*
X4438606Y-10481797D02*
X4438606Y-10411085D01*
X4367894Y-10411085D01*
X4367894Y-10481797D01*
X4438606Y-10481797D01*
X4438606Y-10681797D02*
X4438606Y-10611085D01*
X4367894Y-10611085D01*
X4367894Y-10681797D01*
X4438606Y-10681797D01*
X4438606Y-10881797D02*
X4438606Y-10811085D01*
X4367894Y-10811085D01*
X4367894Y-10881797D01*
X4438606Y-10881797D01*
X4438606Y-11081797D02*
X4438606Y-11011085D01*
X4367894Y-11011085D01*
X4367894Y-11081797D01*
X4438606Y-11081797D01*
X4438606Y-11281797D02*
X4438606Y-11211085D01*
X4367894Y-11211085D01*
X4367894Y-11281797D01*
X4438606Y-11281797D01*
X4438606Y-13681797D02*
X4438606Y-13611085D01*
X4367894Y-13611085D01*
X4367894Y-13681797D01*
X4438606Y-13681797D01*
X4438606Y-13881797D02*
X4438606Y-13811085D01*
X4367894Y-13811085D01*
X4367894Y-13881797D01*
X4438606Y-13881797D01*
X4438606Y-14081797D02*
X4438606Y-14011085D01*
X4367894Y-14011085D01*
X4367894Y-14081797D01*
X4438606Y-14081797D01*
X4438606Y-14281797D02*
X4438606Y-14211085D01*
X4367894Y-14211085D01*
X4367894Y-14281797D01*
X4438606Y-14281797D01*
X4438606Y-14481797D02*
X4438606Y-14411085D01*
X4367894Y-14411085D01*
X4367894Y-14481797D01*
X4438606Y-14481797D01*
X4438606Y-14681797D02*
X4438606Y-14611085D01*
X4367894Y-14611085D01*
X4367894Y-14681797D01*
X4438606Y-14681797D01*
X8150205Y-6875297D02*
X8150205Y-6804585D01*
X8079494Y-6804585D01*
X8079494Y-6875297D01*
X8150205Y-6875297D01*
X8150205Y-7075297D02*
X8150205Y-7004585D01*
X8079494Y-7004585D01*
X8079494Y-7075297D01*
X8150205Y-7075297D01*
X8150205Y-7275297D02*
X8150205Y-7204585D01*
X8079494Y-7204585D01*
X8079494Y-7275297D01*
X8150205Y-7275297D01*
X8150205Y-7475297D02*
X8150205Y-7404585D01*
X8079494Y-7404585D01*
X8079494Y-7475297D01*
X8150205Y-7475297D01*
X8150205Y-7675297D02*
X8150205Y-7604585D01*
X8079494Y-7604585D01*
X8079494Y-7675297D01*
X8150205Y-7675297D01*
X8150205Y-7875297D02*
X8150205Y-7804585D01*
X8079494Y-7804585D01*
X8079494Y-7875297D01*
X8150205Y-7875297D01*
X8150205Y-10275297D02*
X8150205Y-10204585D01*
X8079494Y-10204585D01*
X8079494Y-10275297D01*
X8150205Y-10275297D01*
X8150205Y-10475297D02*
X8150205Y-10404585D01*
X8079494Y-10404585D01*
X8079494Y-10475297D01*
X8150205Y-10475297D01*
X8150205Y-10675297D02*
X8150205Y-10604585D01*
X8079494Y-10604585D01*
X8079494Y-10675297D01*
X8150205Y-10675297D01*
X8150205Y-10875297D02*
X8150205Y-10804585D01*
X8079494Y-10804585D01*
X8079494Y-10875297D01*
X8150205Y-10875297D01*
X8150205Y-11075297D02*
X8150205Y-11004585D01*
X8079494Y-11004585D01*
X8079494Y-11075297D01*
X8150205Y-11075297D01*
X8150205Y-11275297D02*
X8150205Y-11204585D01*
X8079494Y-11204585D01*
X8079494Y-11275297D01*
X8150205Y-11275297D01*
X8150205Y-13675297D02*
X8150205Y-13604585D01*
X8079494Y-13604585D01*
X8079494Y-13675297D01*
X8150205Y-13675297D01*
X8150205Y-13875297D02*
X8150205Y-13804585D01*
X8079494Y-13804585D01*
X8079494Y-13875297D01*
X8150205Y-13875297D01*
X8150205Y-14075297D02*
X8150205Y-14004585D01*
X8079494Y-14004585D01*
X8079494Y-14075297D01*
X8150205Y-14075297D01*
X8150205Y-14275297D02*
X8150205Y-14204585D01*
X8079494Y-14204585D01*
X8079494Y-14275297D01*
X8150205Y-14275297D01*
X8150205Y-14475297D02*
X8150205Y-14404585D01*
X8079494Y-14404585D01*
X8079494Y-14475297D01*
X8150205Y-14475297D01*
X8150205Y-14675297D02*
X8150205Y-14604585D01*
X8079494Y-14604585D01*
X8079494Y-14675297D01*
X8150205Y-14675297D01*
X10250206Y-6875297D02*
X10250206Y-6804585D01*
X10179494Y-6804585D01*
X10179494Y-6875297D01*
X10250206Y-6875297D01*
X10250206Y-7075297D02*
X10250206Y-7004585D01*
X10179494Y-7004585D01*
X10179494Y-7075297D01*
X10250206Y-7075297D01*
X10250206Y-7275297D02*
X10250206Y-7204585D01*
X10179494Y-7204585D01*
X10179494Y-7275297D01*
X10250206Y-7275297D01*
X10250206Y-7475297D02*
X10250206Y-7404585D01*
X10179494Y-7404585D01*
X10179494Y-7475297D01*
X10250206Y-7475297D01*
X10250206Y-7675297D02*
X10250206Y-7604585D01*
X10179494Y-7604585D01*
X10179494Y-7675297D01*
X10250206Y-7675297D01*
X10250206Y-7875297D02*
X10250206Y-7804585D01*
X10179494Y-7804585D01*
X10179494Y-7875297D01*
X10250206Y-7875297D01*
X10250206Y-10275297D02*
X10250206Y-10204585D01*
X10179494Y-10204585D01*
X10179494Y-10275297D01*
X10250206Y-10275297D01*
X10250206Y-10475297D02*
X10250206Y-10404585D01*
X10179494Y-10404585D01*
X10179494Y-10475297D01*
X10250206Y-10475297D01*
X10250206Y-10675297D02*
X10250206Y-10604585D01*
X10179494Y-10604585D01*
X10179494Y-10675297D01*
X10250206Y-10675297D01*
X10250206Y-10875297D02*
X10250206Y-10804585D01*
X10179494Y-10804585D01*
X10179494Y-10875297D01*
X10250206Y-10875297D01*
X10250206Y-11075297D02*
X10250206Y-11004585D01*
X10179494Y-11004585D01*
X10179494Y-11075297D01*
X10250206Y-11075297D01*
X10250206Y-11275297D02*
X10250206Y-11204585D01*
X10179494Y-11204585D01*
X10179494Y-11275297D01*
X10250206Y-11275297D01*
X10250206Y-13675297D02*
X10250206Y-13604585D01*
X10179494Y-13604585D01*
X10179494Y-13675297D01*
X10250206Y-13675297D01*
X10250206Y-13875297D02*
X10250206Y-13804585D01*
X10179494Y-13804585D01*
X10179494Y-13875297D01*
X10250206Y-13875297D01*
X10250206Y-14075297D02*
X10250206Y-14004585D01*
X10179494Y-14004585D01*
X10179494Y-14075297D01*
X10250206Y-14075297D01*
X10250206Y-14275297D02*
X10250206Y-14204585D01*
X10179494Y-14204585D01*
X10179494Y-14275297D01*
X10250206Y-14275297D01*
X10250206Y-14475297D02*
X10250206Y-14404585D01*
X10179494Y-14404585D01*
X10179494Y-14475297D01*
X10250206Y-14475297D01*
X10250206Y-14675297D02*
X10250206Y-14604585D01*
X10179494Y-14604585D01*
X10179494Y-14675297D01*
X10250206Y-14675297D01*
X12350205Y-6875297D02*
X12350205Y-6804585D01*
X12279494Y-6804585D01*
X12279494Y-6875297D01*
X12350205Y-6875297D01*
X12350205Y-7075297D02*
X12350205Y-7004585D01*
X12279494Y-7004585D01*
X12279494Y-7075297D01*
X12350205Y-7075297D01*
X12350205Y-7275297D02*
X12350205Y-7204585D01*
X12279494Y-7204585D01*
X12279494Y-7275297D01*
X12350205Y-7275297D01*
X12350205Y-7475297D02*
X12350205Y-7404585D01*
X12279494Y-7404585D01*
X12279494Y-7475297D01*
X12350205Y-7475297D01*
X12350205Y-7675297D02*
X12350205Y-7604585D01*
X12279494Y-7604585D01*
X12279494Y-7675297D01*
X12350205Y-7675297D01*
X12350205Y-7875297D02*
X12350205Y-7804585D01*
X12279494Y-7804585D01*
X12279494Y-7875297D01*
X12350205Y-7875297D01*
X12350205Y-10275297D02*
X12350205Y-10204585D01*
X12279494Y-10204585D01*
X12279494Y-10275297D01*
X12350205Y-10275297D01*
X12350205Y-10475297D02*
X12350205Y-10404585D01*
X12279494Y-10404585D01*
X12279494Y-10475297D01*
X12350205Y-10475297D01*
X12350205Y-10675297D02*
X12350205Y-10604585D01*
X12279494Y-10604585D01*
X12279494Y-10675297D01*
X12350205Y-10675297D01*
X12350205Y-10875297D02*
X12350205Y-10804585D01*
X12279494Y-10804585D01*
X12279494Y-10875297D01*
X12350205Y-10875297D01*
X12350205Y-11075297D02*
X12350205Y-11004585D01*
X12279494Y-11004585D01*
X12279494Y-11075297D01*
X12350205Y-11075297D01*
X12350205Y-11275297D02*
X12350205Y-11204585D01*
X12279494Y-11204585D01*
X12279494Y-11275297D01*
X12350205Y-11275297D01*
X12350205Y-13675297D02*
X12350205Y-13604585D01*
X12279494Y-13604585D01*
X12279494Y-13675297D01*
X12350205Y-13675297D01*
X12350205Y-13875297D02*
X12350205Y-13804585D01*
X12279494Y-13804585D01*
X12279494Y-13875297D01*
X12350205Y-13875297D01*
X12350205Y-14075297D02*
X12350205Y-14004585D01*
X12279494Y-14004585D01*
X12279494Y-14075297D01*
X12350205Y-14075297D01*
X12350205Y-14275297D02*
X12350205Y-14204585D01*
X12279494Y-14204585D01*
X12279494Y-14275297D01*
X12350205Y-14275297D01*
X12350205Y-14475297D02*
X12350205Y-14404585D01*
X12279494Y-14404585D01*
X12279494Y-14475297D01*
X12350205Y-14475297D01*
X12350205Y-14675297D02*
X12350205Y-14604585D01*
X12279494Y-14604585D01*
X12279494Y-14675297D01*
X12350205Y-14675297D01*
D11*
X2312500Y-7111441D02*
X2372500Y-7051441D01*
X2312500Y-6991441D01*
X2252500Y-7051441D01*
X2312500Y-7111441D01*
X2312500Y-8511441D02*
X2372500Y-8451441D01*
X2312500Y-8391441D01*
X2252500Y-8451441D01*
X2312500Y-8511441D01*
X2312500Y-10506441D02*
X2372500Y-10446441D01*
X2312500Y-10386441D01*
X2252500Y-10446441D01*
X2312500Y-10506441D01*
X2312500Y-11906441D02*
X2372500Y-11846441D01*
X2312500Y-11786441D01*
X2252500Y-11846441D01*
X2312500Y-11906441D01*
X2312500Y-13911441D02*
X2372500Y-13851441D01*
X2312500Y-13791441D01*
X2252500Y-13851441D01*
X2312500Y-13911441D01*
X2312500Y-15311441D02*
X2372500Y-15251441D01*
X2312500Y-15191441D01*
X2252500Y-15251441D01*
X2312500Y-15311441D01*
X13110440Y-3523881D02*
X13170440Y-3463881D01*
X13110440Y-3403881D01*
X13050440Y-3463881D01*
X13110440Y-3523881D01*
X13110440Y-3873881D02*
X13170440Y-3813881D01*
X13110440Y-3753881D01*
X13050440Y-3813881D01*
X13110440Y-3873881D01*
X13225000Y-7231441D02*
X13285000Y-7171441D01*
X13225000Y-7111441D01*
X13165000Y-7171441D01*
X13225000Y-7231441D01*
X13225000Y-7581441D02*
X13285000Y-7521441D01*
X13225000Y-7461441D01*
X13165000Y-7521441D01*
X13225000Y-7581441D01*
X13225000Y-10631441D02*
X13285000Y-10571441D01*
X13225000Y-10511441D01*
X13165000Y-10571441D01*
X13225000Y-10631441D01*
X13225000Y-10981441D02*
X13285000Y-10921441D01*
X13225000Y-10861441D01*
X13165000Y-10921441D01*
X13225000Y-10981441D01*
X13225000Y-14031441D02*
X13285000Y-13971441D01*
X13225000Y-13911441D01*
X13165000Y-13971441D01*
X13225000Y-14031441D01*
X13225000Y-14381441D02*
X13285000Y-14321441D01*
X13225000Y-14261441D01*
X13165000Y-14321441D01*
X13225000Y-14381441D01*
X13635440Y-3603881D02*
X13695440Y-3543881D01*
X13635440Y-3483881D01*
X13575440Y-3543881D01*
X13635440Y-3603881D01*
X13750000Y-7311441D02*
X13810000Y-7251441D01*
X13750000Y-7191441D01*
X13690000Y-7251441D01*
X13750000Y-7311441D01*
X13750000Y-10711441D02*
X13810000Y-10651441D01*
X13750000Y-10591441D01*
X13690000Y-10651441D01*
X13750000Y-10711441D01*
X13750000Y-14111441D02*
X13810000Y-14051441D01*
X13750000Y-13991441D01*
X13690000Y-14051441D01*
X13750000Y-14111441D01*
X19935440Y-3793881D02*
X19995440Y-3733881D01*
X19935440Y-3673881D01*
X19875440Y-3733881D01*
X19935440Y-3793881D01*
X20050000Y-7501441D02*
X20110000Y-7441441D01*
X20050000Y-7381441D01*
X19990000Y-7441441D01*
X20050000Y-7501441D01*
X20050000Y-10901441D02*
X20110000Y-10841441D01*
X20050000Y-10781441D01*
X19990000Y-10841441D01*
X20050000Y-10901441D01*
X20050000Y-14301441D02*
X20110000Y-14241441D01*
X20050000Y-14181441D01*
X19990000Y-14241441D01*
X20050000Y-14301441D01*
X20460440Y-3523881D02*
X20520440Y-3463881D01*
X20460440Y-3403881D01*
X20400440Y-3463881D01*
X20460440Y-3523881D01*
X20460440Y-3873881D02*
X20520440Y-3813881D01*
X20460440Y-3753881D01*
X20400440Y-3813881D01*
X20460440Y-3873881D01*
X20575000Y-7231441D02*
X20635000Y-7171441D01*
X20575000Y-7111441D01*
X20515000Y-7171441D01*
X20575000Y-7231441D01*
X20575000Y-7581441D02*
X20635000Y-7521441D01*
X20575000Y-7461441D01*
X20515000Y-7521441D01*
X20575000Y-7581441D01*
X20575000Y-10631441D02*
X20635000Y-10571441D01*
X20575000Y-10511441D01*
X20515000Y-10571441D01*
X20575000Y-10631441D01*
X20575000Y-10981441D02*
X20635000Y-10921441D01*
X20575000Y-10861441D01*
X20515000Y-10921441D01*
X20575000Y-10981441D01*
X20575000Y-14031441D02*
X20635000Y-13971441D01*
X20575000Y-13911441D01*
X20515000Y-13971441D01*
X20575000Y-14031441D01*
X20575000Y-14381441D02*
X20635000Y-14321441D01*
X20575000Y-14261441D01*
X20515000Y-14321441D01*
X20575000Y-14381441D01*
D13*
X11444600Y-1776441D02*
X11574600Y-1906441D01*
X11574600Y-1776441D02*
X11444600Y-1906441D01*
X11574600Y-1841441D02*
G75*
G02*
X11444600Y-1841441I-65000J0D01*
G01*
X11444600Y-1841441D02*
G75*
G02*
X11574600Y-1841441I65000J0D01*
G01*
D10*
X11444600Y-1806441D02*
X11444600Y-1876441D01*
X11574600Y-1876441D02*
G75*
G02*
X11444600Y-1876441I-65000J0D01*
G01*
X11574600Y-1876441D02*
X11574600Y-1806441D01*
X11574600Y-1806441D02*
G75*
G03*
X11444600Y-1806441I-65000J0D01*
G01*
D13*
X11494600Y-2506441D02*
X11624600Y-2636441D01*
X11624600Y-2506441D02*
X11494600Y-2636441D01*
X11624600Y-2571441D02*
G75*
G02*
X11494600Y-2571441I-65000J0D01*
G01*
X11494600Y-2571441D02*
G75*
G02*
X11624600Y-2571441I65000J0D01*
G01*
D10*
X11524600Y-2636441D02*
X11594600Y-2636441D01*
X11594600Y-2506441D02*
G75*
G02*
X11594600Y-2636441I0J-65000D01*
G01*
X11594600Y-2506441D02*
X11524600Y-2506441D01*
X11524600Y-2506441D02*
G75*
G03*
X11524600Y-2636441I0J-65000D01*
G01*
D13*
X11904600Y-1386441D02*
X12034600Y-1516441D01*
X12034600Y-1386441D02*
X11904600Y-1516441D01*
X12034600Y-1451441D02*
G75*
G02*
X11904600Y-1451441I-65000J0D01*
G01*
X11904600Y-1451441D02*
G75*
G02*
X12034600Y-1451441I65000J0D01*
G01*
D10*
X12004600Y-1386441D02*
X11934600Y-1386441D01*
X11934600Y-1516441D02*
G75*
G02*
X11934600Y-1386441I0J65000D01*
G01*
X11934600Y-1516441D02*
X12004600Y-1516441D01*
X12004600Y-1516441D02*
G75*
G03*
X12004600Y-1386441I0J65000D01*
G01*
D13*
X12154600Y-2066441D02*
X12284600Y-2196441D01*
X12284600Y-2066441D02*
X12154600Y-2196441D01*
X12284600Y-2131441D02*
G75*
G02*
X12154600Y-2131441I-65000J0D01*
G01*
X12154600Y-2131441D02*
G75*
G02*
X12284600Y-2131441I65000J0D01*
G01*
D10*
X12154600Y-2096441D02*
X12154600Y-2166441D01*
X12284600Y-2166441D02*
G75*
G02*
X12154600Y-2166441I-65000J0D01*
G01*
X12284600Y-2166441D02*
X12284600Y-2096441D01*
X12284600Y-2096441D02*
G75*
G03*
X12154600Y-2096441I-65000J0D01*
G01*
D13*
X12424600Y-2186441D02*
X12554600Y-2316441D01*
X12554600Y-2186441D02*
X12424600Y-2316441D01*
X12554600Y-2251441D02*
G75*
G02*
X12424600Y-2251441I-65000J0D01*
G01*
X12424600Y-2251441D02*
G75*
G02*
X12554600Y-2251441I65000J0D01*
G01*
D10*
X12424600Y-2216441D02*
X12424600Y-2286441D01*
X12554600Y-2286441D02*
G75*
G02*
X12424600Y-2286441I-65000J0D01*
G01*
X12554600Y-2286441D02*
X12554600Y-2216441D01*
X12554600Y-2216441D02*
G75*
G03*
X12424600Y-2216441I-65000J0D01*
G01*
D14*
X13440440Y-3978881D02*
X13610440Y-4148881D01*
X13610440Y-3978881D02*
X13440440Y-4148881D01*
X13525440Y-3978881D02*
X13525440Y-4148881D01*
X13440440Y-4063881D02*
X13610440Y-4063881D01*
X13555000Y-7686441D02*
X13725000Y-7856441D01*
X13725000Y-7686441D02*
X13555000Y-7856441D01*
X13640000Y-7686441D02*
X13640000Y-7856441D01*
X13555000Y-7771441D02*
X13725000Y-7771441D01*
X13555000Y-11086441D02*
X13725000Y-11256441D01*
X13725000Y-11086441D02*
X13555000Y-11256441D01*
X13640000Y-11086441D02*
X13640000Y-11256441D01*
X13555000Y-11171441D02*
X13725000Y-11171441D01*
X13555000Y-14486441D02*
X13725000Y-14656441D01*
X13725000Y-14486441D02*
X13555000Y-14656441D01*
X13640000Y-14486441D02*
X13640000Y-14656441D01*
X13555000Y-14571441D02*
X13725000Y-14571441D01*
X13560440Y-3128881D02*
X13730440Y-3298881D01*
X13730440Y-3128881D02*
X13560440Y-3298881D01*
X13645440Y-3128881D02*
X13645440Y-3298881D01*
X13560440Y-3213881D02*
X13730440Y-3213881D01*
X13675000Y-6836441D02*
X13845000Y-7006441D01*
X13845000Y-6836441D02*
X13675000Y-7006441D01*
X13760000Y-6836441D02*
X13760000Y-7006441D01*
X13675000Y-6921441D02*
X13845000Y-6921441D01*
X13675000Y-10236441D02*
X13845000Y-10406441D01*
X13845000Y-10236441D02*
X13675000Y-10406441D01*
X13760000Y-10236441D02*
X13760000Y-10406441D01*
X13675000Y-10321441D02*
X13845000Y-10321441D01*
X13675000Y-13636441D02*
X13845000Y-13806441D01*
X13845000Y-13636441D02*
X13675000Y-13806441D01*
X13760000Y-13636441D02*
X13760000Y-13806441D01*
X13675000Y-13721441D02*
X13845000Y-13721441D01*
X19840440Y-3128881D02*
X20010440Y-3298881D01*
X20010440Y-3128881D02*
X19840440Y-3298881D01*
X19925440Y-3128881D02*
X19925440Y-3298881D01*
X19840440Y-3213881D02*
X20010440Y-3213881D01*
X19955000Y-6836441D02*
X20125000Y-7006441D01*
X20125000Y-6836441D02*
X19955000Y-7006441D01*
X20040000Y-6836441D02*
X20040000Y-7006441D01*
X19955000Y-6921441D02*
X20125000Y-6921441D01*
X19955000Y-10236441D02*
X20125000Y-10406441D01*
X20125000Y-10236441D02*
X19955000Y-10406441D01*
X20040000Y-10236441D02*
X20040000Y-10406441D01*
X19955000Y-10321441D02*
X20125000Y-10321441D01*
X19955000Y-13636441D02*
X20125000Y-13806441D01*
X20125000Y-13636441D02*
X19955000Y-13806441D01*
X20040000Y-13636441D02*
X20040000Y-13806441D01*
X19955000Y-13721441D02*
X20125000Y-13721441D01*
X19960440Y-3978881D02*
X20130440Y-4148881D01*
X20130440Y-3978881D02*
X19960440Y-4148881D01*
X20045440Y-3978881D02*
X20045440Y-4148881D01*
X19960440Y-4063881D02*
X20130440Y-4063881D01*
X20075000Y-7686441D02*
X20245000Y-7856441D01*
X20245000Y-7686441D02*
X20075000Y-7856441D01*
X20160000Y-7686441D02*
X20160000Y-7856441D01*
X20075000Y-7771441D02*
X20245000Y-7771441D01*
X20075000Y-11086441D02*
X20245000Y-11256441D01*
X20245000Y-11086441D02*
X20075000Y-11256441D01*
X20160000Y-11086441D02*
X20160000Y-11256441D01*
X20075000Y-11171441D02*
X20245000Y-11171441D01*
X20075000Y-14486441D02*
X20245000Y-14656441D01*
X20245000Y-14486441D02*
X20075000Y-14656441D01*
X20160000Y-14486441D02*
X20160000Y-14656441D01*
X20075000Y-14571441D02*
X20245000Y-14571441D01*
D12*
X3203250Y-6666441D02*
X3403250Y-6866441D01*
X3403250Y-6666441D02*
X3203250Y-6866441D01*
X3373961Y-6837152D02*
X3373961Y-6695730D01*
X3232538Y-6695730D01*
X3232538Y-6837152D01*
X3373961Y-6837152D01*
D10*
X3258250Y-6866441D02*
X3348250Y-6866441D01*
X3348250Y-6666441D02*
G75*
G02*
X3348250Y-6866441I0J-100000D01*
G01*
X3348250Y-6666441D02*
X3258250Y-6666441D01*
X3258250Y-6666441D02*
G75*
G03*
X3258250Y-6866441I0J-100000D01*
G01*
D12*
X3203250Y-7826441D02*
X3403250Y-8026441D01*
X3403250Y-7826441D02*
X3203250Y-8026441D01*
X3373961Y-7997152D02*
X3373961Y-7855730D01*
X3232538Y-7855730D01*
X3232538Y-7997152D01*
X3373961Y-7997152D01*
D10*
X3258250Y-8026441D02*
X3348250Y-8026441D01*
X3348250Y-7826441D02*
G75*
G02*
X3348250Y-8026441I0J-100000D01*
G01*
X3348250Y-7826441D02*
X3258250Y-7826441D01*
X3258250Y-7826441D02*
G75*
G03*
X3258250Y-8026441I0J-100000D01*
G01*
D12*
X3203250Y-10066441D02*
X3403250Y-10266441D01*
X3403250Y-10066441D02*
X3203250Y-10266441D01*
X3373961Y-10237152D02*
X3373961Y-10095730D01*
X3232538Y-10095730D01*
X3232538Y-10237152D01*
X3373961Y-10237152D01*
D10*
X3258250Y-10266441D02*
X3348250Y-10266441D01*
X3348250Y-10066441D02*
G75*
G02*
X3348250Y-10266441I0J-100000D01*
G01*
X3348250Y-10066441D02*
X3258250Y-10066441D01*
X3258250Y-10066441D02*
G75*
G03*
X3258250Y-10266441I0J-100000D01*
G01*
D12*
X3203250Y-11226441D02*
X3403250Y-11426441D01*
X3403250Y-11226441D02*
X3203250Y-11426441D01*
X3373961Y-11397152D02*
X3373961Y-11255730D01*
X3232538Y-11255730D01*
X3232538Y-11397152D01*
X3373961Y-11397152D01*
D10*
X3258250Y-11426441D02*
X3348250Y-11426441D01*
X3348250Y-11226441D02*
G75*
G02*
X3348250Y-11426441I0J-100000D01*
G01*
X3348250Y-11226441D02*
X3258250Y-11226441D01*
X3258250Y-11226441D02*
G75*
G03*
X3258250Y-11426441I0J-100000D01*
G01*
D12*
X3203250Y-13466441D02*
X3403250Y-13666441D01*
X3403250Y-13466441D02*
X3203250Y-13666441D01*
X3373961Y-13637152D02*
X3373961Y-13495730D01*
X3232538Y-13495730D01*
X3232538Y-13637152D01*
X3373961Y-13637152D01*
D10*
X3258250Y-13666441D02*
X3348250Y-13666441D01*
X3348250Y-13466441D02*
G75*
G02*
X3348250Y-13666441I0J-100000D01*
G01*
X3348250Y-13466441D02*
X3258250Y-13466441D01*
X3258250Y-13466441D02*
G75*
G03*
X3258250Y-13666441I0J-100000D01*
G01*
D12*
X3203250Y-14626441D02*
X3403250Y-14826441D01*
X3403250Y-14626441D02*
X3203250Y-14826441D01*
X3373961Y-14797152D02*
X3373961Y-14655730D01*
X3232538Y-14655730D01*
X3232538Y-14797152D01*
X3373961Y-14797152D01*
D10*
X3258250Y-14826441D02*
X3348250Y-14826441D01*
X3348250Y-14626441D02*
G75*
G02*
X3348250Y-14826441I0J-100000D01*
G01*
X3348250Y-14626441D02*
X3258250Y-14626441D01*
X3258250Y-14626441D02*
G75*
G03*
X3258250Y-14826441I0J-100000D01*
G01*
D12*
X6914850Y-6659941D02*
X7114850Y-6859941D01*
X7114850Y-6659941D02*
X6914850Y-6859941D01*
X7085561Y-6830652D02*
X7085561Y-6689230D01*
X6944138Y-6689230D01*
X6944138Y-6830652D01*
X7085561Y-6830652D01*
D10*
X6969850Y-6859941D02*
X7059850Y-6859941D01*
X7059850Y-6659941D02*
G75*
G02*
X7059850Y-6859941I0J-100000D01*
G01*
X7059850Y-6659941D02*
X6969850Y-6659941D01*
X6969850Y-6659941D02*
G75*
G03*
X6969850Y-6859941I0J-100000D01*
G01*
D12*
X6914850Y-7819941D02*
X7114850Y-8019941D01*
X7114850Y-7819941D02*
X6914850Y-8019941D01*
X7085561Y-7990652D02*
X7085561Y-7849230D01*
X6944138Y-7849230D01*
X6944138Y-7990652D01*
X7085561Y-7990652D01*
D10*
X6969850Y-8019941D02*
X7059850Y-8019941D01*
X7059850Y-7819941D02*
G75*
G02*
X7059850Y-8019941I0J-100000D01*
G01*
X7059850Y-7819941D02*
X6969850Y-7819941D01*
X6969850Y-7819941D02*
G75*
G03*
X6969850Y-8019941I0J-100000D01*
G01*
D12*
X6914850Y-10059941D02*
X7114850Y-10259941D01*
X7114850Y-10059941D02*
X6914850Y-10259941D01*
X7085561Y-10230652D02*
X7085561Y-10089230D01*
X6944138Y-10089230D01*
X6944138Y-10230652D01*
X7085561Y-10230652D01*
D10*
X6969850Y-10259941D02*
X7059850Y-10259941D01*
X7059850Y-10059941D02*
G75*
G02*
X7059850Y-10259941I0J-100000D01*
G01*
X7059850Y-10059941D02*
X6969850Y-10059941D01*
X6969850Y-10059941D02*
G75*
G03*
X6969850Y-10259941I0J-100000D01*
G01*
D12*
X6914850Y-11219941D02*
X7114850Y-11419941D01*
X7114850Y-11219941D02*
X6914850Y-11419941D01*
X7085561Y-11390652D02*
X7085561Y-11249230D01*
X6944138Y-11249230D01*
X6944138Y-11390652D01*
X7085561Y-11390652D01*
D10*
X6969850Y-11419941D02*
X7059850Y-11419941D01*
X7059850Y-11219941D02*
G75*
G02*
X7059850Y-11419941I0J-100000D01*
G01*
X7059850Y-11219941D02*
X6969850Y-11219941D01*
X6969850Y-11219941D02*
G75*
G03*
X6969850Y-11419941I0J-100000D01*
G01*
D12*
X6914850Y-13459941D02*
X7114850Y-13659941D01*
X7114850Y-13459941D02*
X6914850Y-13659941D01*
X7085561Y-13630652D02*
X7085561Y-13489230D01*
X6944138Y-13489230D01*
X6944138Y-13630652D01*
X7085561Y-13630652D01*
D10*
X6969850Y-13659941D02*
X7059850Y-13659941D01*
X7059850Y-13459941D02*
G75*
G02*
X7059850Y-13659941I0J-100000D01*
G01*
X7059850Y-13459941D02*
X6969850Y-13459941D01*
X6969850Y-13459941D02*
G75*
G03*
X6969850Y-13659941I0J-100000D01*
G01*
D12*
X6914850Y-14619941D02*
X7114850Y-14819941D01*
X7114850Y-14619941D02*
X6914850Y-14819941D01*
X7085561Y-14790652D02*
X7085561Y-14649230D01*
X6944138Y-14649230D01*
X6944138Y-14790652D01*
X7085561Y-14790652D01*
D10*
X6969850Y-14819941D02*
X7059850Y-14819941D01*
X7059850Y-14619941D02*
G75*
G02*
X7059850Y-14819941I0J-100000D01*
G01*
X7059850Y-14619941D02*
X6969850Y-14619941D01*
X6969850Y-14619941D02*
G75*
G03*
X6969850Y-14819941I0J-100000D01*
G01*
D12*
X9014850Y-6659941D02*
X9214850Y-6859941D01*
X9214850Y-6659941D02*
X9014850Y-6859941D01*
X9185561Y-6830652D02*
X9185561Y-6689230D01*
X9044138Y-6689230D01*
X9044138Y-6830652D01*
X9185561Y-6830652D01*
D10*
X9069850Y-6859941D02*
X9159850Y-6859941D01*
X9159850Y-6659941D02*
G75*
G02*
X9159850Y-6859941I0J-100000D01*
G01*
X9159850Y-6659941D02*
X9069850Y-6659941D01*
X9069850Y-6659941D02*
G75*
G03*
X9069850Y-6859941I0J-100000D01*
G01*
D12*
X9014850Y-7819941D02*
X9214850Y-8019941D01*
X9214850Y-7819941D02*
X9014850Y-8019941D01*
X9185561Y-7990652D02*
X9185561Y-7849230D01*
X9044138Y-7849230D01*
X9044138Y-7990652D01*
X9185561Y-7990652D01*
D10*
X9069850Y-8019941D02*
X9159850Y-8019941D01*
X9159850Y-7819941D02*
G75*
G02*
X9159850Y-8019941I0J-100000D01*
G01*
X9159850Y-7819941D02*
X9069850Y-7819941D01*
X9069850Y-7819941D02*
G75*
G03*
X9069850Y-8019941I0J-100000D01*
G01*
D12*
X9014850Y-10059941D02*
X9214850Y-10259941D01*
X9214850Y-10059941D02*
X9014850Y-10259941D01*
X9185561Y-10230652D02*
X9185561Y-10089230D01*
X9044138Y-10089230D01*
X9044138Y-10230652D01*
X9185561Y-10230652D01*
D10*
X9069850Y-10259941D02*
X9159850Y-10259941D01*
X9159850Y-10059941D02*
G75*
G02*
X9159850Y-10259941I0J-100000D01*
G01*
X9159850Y-10059941D02*
X9069850Y-10059941D01*
X9069850Y-10059941D02*
G75*
G03*
X9069850Y-10259941I0J-100000D01*
G01*
D12*
X9014850Y-11219941D02*
X9214850Y-11419941D01*
X9214850Y-11219941D02*
X9014850Y-11419941D01*
X9185561Y-11390652D02*
X9185561Y-11249230D01*
X9044138Y-11249230D01*
X9044138Y-11390652D01*
X9185561Y-11390652D01*
D10*
X9069850Y-11419941D02*
X9159850Y-11419941D01*
X9159850Y-11219941D02*
G75*
G02*
X9159850Y-11419941I0J-100000D01*
G01*
X9159850Y-11219941D02*
X9069850Y-11219941D01*
X9069850Y-11219941D02*
G75*
G03*
X9069850Y-11419941I0J-100000D01*
G01*
D12*
X9014850Y-13459941D02*
X9214850Y-13659941D01*
X9214850Y-13459941D02*
X9014850Y-13659941D01*
X9185561Y-13630652D02*
X9185561Y-13489230D01*
X9044138Y-13489230D01*
X9044138Y-13630652D01*
X9185561Y-13630652D01*
D10*
X9069850Y-13659941D02*
X9159850Y-13659941D01*
X9159850Y-13459941D02*
G75*
G02*
X9159850Y-13659941I0J-100000D01*
G01*
X9159850Y-13459941D02*
X9069850Y-13459941D01*
X9069850Y-13459941D02*
G75*
G03*
X9069850Y-13659941I0J-100000D01*
G01*
D12*
X9014850Y-14619941D02*
X9214850Y-14819941D01*
X9214850Y-14619941D02*
X9014850Y-14819941D01*
X9185561Y-14790652D02*
X9185561Y-14649230D01*
X9044138Y-14649230D01*
X9044138Y-14790652D01*
X9185561Y-14790652D01*
D10*
X9069850Y-14819941D02*
X9159850Y-14819941D01*
X9159850Y-14619941D02*
G75*
G02*
X9159850Y-14819941I0J-100000D01*
G01*
X9159850Y-14619941D02*
X9069850Y-14619941D01*
X9069850Y-14619941D02*
G75*
G03*
X9069850Y-14819941I0J-100000D01*
G01*
D12*
X11114850Y-6659941D02*
X11314850Y-6859941D01*
X11314850Y-6659941D02*
X11114850Y-6859941D01*
X11285561Y-6830652D02*
X11285561Y-6689230D01*
X11144138Y-6689230D01*
X11144138Y-6830652D01*
X11285561Y-6830652D01*
D10*
X11169850Y-6859941D02*
X11259850Y-6859941D01*
X11259850Y-6659941D02*
G75*
G02*
X11259850Y-6859941I0J-100000D01*
G01*
X11259850Y-6659941D02*
X11169850Y-6659941D01*
X11169850Y-6659941D02*
G75*
G03*
X11169850Y-6859941I0J-100000D01*
G01*
D12*
X11114850Y-7819941D02*
X11314850Y-8019941D01*
X11314850Y-7819941D02*
X11114850Y-8019941D01*
X11285561Y-7990652D02*
X11285561Y-7849230D01*
X11144138Y-7849230D01*
X11144138Y-7990652D01*
X11285561Y-7990652D01*
D10*
X11169850Y-8019941D02*
X11259850Y-8019941D01*
X11259850Y-7819941D02*
G75*
G02*
X11259850Y-8019941I0J-100000D01*
G01*
X11259850Y-7819941D02*
X11169850Y-7819941D01*
X11169850Y-7819941D02*
G75*
G03*
X11169850Y-8019941I0J-100000D01*
G01*
D12*
X11114850Y-10059941D02*
X11314850Y-10259941D01*
X11314850Y-10059941D02*
X11114850Y-10259941D01*
X11285561Y-10230652D02*
X11285561Y-10089230D01*
X11144138Y-10089230D01*
X11144138Y-10230652D01*
X11285561Y-10230652D01*
D10*
X11169850Y-10259941D02*
X11259850Y-10259941D01*
X11259850Y-10059941D02*
G75*
G02*
X11259850Y-10259941I0J-100000D01*
G01*
X11259850Y-10059941D02*
X11169850Y-10059941D01*
X11169850Y-10059941D02*
G75*
G03*
X11169850Y-10259941I0J-100000D01*
G01*
D12*
X11114850Y-11219941D02*
X11314850Y-11419941D01*
X11314850Y-11219941D02*
X11114850Y-11419941D01*
X11285561Y-11390652D02*
X11285561Y-11249230D01*
X11144138Y-11249230D01*
X11144138Y-11390652D01*
X11285561Y-11390652D01*
D10*
X11169850Y-11419941D02*
X11259850Y-11419941D01*
X11259850Y-11219941D02*
G75*
G02*
X11259850Y-11419941I0J-100000D01*
G01*
X11259850Y-11219941D02*
X11169850Y-11219941D01*
X11169850Y-11219941D02*
G75*
G03*
X11169850Y-11419941I0J-100000D01*
G01*
D12*
X11114850Y-13459941D02*
X11314850Y-13659941D01*
X11314850Y-13459941D02*
X11114850Y-13659941D01*
X11285561Y-13630652D02*
X11285561Y-13489230D01*
X11144138Y-13489230D01*
X11144138Y-13630652D01*
X11285561Y-13630652D01*
D10*
X11169850Y-13659941D02*
X11259850Y-13659941D01*
X11259850Y-13459941D02*
G75*
G02*
X11259850Y-13659941I0J-100000D01*
G01*
X11259850Y-13459941D02*
X11169850Y-13459941D01*
X11169850Y-13459941D02*
G75*
G03*
X11169850Y-13659941I0J-100000D01*
G01*
D12*
X11114850Y-14619941D02*
X11314850Y-14819941D01*
X11314850Y-14619941D02*
X11114850Y-14819941D01*
X11285561Y-14790652D02*
X11285561Y-14649230D01*
X11144138Y-14649230D01*
X11144138Y-14790652D01*
X11285561Y-14790652D01*
D10*
X11169850Y-14819941D02*
X11259850Y-14819941D01*
X11259850Y-14619941D02*
G75*
G02*
X11259850Y-14819941I0J-100000D01*
G01*
X11259850Y-14619941D02*
X11169850Y-14619941D01*
X11169850Y-14619941D02*
G75*
G03*
X11169850Y-14819941I0J-100000D01*
G01*
D15*
X1712500Y-6011441D02*
X1962500Y-6261441D01*
X1962500Y-6011441D02*
X1712500Y-6261441D01*
X1837500Y-6261441D02*
X1962500Y-6136441D01*
X1837500Y-6011441D01*
X1712500Y-6136441D01*
X1837500Y-6261441D01*
X1712500Y-6526441D02*
X1962500Y-6776441D01*
X1962500Y-6526441D02*
X1712500Y-6776441D01*
X1837500Y-6776441D02*
X1962500Y-6651441D01*
X1837500Y-6526441D01*
X1712500Y-6651441D01*
X1837500Y-6776441D01*
X1712500Y-7926441D02*
X1962500Y-8176441D01*
X1962500Y-7926441D02*
X1712500Y-8176441D01*
X1837500Y-8176441D02*
X1962500Y-8051441D01*
X1837500Y-7926441D01*
X1712500Y-8051441D01*
X1837500Y-8176441D01*
X1712500Y-8441441D02*
X1962500Y-8691441D01*
X1962500Y-8441441D02*
X1712500Y-8691441D01*
X1837500Y-8691441D02*
X1962500Y-8566441D01*
X1837500Y-8441441D01*
X1712500Y-8566441D01*
X1837500Y-8691441D01*
X1712500Y-9406441D02*
X1962500Y-9656441D01*
X1962500Y-9406441D02*
X1712500Y-9656441D01*
X1837500Y-9656441D02*
X1962500Y-9531441D01*
X1837500Y-9406441D01*
X1712500Y-9531441D01*
X1837500Y-9656441D01*
X1712500Y-9921441D02*
X1962500Y-10171441D01*
X1962500Y-9921441D02*
X1712500Y-10171441D01*
X1837500Y-10171441D02*
X1962500Y-10046441D01*
X1837500Y-9921441D01*
X1712500Y-10046441D01*
X1837500Y-10171441D01*
X1712500Y-11321441D02*
X1962500Y-11571441D01*
X1962500Y-11321441D02*
X1712500Y-11571441D01*
X1837500Y-11571441D02*
X1962500Y-11446441D01*
X1837500Y-11321441D01*
X1712500Y-11446441D01*
X1837500Y-11571441D01*
X1712500Y-11836441D02*
X1962500Y-12086441D01*
X1962500Y-11836441D02*
X1712500Y-12086441D01*
X1837500Y-12086441D02*
X1962500Y-11961441D01*
X1837500Y-11836441D01*
X1712500Y-11961441D01*
X1837500Y-12086441D01*
X1712500Y-12811441D02*
X1962500Y-13061441D01*
X1962500Y-12811441D02*
X1712500Y-13061441D01*
X1837500Y-13061441D02*
X1962500Y-12936441D01*
X1837500Y-12811441D01*
X1712500Y-12936441D01*
X1837500Y-13061441D01*
X1712500Y-13326441D02*
X1962500Y-13576441D01*
X1962500Y-13326441D02*
X1712500Y-13576441D01*
X1837500Y-13576441D02*
X1962500Y-13451441D01*
X1837500Y-13326441D01*
X1712500Y-13451441D01*
X1837500Y-13576441D01*
X1712500Y-14726441D02*
X1962500Y-14976441D01*
X1962500Y-14726441D02*
X1712500Y-14976441D01*
X1837500Y-14976441D02*
X1962500Y-14851441D01*
X1837500Y-14726441D01*
X1712500Y-14851441D01*
X1837500Y-14976441D01*
X1712500Y-15241441D02*
X1962500Y-15491441D01*
X1962500Y-15241441D02*
X1712500Y-15491441D01*
X1837500Y-15491441D02*
X1962500Y-15366441D01*
X1837500Y-15241441D01*
X1712500Y-15366441D01*
X1837500Y-15491441D01*
D12*
X1455777Y-16167204D02*
X1455777Y-15967204D01*
X1455777Y-15967204D02*
X1503396Y-15967204D01*
X1503396Y-15967204D02*
X1531967Y-15976728D01*
X1531967Y-15976728D02*
X1551015Y-15995776D01*
X1551015Y-15995776D02*
X1560538Y-16014823D01*
X1560538Y-16014823D02*
X1570062Y-16052918D01*
X1570062Y-16052918D02*
X1570062Y-16081490D01*
X1570062Y-16081490D02*
X1560538Y-16119585D01*
X1560538Y-16119585D02*
X1551015Y-16138633D01*
X1551015Y-16138633D02*
X1531967Y-16157680D01*
X1531967Y-16157680D02*
X1503396Y-16167204D01*
X1503396Y-16167204D02*
X1455777Y-16167204D01*
X1655777Y-16167204D02*
X1655777Y-16033871D01*
X1655777Y-16071966D02*
X1665300Y-16052918D01*
X1665300Y-16052918D02*
X1674824Y-16043395D01*
X1674824Y-16043395D02*
X1693872Y-16033871D01*
X1693872Y-16033871D02*
X1712919Y-16033871D01*
X1779586Y-16167204D02*
X1779586Y-16033871D01*
X1779586Y-15967204D02*
X1770062Y-15976728D01*
X1770062Y-15976728D02*
X1779586Y-15986252D01*
X1779586Y-15986252D02*
X1789110Y-15976728D01*
X1789110Y-15976728D02*
X1779586Y-15967204D01*
X1779586Y-15967204D02*
X1779586Y-15986252D01*
X1903396Y-16167204D02*
X1884348Y-16157680D01*
X1884348Y-16157680D02*
X1874824Y-16138633D01*
X1874824Y-16138633D02*
X1874824Y-15967204D01*
X2008157Y-16167204D02*
X1989110Y-16157680D01*
X1989110Y-16157680D02*
X1979586Y-16138633D01*
X1979586Y-16138633D02*
X1979586Y-15967204D01*
X2236729Y-16167204D02*
X2236729Y-15967204D01*
X2236729Y-15967204D02*
X2303396Y-16110061D01*
X2303396Y-16110061D02*
X2370062Y-15967204D01*
X2370062Y-15967204D02*
X2370062Y-16167204D01*
X2551015Y-16167204D02*
X2551015Y-16062442D01*
X2551015Y-16062442D02*
X2541491Y-16043395D01*
X2541491Y-16043395D02*
X2522443Y-16033871D01*
X2522443Y-16033871D02*
X2484348Y-16033871D01*
X2484348Y-16033871D02*
X2465300Y-16043395D01*
X2551015Y-16157680D02*
X2531967Y-16167204D01*
X2531967Y-16167204D02*
X2484348Y-16167204D01*
X2484348Y-16167204D02*
X2465300Y-16157680D01*
X2465300Y-16157680D02*
X2455777Y-16138633D01*
X2455777Y-16138633D02*
X2455777Y-16119585D01*
X2455777Y-16119585D02*
X2465300Y-16100538D01*
X2465300Y-16100538D02*
X2484348Y-16091014D01*
X2484348Y-16091014D02*
X2531967Y-16091014D01*
X2531967Y-16091014D02*
X2551015Y-16081490D01*
X2646253Y-16033871D02*
X2646253Y-16233871D01*
X2646253Y-16043395D02*
X2665300Y-16033871D01*
X2665300Y-16033871D02*
X2703396Y-16033871D01*
X2703396Y-16033871D02*
X2722443Y-16043395D01*
X2722443Y-16043395D02*
X2731967Y-16052918D01*
X2731967Y-16052918D02*
X2741491Y-16071966D01*
X2741491Y-16071966D02*
X2741491Y-16129109D01*
X2741491Y-16129109D02*
X2731967Y-16148157D01*
X2731967Y-16148157D02*
X2722443Y-16157680D01*
X2722443Y-16157680D02*
X2703396Y-16167204D01*
X2703396Y-16167204D02*
X2665300Y-16167204D01*
X2665300Y-16167204D02*
X2646253Y-16157680D01*
X2827205Y-16148157D02*
X2836729Y-16157680D01*
X2836729Y-16157680D02*
X2827205Y-16167204D01*
X2827205Y-16167204D02*
X2817681Y-16157680D01*
X2817681Y-16157680D02*
X2827205Y-16148157D01*
X2827205Y-16148157D02*
X2827205Y-16167204D01*
X2827205Y-16043395D02*
X2836729Y-16052918D01*
X2836729Y-16052918D02*
X2827205Y-16062442D01*
X2827205Y-16062442D02*
X2817681Y-16052918D01*
X2817681Y-16052918D02*
X2827205Y-16043395D01*
X2827205Y-16043395D02*
X2827205Y-16062442D01*
D10*
X1155000Y-16475720D02*
X1195000Y-16515720D01*
X1195000Y-16475720D02*
X1155000Y-16515720D01*
D12*
X1493872Y-16387204D02*
X1512919Y-16387204D01*
X1512919Y-16387204D02*
X1531967Y-16396728D01*
X1531967Y-16396728D02*
X1541491Y-16406252D01*
X1541491Y-16406252D02*
X1551015Y-16425299D01*
X1551015Y-16425299D02*
X1560538Y-16463395D01*
X1560538Y-16463395D02*
X1560538Y-16511014D01*
X1560538Y-16511014D02*
X1551015Y-16549109D01*
X1551015Y-16549109D02*
X1541491Y-16568157D01*
X1541491Y-16568157D02*
X1531967Y-16577680D01*
X1531967Y-16577680D02*
X1512919Y-16587204D01*
X1512919Y-16587204D02*
X1493872Y-16587204D01*
X1493872Y-16587204D02*
X1474824Y-16577680D01*
X1474824Y-16577680D02*
X1465300Y-16568157D01*
X1465300Y-16568157D02*
X1455777Y-16549109D01*
X1455777Y-16549109D02*
X1446253Y-16511014D01*
X1446253Y-16511014D02*
X1446253Y-16463395D01*
X1446253Y-16463395D02*
X1455777Y-16425299D01*
X1455777Y-16425299D02*
X1465300Y-16406252D01*
X1465300Y-16406252D02*
X1474824Y-16396728D01*
X1474824Y-16396728D02*
X1493872Y-16387204D01*
X1646253Y-16568157D02*
X1655777Y-16577680D01*
X1655777Y-16577680D02*
X1646253Y-16587204D01*
X1646253Y-16587204D02*
X1636729Y-16577680D01*
X1636729Y-16577680D02*
X1646253Y-16568157D01*
X1646253Y-16568157D02*
X1646253Y-16587204D01*
X1827205Y-16453871D02*
X1827205Y-16587204D01*
X1779586Y-16377680D02*
X1731967Y-16520538D01*
X1731967Y-16520538D02*
X1855777Y-16520538D01*
X1970062Y-16387204D02*
X1989110Y-16387204D01*
X1989110Y-16387204D02*
X2008158Y-16396728D01*
X2008158Y-16396728D02*
X2017681Y-16406252D01*
X2017681Y-16406252D02*
X2027205Y-16425299D01*
X2027205Y-16425299D02*
X2036729Y-16463395D01*
X2036729Y-16463395D02*
X2036729Y-16511014D01*
X2036729Y-16511014D02*
X2027205Y-16549109D01*
X2027205Y-16549109D02*
X2017681Y-16568157D01*
X2017681Y-16568157D02*
X2008158Y-16577680D01*
X2008158Y-16577680D02*
X1989110Y-16587204D01*
X1989110Y-16587204D02*
X1970062Y-16587204D01*
X1970062Y-16587204D02*
X1951015Y-16577680D01*
X1951015Y-16577680D02*
X1941491Y-16568157D01*
X1941491Y-16568157D02*
X1931967Y-16549109D01*
X1931967Y-16549109D02*
X1922443Y-16511014D01*
X1922443Y-16511014D02*
X1922443Y-16463395D01*
X1922443Y-16463395D02*
X1931967Y-16425299D01*
X1931967Y-16425299D02*
X1941491Y-16406252D01*
X1941491Y-16406252D02*
X1951015Y-16396728D01*
X1951015Y-16396728D02*
X1970062Y-16387204D01*
X2160539Y-16387204D02*
X2179586Y-16387204D01*
X2179586Y-16387204D02*
X2198634Y-16396728D01*
X2198634Y-16396728D02*
X2208158Y-16406252D01*
X2208158Y-16406252D02*
X2217681Y-16425299D01*
X2217681Y-16425299D02*
X2227205Y-16463395D01*
X2227205Y-16463395D02*
X2227205Y-16511014D01*
X2227205Y-16511014D02*
X2217681Y-16549109D01*
X2217681Y-16549109D02*
X2208158Y-16568157D01*
X2208158Y-16568157D02*
X2198634Y-16577680D01*
X2198634Y-16577680D02*
X2179586Y-16587204D01*
X2179586Y-16587204D02*
X2160539Y-16587204D01*
X2160539Y-16587204D02*
X2141491Y-16577680D01*
X2141491Y-16577680D02*
X2131967Y-16568157D01*
X2131967Y-16568157D02*
X2122443Y-16549109D01*
X2122443Y-16549109D02*
X2112920Y-16511014D01*
X2112920Y-16511014D02*
X2112920Y-16463395D01*
X2112920Y-16463395D02*
X2122443Y-16425299D01*
X2122443Y-16425299D02*
X2131967Y-16406252D01*
X2131967Y-16406252D02*
X2141491Y-16396728D01*
X2141491Y-16396728D02*
X2160539Y-16387204D01*
X2312920Y-16587204D02*
X2312920Y-16453871D01*
X2312920Y-16472918D02*
X2322443Y-16463395D01*
X2322443Y-16463395D02*
X2341491Y-16453871D01*
X2341491Y-16453871D02*
X2370062Y-16453871D01*
X2370062Y-16453871D02*
X2389110Y-16463395D01*
X2389110Y-16463395D02*
X2398634Y-16482442D01*
X2398634Y-16482442D02*
X2398634Y-16587204D01*
X2398634Y-16482442D02*
X2408158Y-16463395D01*
X2408158Y-16463395D02*
X2427205Y-16453871D01*
X2427205Y-16453871D02*
X2455777Y-16453871D01*
X2455777Y-16453871D02*
X2474824Y-16463395D01*
X2474824Y-16463395D02*
X2484348Y-16482442D01*
X2484348Y-16482442D02*
X2484348Y-16587204D01*
X2579586Y-16587204D02*
X2579586Y-16453871D01*
X2579586Y-16472918D02*
X2589110Y-16463395D01*
X2589110Y-16463395D02*
X2608158Y-16453871D01*
X2608158Y-16453871D02*
X2636729Y-16453871D01*
X2636729Y-16453871D02*
X2655777Y-16463395D01*
X2655777Y-16463395D02*
X2665301Y-16482442D01*
X2665301Y-16482442D02*
X2665301Y-16587204D01*
X2665301Y-16482442D02*
X2674824Y-16463395D01*
X2674824Y-16463395D02*
X2693872Y-16453871D01*
X2693872Y-16453871D02*
X2722443Y-16453871D01*
X2722443Y-16453871D02*
X2741491Y-16463395D01*
X2741491Y-16463395D02*
X2751015Y-16482442D01*
X2751015Y-16482442D02*
X2751015Y-16587204D01*
X3141491Y-16377680D02*
X2970062Y-16634823D01*
X3398634Y-16387204D02*
X3417682Y-16387204D01*
X3417682Y-16387204D02*
X3436729Y-16396728D01*
X3436729Y-16396728D02*
X3446253Y-16406252D01*
X3446253Y-16406252D02*
X3455777Y-16425299D01*
X3455777Y-16425299D02*
X3465301Y-16463395D01*
X3465301Y-16463395D02*
X3465301Y-16511014D01*
X3465301Y-16511014D02*
X3455777Y-16549109D01*
X3455777Y-16549109D02*
X3446253Y-16568157D01*
X3446253Y-16568157D02*
X3436729Y-16577680D01*
X3436729Y-16577680D02*
X3417682Y-16587204D01*
X3417682Y-16587204D02*
X3398634Y-16587204D01*
X3398634Y-16587204D02*
X3379586Y-16577680D01*
X3379586Y-16577680D02*
X3370062Y-16568157D01*
X3370062Y-16568157D02*
X3360539Y-16549109D01*
X3360539Y-16549109D02*
X3351015Y-16511014D01*
X3351015Y-16511014D02*
X3351015Y-16463395D01*
X3351015Y-16463395D02*
X3360539Y-16425299D01*
X3360539Y-16425299D02*
X3370062Y-16406252D01*
X3370062Y-16406252D02*
X3379586Y-16396728D01*
X3379586Y-16396728D02*
X3398634Y-16387204D01*
X3551015Y-16568157D02*
X3560539Y-16577680D01*
X3560539Y-16577680D02*
X3551015Y-16587204D01*
X3551015Y-16587204D02*
X3541491Y-16577680D01*
X3541491Y-16577680D02*
X3551015Y-16568157D01*
X3551015Y-16568157D02*
X3551015Y-16587204D01*
X3684348Y-16387204D02*
X3703396Y-16387204D01*
X3703396Y-16387204D02*
X3722443Y-16396728D01*
X3722443Y-16396728D02*
X3731967Y-16406252D01*
X3731967Y-16406252D02*
X3741491Y-16425299D01*
X3741491Y-16425299D02*
X3751015Y-16463395D01*
X3751015Y-16463395D02*
X3751015Y-16511014D01*
X3751015Y-16511014D02*
X3741491Y-16549109D01*
X3741491Y-16549109D02*
X3731967Y-16568157D01*
X3731967Y-16568157D02*
X3722443Y-16577680D01*
X3722443Y-16577680D02*
X3703396Y-16587204D01*
X3703396Y-16587204D02*
X3684348Y-16587204D01*
X3684348Y-16587204D02*
X3665301Y-16577680D01*
X3665301Y-16577680D02*
X3655777Y-16568157D01*
X3655777Y-16568157D02*
X3646253Y-16549109D01*
X3646253Y-16549109D02*
X3636729Y-16511014D01*
X3636729Y-16511014D02*
X3636729Y-16463395D01*
X3636729Y-16463395D02*
X3646253Y-16425299D01*
X3646253Y-16425299D02*
X3655777Y-16406252D01*
X3655777Y-16406252D02*
X3665301Y-16396728D01*
X3665301Y-16396728D02*
X3684348Y-16387204D01*
X3941491Y-16587204D02*
X3827205Y-16587204D01*
X3884348Y-16587204D02*
X3884348Y-16387204D01*
X3884348Y-16387204D02*
X3865301Y-16415776D01*
X3865301Y-16415776D02*
X3846253Y-16434823D01*
X3846253Y-16434823D02*
X3827205Y-16444347D01*
X4122443Y-16387204D02*
X4027205Y-16387204D01*
X4027205Y-16387204D02*
X4017682Y-16482442D01*
X4017682Y-16482442D02*
X4027205Y-16472918D01*
X4027205Y-16472918D02*
X4046253Y-16463395D01*
X4046253Y-16463395D02*
X4093872Y-16463395D01*
X4093872Y-16463395D02*
X4112920Y-16472918D01*
X4112920Y-16472918D02*
X4122443Y-16482442D01*
X4122443Y-16482442D02*
X4131967Y-16501490D01*
X4131967Y-16501490D02*
X4131967Y-16549109D01*
X4131967Y-16549109D02*
X4122443Y-16568157D01*
X4122443Y-16568157D02*
X4112920Y-16577680D01*
X4112920Y-16577680D02*
X4093872Y-16587204D01*
X4093872Y-16587204D02*
X4046253Y-16587204D01*
X4046253Y-16587204D02*
X4027205Y-16577680D01*
X4027205Y-16577680D02*
X4017682Y-16568157D01*
X4198634Y-16387204D02*
X4331967Y-16387204D01*
X4331967Y-16387204D02*
X4246253Y-16587204D01*
X4398634Y-16387204D02*
X4398634Y-16425299D01*
X4474825Y-16387204D02*
X4474825Y-16425299D01*
X4770063Y-16663395D02*
X4760539Y-16653871D01*
X4760539Y-16653871D02*
X4741491Y-16625299D01*
X4741491Y-16625299D02*
X4731967Y-16606252D01*
X4731967Y-16606252D02*
X4722444Y-16577680D01*
X4722444Y-16577680D02*
X4712920Y-16530061D01*
X4712920Y-16530061D02*
X4712920Y-16491966D01*
X4712920Y-16491966D02*
X4722444Y-16444347D01*
X4722444Y-16444347D02*
X4731967Y-16415776D01*
X4731967Y-16415776D02*
X4741491Y-16396728D01*
X4741491Y-16396728D02*
X4760539Y-16368157D01*
X4760539Y-16368157D02*
X4770063Y-16358633D01*
X4836729Y-16406252D02*
X4846253Y-16396728D01*
X4846253Y-16396728D02*
X4865301Y-16387204D01*
X4865301Y-16387204D02*
X4912920Y-16387204D01*
X4912920Y-16387204D02*
X4931967Y-16396728D01*
X4931967Y-16396728D02*
X4941491Y-16406252D01*
X4941491Y-16406252D02*
X4951015Y-16425299D01*
X4951015Y-16425299D02*
X4951015Y-16444347D01*
X4951015Y-16444347D02*
X4941491Y-16472918D01*
X4941491Y-16472918D02*
X4827206Y-16587204D01*
X4827206Y-16587204D02*
X4951015Y-16587204D01*
X5074825Y-16387204D02*
X5093872Y-16387204D01*
X5093872Y-16387204D02*
X5112920Y-16396728D01*
X5112920Y-16396728D02*
X5122444Y-16406252D01*
X5122444Y-16406252D02*
X5131967Y-16425299D01*
X5131967Y-16425299D02*
X5141491Y-16463395D01*
X5141491Y-16463395D02*
X5141491Y-16511014D01*
X5141491Y-16511014D02*
X5131967Y-16549109D01*
X5131967Y-16549109D02*
X5122444Y-16568157D01*
X5122444Y-16568157D02*
X5112920Y-16577680D01*
X5112920Y-16577680D02*
X5093872Y-16587204D01*
X5093872Y-16587204D02*
X5074825Y-16587204D01*
X5074825Y-16587204D02*
X5055777Y-16577680D01*
X5055777Y-16577680D02*
X5046253Y-16568157D01*
X5046253Y-16568157D02*
X5036729Y-16549109D01*
X5036729Y-16549109D02*
X5027206Y-16511014D01*
X5027206Y-16511014D02*
X5027206Y-16463395D01*
X5027206Y-16463395D02*
X5036729Y-16425299D01*
X5036729Y-16425299D02*
X5046253Y-16406252D01*
X5046253Y-16406252D02*
X5055777Y-16396728D01*
X5055777Y-16396728D02*
X5074825Y-16387204D01*
X5312920Y-16387204D02*
X5274825Y-16387204D01*
X5274825Y-16387204D02*
X5255777Y-16396728D01*
X5255777Y-16396728D02*
X5246253Y-16406252D01*
X5246253Y-16406252D02*
X5227206Y-16434823D01*
X5227206Y-16434823D02*
X5217682Y-16472918D01*
X5217682Y-16472918D02*
X5217682Y-16549109D01*
X5217682Y-16549109D02*
X5227206Y-16568157D01*
X5227206Y-16568157D02*
X5236729Y-16577680D01*
X5236729Y-16577680D02*
X5255777Y-16587204D01*
X5255777Y-16587204D02*
X5293872Y-16587204D01*
X5293872Y-16587204D02*
X5312920Y-16577680D01*
X5312920Y-16577680D02*
X5322444Y-16568157D01*
X5322444Y-16568157D02*
X5331967Y-16549109D01*
X5331967Y-16549109D02*
X5331967Y-16501490D01*
X5331967Y-16501490D02*
X5322444Y-16482442D01*
X5322444Y-16482442D02*
X5312920Y-16472918D01*
X5312920Y-16472918D02*
X5293872Y-16463395D01*
X5293872Y-16463395D02*
X5255777Y-16463395D01*
X5255777Y-16463395D02*
X5236729Y-16472918D01*
X5236729Y-16472918D02*
X5227206Y-16482442D01*
X5227206Y-16482442D02*
X5217682Y-16501490D01*
X5570063Y-16587204D02*
X5570063Y-16387204D01*
X5655777Y-16587204D02*
X5655777Y-16482442D01*
X5655777Y-16482442D02*
X5646253Y-16463395D01*
X5646253Y-16463395D02*
X5627206Y-16453871D01*
X5627206Y-16453871D02*
X5598634Y-16453871D01*
X5598634Y-16453871D02*
X5579587Y-16463395D01*
X5579587Y-16463395D02*
X5570063Y-16472918D01*
X5779586Y-16587204D02*
X5760539Y-16577680D01*
X5760539Y-16577680D02*
X5751015Y-16568157D01*
X5751015Y-16568157D02*
X5741491Y-16549109D01*
X5741491Y-16549109D02*
X5741491Y-16491966D01*
X5741491Y-16491966D02*
X5751015Y-16472918D01*
X5751015Y-16472918D02*
X5760539Y-16463395D01*
X5760539Y-16463395D02*
X5779586Y-16453871D01*
X5779586Y-16453871D02*
X5808158Y-16453871D01*
X5808158Y-16453871D02*
X5827206Y-16463395D01*
X5827206Y-16463395D02*
X5836729Y-16472918D01*
X5836729Y-16472918D02*
X5846253Y-16491966D01*
X5846253Y-16491966D02*
X5846253Y-16549109D01*
X5846253Y-16549109D02*
X5836729Y-16568157D01*
X5836729Y-16568157D02*
X5827206Y-16577680D01*
X5827206Y-16577680D02*
X5808158Y-16587204D01*
X5808158Y-16587204D02*
X5779586Y-16587204D01*
X5960539Y-16587204D02*
X5941491Y-16577680D01*
X5941491Y-16577680D02*
X5931967Y-16558633D01*
X5931967Y-16558633D02*
X5931967Y-16387204D01*
X6112920Y-16577680D02*
X6093872Y-16587204D01*
X6093872Y-16587204D02*
X6055777Y-16587204D01*
X6055777Y-16587204D02*
X6036729Y-16577680D01*
X6036729Y-16577680D02*
X6027206Y-16558633D01*
X6027206Y-16558633D02*
X6027206Y-16482442D01*
X6027206Y-16482442D02*
X6036729Y-16463395D01*
X6036729Y-16463395D02*
X6055777Y-16453871D01*
X6055777Y-16453871D02*
X6093872Y-16453871D01*
X6093872Y-16453871D02*
X6112920Y-16463395D01*
X6112920Y-16463395D02*
X6122444Y-16482442D01*
X6122444Y-16482442D02*
X6122444Y-16501490D01*
X6122444Y-16501490D02*
X6027206Y-16520538D01*
X6198634Y-16577680D02*
X6217682Y-16587204D01*
X6217682Y-16587204D02*
X6255777Y-16587204D01*
X6255777Y-16587204D02*
X6274825Y-16577680D01*
X6274825Y-16577680D02*
X6284348Y-16558633D01*
X6284348Y-16558633D02*
X6284348Y-16549109D01*
X6284348Y-16549109D02*
X6274825Y-16530061D01*
X6274825Y-16530061D02*
X6255777Y-16520538D01*
X6255777Y-16520538D02*
X6227206Y-16520538D01*
X6227206Y-16520538D02*
X6208158Y-16511014D01*
X6208158Y-16511014D02*
X6198634Y-16491966D01*
X6198634Y-16491966D02*
X6198634Y-16482442D01*
X6198634Y-16482442D02*
X6208158Y-16463395D01*
X6208158Y-16463395D02*
X6227206Y-16453871D01*
X6227206Y-16453871D02*
X6255777Y-16453871D01*
X6255777Y-16453871D02*
X6274825Y-16463395D01*
X6351015Y-16663395D02*
X6360539Y-16653871D01*
X6360539Y-16653871D02*
X6379587Y-16625299D01*
X6379587Y-16625299D02*
X6389110Y-16606252D01*
X6389110Y-16606252D02*
X6398634Y-16577680D01*
X6398634Y-16577680D02*
X6408158Y-16530061D01*
X6408158Y-16530061D02*
X6408158Y-16491966D01*
X6408158Y-16491966D02*
X6398634Y-16444347D01*
X6398634Y-16444347D02*
X6389110Y-16415776D01*
X6389110Y-16415776D02*
X6379587Y-16396728D01*
X6379587Y-16396728D02*
X6360539Y-16368157D01*
X6360539Y-16368157D02*
X6351015Y-16358633D01*
D10*
X1195000Y-16759720D02*
G75*
G02*
X1155000Y-16759720I-20000J0D01*
G01*
X1155000Y-16759720D02*
G75*
G02*
X1195000Y-16759720I20000J0D01*
G01*
D12*
X1493872Y-16651204D02*
X1512919Y-16651204D01*
X1512919Y-16651204D02*
X1531967Y-16660728D01*
X1531967Y-16660728D02*
X1541491Y-16670252D01*
X1541491Y-16670252D02*
X1551015Y-16689299D01*
X1551015Y-16689299D02*
X1560538Y-16727395D01*
X1560538Y-16727395D02*
X1560538Y-16775014D01*
X1560538Y-16775014D02*
X1551015Y-16813109D01*
X1551015Y-16813109D02*
X1541491Y-16832157D01*
X1541491Y-16832157D02*
X1531967Y-16841681D01*
X1531967Y-16841681D02*
X1512919Y-16851204D01*
X1512919Y-16851204D02*
X1493872Y-16851204D01*
X1493872Y-16851204D02*
X1474824Y-16841681D01*
X1474824Y-16841681D02*
X1465300Y-16832157D01*
X1465300Y-16832157D02*
X1455777Y-16813109D01*
X1455777Y-16813109D02*
X1446253Y-16775014D01*
X1446253Y-16775014D02*
X1446253Y-16727395D01*
X1446253Y-16727395D02*
X1455777Y-16689299D01*
X1455777Y-16689299D02*
X1465300Y-16670252D01*
X1465300Y-16670252D02*
X1474824Y-16660728D01*
X1474824Y-16660728D02*
X1493872Y-16651204D01*
X1646253Y-16832157D02*
X1655777Y-16841681D01*
X1655777Y-16841681D02*
X1646253Y-16851204D01*
X1646253Y-16851204D02*
X1636729Y-16841681D01*
X1636729Y-16841681D02*
X1646253Y-16832157D01*
X1646253Y-16832157D02*
X1646253Y-16851204D01*
X1827205Y-16717871D02*
X1827205Y-16851204D01*
X1779586Y-16641680D02*
X1731967Y-16784538D01*
X1731967Y-16784538D02*
X1855777Y-16784538D01*
X1970062Y-16651204D02*
X1989110Y-16651204D01*
X1989110Y-16651204D02*
X2008158Y-16660728D01*
X2008158Y-16660728D02*
X2017681Y-16670252D01*
X2017681Y-16670252D02*
X2027205Y-16689299D01*
X2027205Y-16689299D02*
X2036729Y-16727395D01*
X2036729Y-16727395D02*
X2036729Y-16775014D01*
X2036729Y-16775014D02*
X2027205Y-16813109D01*
X2027205Y-16813109D02*
X2017681Y-16832157D01*
X2017681Y-16832157D02*
X2008158Y-16841681D01*
X2008158Y-16841681D02*
X1989110Y-16851204D01*
X1989110Y-16851204D02*
X1970062Y-16851204D01*
X1970062Y-16851204D02*
X1951015Y-16841681D01*
X1951015Y-16841681D02*
X1941491Y-16832157D01*
X1941491Y-16832157D02*
X1931967Y-16813109D01*
X1931967Y-16813109D02*
X1922443Y-16775014D01*
X1922443Y-16775014D02*
X1922443Y-16727395D01*
X1922443Y-16727395D02*
X1931967Y-16689299D01*
X1931967Y-16689299D02*
X1941491Y-16670252D01*
X1941491Y-16670252D02*
X1951015Y-16660728D01*
X1951015Y-16660728D02*
X1970062Y-16651204D01*
X2160539Y-16651204D02*
X2179586Y-16651204D01*
X2179586Y-16651204D02*
X2198634Y-16660728D01*
X2198634Y-16660728D02*
X2208158Y-16670252D01*
X2208158Y-16670252D02*
X2217681Y-16689299D01*
X2217681Y-16689299D02*
X2227205Y-16727395D01*
X2227205Y-16727395D02*
X2227205Y-16775014D01*
X2227205Y-16775014D02*
X2217681Y-16813109D01*
X2217681Y-16813109D02*
X2208158Y-16832157D01*
X2208158Y-16832157D02*
X2198634Y-16841681D01*
X2198634Y-16841681D02*
X2179586Y-16851204D01*
X2179586Y-16851204D02*
X2160539Y-16851204D01*
X2160539Y-16851204D02*
X2141491Y-16841681D01*
X2141491Y-16841681D02*
X2131967Y-16832157D01*
X2131967Y-16832157D02*
X2122443Y-16813109D01*
X2122443Y-16813109D02*
X2112920Y-16775014D01*
X2112920Y-16775014D02*
X2112920Y-16727395D01*
X2112920Y-16727395D02*
X2122443Y-16689299D01*
X2122443Y-16689299D02*
X2131967Y-16670252D01*
X2131967Y-16670252D02*
X2141491Y-16660728D01*
X2141491Y-16660728D02*
X2160539Y-16651204D01*
X2312920Y-16851204D02*
X2312920Y-16717871D01*
X2312920Y-16736918D02*
X2322443Y-16727395D01*
X2322443Y-16727395D02*
X2341491Y-16717871D01*
X2341491Y-16717871D02*
X2370062Y-16717871D01*
X2370062Y-16717871D02*
X2389110Y-16727395D01*
X2389110Y-16727395D02*
X2398634Y-16746442D01*
X2398634Y-16746442D02*
X2398634Y-16851204D01*
X2398634Y-16746442D02*
X2408158Y-16727395D01*
X2408158Y-16727395D02*
X2427205Y-16717871D01*
X2427205Y-16717871D02*
X2455777Y-16717871D01*
X2455777Y-16717871D02*
X2474824Y-16727395D01*
X2474824Y-16727395D02*
X2484348Y-16746442D01*
X2484348Y-16746442D02*
X2484348Y-16851204D01*
X2579586Y-16851204D02*
X2579586Y-16717871D01*
X2579586Y-16736918D02*
X2589110Y-16727395D01*
X2589110Y-16727395D02*
X2608158Y-16717871D01*
X2608158Y-16717871D02*
X2636729Y-16717871D01*
X2636729Y-16717871D02*
X2655777Y-16727395D01*
X2655777Y-16727395D02*
X2665301Y-16746442D01*
X2665301Y-16746442D02*
X2665301Y-16851204D01*
X2665301Y-16746442D02*
X2674824Y-16727395D01*
X2674824Y-16727395D02*
X2693872Y-16717871D01*
X2693872Y-16717871D02*
X2722443Y-16717871D01*
X2722443Y-16717871D02*
X2741491Y-16727395D01*
X2741491Y-16727395D02*
X2751015Y-16746442D01*
X2751015Y-16746442D02*
X2751015Y-16851204D01*
X3141491Y-16641680D02*
X2970062Y-16898823D01*
X3398634Y-16651204D02*
X3417682Y-16651204D01*
X3417682Y-16651204D02*
X3436729Y-16660728D01*
X3436729Y-16660728D02*
X3446253Y-16670252D01*
X3446253Y-16670252D02*
X3455777Y-16689299D01*
X3455777Y-16689299D02*
X3465301Y-16727395D01*
X3465301Y-16727395D02*
X3465301Y-16775014D01*
X3465301Y-16775014D02*
X3455777Y-16813109D01*
X3455777Y-16813109D02*
X3446253Y-16832157D01*
X3446253Y-16832157D02*
X3436729Y-16841681D01*
X3436729Y-16841681D02*
X3417682Y-16851204D01*
X3417682Y-16851204D02*
X3398634Y-16851204D01*
X3398634Y-16851204D02*
X3379586Y-16841681D01*
X3379586Y-16841681D02*
X3370062Y-16832157D01*
X3370062Y-16832157D02*
X3360539Y-16813109D01*
X3360539Y-16813109D02*
X3351015Y-16775014D01*
X3351015Y-16775014D02*
X3351015Y-16727395D01*
X3351015Y-16727395D02*
X3360539Y-16689299D01*
X3360539Y-16689299D02*
X3370062Y-16670252D01*
X3370062Y-16670252D02*
X3379586Y-16660728D01*
X3379586Y-16660728D02*
X3398634Y-16651204D01*
X3551015Y-16832157D02*
X3560539Y-16841681D01*
X3560539Y-16841681D02*
X3551015Y-16851204D01*
X3551015Y-16851204D02*
X3541491Y-16841681D01*
X3541491Y-16841681D02*
X3551015Y-16832157D01*
X3551015Y-16832157D02*
X3551015Y-16851204D01*
X3684348Y-16651204D02*
X3703396Y-16651204D01*
X3703396Y-16651204D02*
X3722443Y-16660728D01*
X3722443Y-16660728D02*
X3731967Y-16670252D01*
X3731967Y-16670252D02*
X3741491Y-16689299D01*
X3741491Y-16689299D02*
X3751015Y-16727395D01*
X3751015Y-16727395D02*
X3751015Y-16775014D01*
X3751015Y-16775014D02*
X3741491Y-16813109D01*
X3741491Y-16813109D02*
X3731967Y-16832157D01*
X3731967Y-16832157D02*
X3722443Y-16841681D01*
X3722443Y-16841681D02*
X3703396Y-16851204D01*
X3703396Y-16851204D02*
X3684348Y-16851204D01*
X3684348Y-16851204D02*
X3665301Y-16841681D01*
X3665301Y-16841681D02*
X3655777Y-16832157D01*
X3655777Y-16832157D02*
X3646253Y-16813109D01*
X3646253Y-16813109D02*
X3636729Y-16775014D01*
X3636729Y-16775014D02*
X3636729Y-16727395D01*
X3636729Y-16727395D02*
X3646253Y-16689299D01*
X3646253Y-16689299D02*
X3655777Y-16670252D01*
X3655777Y-16670252D02*
X3665301Y-16660728D01*
X3665301Y-16660728D02*
X3684348Y-16651204D01*
X3941491Y-16851204D02*
X3827205Y-16851204D01*
X3884348Y-16851204D02*
X3884348Y-16651204D01*
X3884348Y-16651204D02*
X3865301Y-16679776D01*
X3865301Y-16679776D02*
X3846253Y-16698823D01*
X3846253Y-16698823D02*
X3827205Y-16708347D01*
X4122443Y-16651204D02*
X4027205Y-16651204D01*
X4027205Y-16651204D02*
X4017682Y-16746442D01*
X4017682Y-16746442D02*
X4027205Y-16736918D01*
X4027205Y-16736918D02*
X4046253Y-16727395D01*
X4046253Y-16727395D02*
X4093872Y-16727395D01*
X4093872Y-16727395D02*
X4112920Y-16736918D01*
X4112920Y-16736918D02*
X4122443Y-16746442D01*
X4122443Y-16746442D02*
X4131967Y-16765490D01*
X4131967Y-16765490D02*
X4131967Y-16813109D01*
X4131967Y-16813109D02*
X4122443Y-16832157D01*
X4122443Y-16832157D02*
X4112920Y-16841681D01*
X4112920Y-16841681D02*
X4093872Y-16851204D01*
X4093872Y-16851204D02*
X4046253Y-16851204D01*
X4046253Y-16851204D02*
X4027205Y-16841681D01*
X4027205Y-16841681D02*
X4017682Y-16832157D01*
X4198634Y-16651204D02*
X4331967Y-16651204D01*
X4331967Y-16651204D02*
X4246253Y-16851204D01*
X4398634Y-16651204D02*
X4398634Y-16689299D01*
X4474825Y-16651204D02*
X4474825Y-16689299D01*
X4770063Y-16927395D02*
X4760539Y-16917871D01*
X4760539Y-16917871D02*
X4741491Y-16889300D01*
X4741491Y-16889300D02*
X4731967Y-16870252D01*
X4731967Y-16870252D02*
X4722444Y-16841681D01*
X4722444Y-16841681D02*
X4712920Y-16794061D01*
X4712920Y-16794061D02*
X4712920Y-16755966D01*
X4712920Y-16755966D02*
X4722444Y-16708347D01*
X4722444Y-16708347D02*
X4731967Y-16679776D01*
X4731967Y-16679776D02*
X4741491Y-16660728D01*
X4741491Y-16660728D02*
X4760539Y-16632157D01*
X4760539Y-16632157D02*
X4770063Y-16622633D01*
X4884348Y-16651204D02*
X4903396Y-16651204D01*
X4903396Y-16651204D02*
X4922444Y-16660728D01*
X4922444Y-16660728D02*
X4931967Y-16670252D01*
X4931967Y-16670252D02*
X4941491Y-16689299D01*
X4941491Y-16689299D02*
X4951015Y-16727395D01*
X4951015Y-16727395D02*
X4951015Y-16775014D01*
X4951015Y-16775014D02*
X4941491Y-16813109D01*
X4941491Y-16813109D02*
X4931967Y-16832157D01*
X4931967Y-16832157D02*
X4922444Y-16841681D01*
X4922444Y-16841681D02*
X4903396Y-16851204D01*
X4903396Y-16851204D02*
X4884348Y-16851204D01*
X4884348Y-16851204D02*
X4865301Y-16841681D01*
X4865301Y-16841681D02*
X4855777Y-16832157D01*
X4855777Y-16832157D02*
X4846253Y-16813109D01*
X4846253Y-16813109D02*
X4836729Y-16775014D01*
X4836729Y-16775014D02*
X4836729Y-16727395D01*
X4836729Y-16727395D02*
X4846253Y-16689299D01*
X4846253Y-16689299D02*
X4855777Y-16670252D01*
X4855777Y-16670252D02*
X4865301Y-16660728D01*
X4865301Y-16660728D02*
X4884348Y-16651204D01*
X5189110Y-16851204D02*
X5189110Y-16651204D01*
X5274825Y-16851204D02*
X5274825Y-16746442D01*
X5274825Y-16746442D02*
X5265301Y-16727395D01*
X5265301Y-16727395D02*
X5246253Y-16717871D01*
X5246253Y-16717871D02*
X5217682Y-16717871D01*
X5217682Y-16717871D02*
X5198634Y-16727395D01*
X5198634Y-16727395D02*
X5189110Y-16736918D01*
X5398634Y-16851204D02*
X5379587Y-16841681D01*
X5379587Y-16841681D02*
X5370063Y-16832157D01*
X5370063Y-16832157D02*
X5360539Y-16813109D01*
X5360539Y-16813109D02*
X5360539Y-16755966D01*
X5360539Y-16755966D02*
X5370063Y-16736918D01*
X5370063Y-16736918D02*
X5379587Y-16727395D01*
X5379587Y-16727395D02*
X5398634Y-16717871D01*
X5398634Y-16717871D02*
X5427206Y-16717871D01*
X5427206Y-16717871D02*
X5446253Y-16727395D01*
X5446253Y-16727395D02*
X5455777Y-16736918D01*
X5455777Y-16736918D02*
X5465301Y-16755966D01*
X5465301Y-16755966D02*
X5465301Y-16813109D01*
X5465301Y-16813109D02*
X5455777Y-16832157D01*
X5455777Y-16832157D02*
X5446253Y-16841681D01*
X5446253Y-16841681D02*
X5427206Y-16851204D01*
X5427206Y-16851204D02*
X5398634Y-16851204D01*
X5579587Y-16851204D02*
X5560539Y-16841681D01*
X5560539Y-16841681D02*
X5551015Y-16822633D01*
X5551015Y-16822633D02*
X5551015Y-16651204D01*
X5731967Y-16841681D02*
X5712920Y-16851204D01*
X5712920Y-16851204D02*
X5674825Y-16851204D01*
X5674825Y-16851204D02*
X5655777Y-16841681D01*
X5655777Y-16841681D02*
X5646253Y-16822633D01*
X5646253Y-16822633D02*
X5646253Y-16746442D01*
X5646253Y-16746442D02*
X5655777Y-16727395D01*
X5655777Y-16727395D02*
X5674825Y-16717871D01*
X5674825Y-16717871D02*
X5712920Y-16717871D01*
X5712920Y-16717871D02*
X5731967Y-16727395D01*
X5731967Y-16727395D02*
X5741491Y-16746442D01*
X5741491Y-16746442D02*
X5741491Y-16765490D01*
X5741491Y-16765490D02*
X5646253Y-16784538D01*
X5817682Y-16841681D02*
X5836729Y-16851204D01*
X5836729Y-16851204D02*
X5874825Y-16851204D01*
X5874825Y-16851204D02*
X5893872Y-16841681D01*
X5893872Y-16841681D02*
X5903396Y-16822633D01*
X5903396Y-16822633D02*
X5903396Y-16813109D01*
X5903396Y-16813109D02*
X5893872Y-16794061D01*
X5893872Y-16794061D02*
X5874825Y-16784538D01*
X5874825Y-16784538D02*
X5846253Y-16784538D01*
X5846253Y-16784538D02*
X5827206Y-16775014D01*
X5827206Y-16775014D02*
X5817682Y-16755966D01*
X5817682Y-16755966D02*
X5817682Y-16746442D01*
X5817682Y-16746442D02*
X5827206Y-16727395D01*
X5827206Y-16727395D02*
X5846253Y-16717871D01*
X5846253Y-16717871D02*
X5874825Y-16717871D01*
X5874825Y-16717871D02*
X5893872Y-16727395D01*
X6141491Y-16775014D02*
X6293872Y-16775014D01*
X6217682Y-16851204D02*
X6217682Y-16698823D01*
X6522444Y-16651204D02*
X6646253Y-16651204D01*
X6646253Y-16651204D02*
X6579587Y-16727395D01*
X6579587Y-16727395D02*
X6608158Y-16727395D01*
X6608158Y-16727395D02*
X6627206Y-16736918D01*
X6627206Y-16736918D02*
X6636729Y-16746442D01*
X6636729Y-16746442D02*
X6646253Y-16765490D01*
X6646253Y-16765490D02*
X6646253Y-16813109D01*
X6646253Y-16813109D02*
X6636729Y-16832157D01*
X6636729Y-16832157D02*
X6627206Y-16841681D01*
X6627206Y-16841681D02*
X6608158Y-16851204D01*
X6608158Y-16851204D02*
X6551015Y-16851204D01*
X6551015Y-16851204D02*
X6531968Y-16841681D01*
X6531968Y-16841681D02*
X6522444Y-16832157D01*
X6874825Y-16841681D02*
X6893872Y-16851204D01*
X6893872Y-16851204D02*
X6931968Y-16851204D01*
X6931968Y-16851204D02*
X6951015Y-16841681D01*
X6951015Y-16841681D02*
X6960539Y-16822633D01*
X6960539Y-16822633D02*
X6960539Y-16813109D01*
X6960539Y-16813109D02*
X6951015Y-16794061D01*
X6951015Y-16794061D02*
X6931968Y-16784538D01*
X6931968Y-16784538D02*
X6903396Y-16784538D01*
X6903396Y-16784538D02*
X6884349Y-16775014D01*
X6884349Y-16775014D02*
X6874825Y-16755966D01*
X6874825Y-16755966D02*
X6874825Y-16746442D01*
X6874825Y-16746442D02*
X6884349Y-16727395D01*
X6884349Y-16727395D02*
X6903396Y-16717871D01*
X6903396Y-16717871D02*
X6931968Y-16717871D01*
X6931968Y-16717871D02*
X6951015Y-16727395D01*
X7074825Y-16851204D02*
X7055777Y-16841681D01*
X7055777Y-16841681D02*
X7046253Y-16822633D01*
X7046253Y-16822633D02*
X7046253Y-16651204D01*
X7179587Y-16851204D02*
X7160539Y-16841681D01*
X7160539Y-16841681D02*
X7151015Y-16832157D01*
X7151015Y-16832157D02*
X7141491Y-16813109D01*
X7141491Y-16813109D02*
X7141491Y-16755966D01*
X7141491Y-16755966D02*
X7151015Y-16736918D01*
X7151015Y-16736918D02*
X7160539Y-16727395D01*
X7160539Y-16727395D02*
X7179587Y-16717871D01*
X7179587Y-16717871D02*
X7208158Y-16717871D01*
X7208158Y-16717871D02*
X7227206Y-16727395D01*
X7227206Y-16727395D02*
X7236730Y-16736918D01*
X7236730Y-16736918D02*
X7246253Y-16755966D01*
X7246253Y-16755966D02*
X7246253Y-16813109D01*
X7246253Y-16813109D02*
X7236730Y-16832157D01*
X7236730Y-16832157D02*
X7227206Y-16841681D01*
X7227206Y-16841681D02*
X7208158Y-16851204D01*
X7208158Y-16851204D02*
X7179587Y-16851204D01*
X7303396Y-16717871D02*
X7379587Y-16717871D01*
X7331968Y-16651204D02*
X7331968Y-16822633D01*
X7331968Y-16822633D02*
X7341491Y-16841681D01*
X7341491Y-16841681D02*
X7360539Y-16851204D01*
X7360539Y-16851204D02*
X7379587Y-16851204D01*
X7436730Y-16841681D02*
X7455777Y-16851204D01*
X7455777Y-16851204D02*
X7493872Y-16851204D01*
X7493872Y-16851204D02*
X7512920Y-16841681D01*
X7512920Y-16841681D02*
X7522444Y-16822633D01*
X7522444Y-16822633D02*
X7522444Y-16813109D01*
X7522444Y-16813109D02*
X7512920Y-16794061D01*
X7512920Y-16794061D02*
X7493872Y-16784538D01*
X7493872Y-16784538D02*
X7465301Y-16784538D01*
X7465301Y-16784538D02*
X7446253Y-16775014D01*
X7446253Y-16775014D02*
X7436730Y-16755966D01*
X7436730Y-16755966D02*
X7436730Y-16746442D01*
X7436730Y-16746442D02*
X7446253Y-16727395D01*
X7446253Y-16727395D02*
X7465301Y-16717871D01*
X7465301Y-16717871D02*
X7493872Y-16717871D01*
X7493872Y-16717871D02*
X7512920Y-16727395D01*
X7589111Y-16927395D02*
X7598634Y-16917871D01*
X7598634Y-16917871D02*
X7617682Y-16889300D01*
X7617682Y-16889300D02*
X7627206Y-16870252D01*
X7627206Y-16870252D02*
X7636730Y-16841681D01*
X7636730Y-16841681D02*
X7646253Y-16794061D01*
X7646253Y-16794061D02*
X7646253Y-16755966D01*
X7646253Y-16755966D02*
X7636730Y-16708347D01*
X7636730Y-16708347D02*
X7627206Y-16679776D01*
X7627206Y-16679776D02*
X7617682Y-16660728D01*
X7617682Y-16660728D02*
X7598634Y-16632157D01*
X7598634Y-16632157D02*
X7589111Y-16622633D01*
D10*
X1155000Y-16983721D02*
X1155000Y-17063721D01*
X1115000Y-17023721D02*
X1195000Y-17023721D01*
D12*
X1493872Y-16915204D02*
X1512919Y-16915204D01*
X1512919Y-16915204D02*
X1531967Y-16924728D01*
X1531967Y-16924728D02*
X1541491Y-16934252D01*
X1541491Y-16934252D02*
X1551015Y-16953300D01*
X1551015Y-16953300D02*
X1560538Y-16991395D01*
X1560538Y-16991395D02*
X1560538Y-17039014D01*
X1560538Y-17039014D02*
X1551015Y-17077109D01*
X1551015Y-17077109D02*
X1541491Y-17096157D01*
X1541491Y-17096157D02*
X1531967Y-17105681D01*
X1531967Y-17105681D02*
X1512919Y-17115204D01*
X1512919Y-17115204D02*
X1493872Y-17115204D01*
X1493872Y-17115204D02*
X1474824Y-17105681D01*
X1474824Y-17105681D02*
X1465300Y-17096157D01*
X1465300Y-17096157D02*
X1455777Y-17077109D01*
X1455777Y-17077109D02*
X1446253Y-17039014D01*
X1446253Y-17039014D02*
X1446253Y-16991395D01*
X1446253Y-16991395D02*
X1455777Y-16953300D01*
X1455777Y-16953300D02*
X1465300Y-16934252D01*
X1465300Y-16934252D02*
X1474824Y-16924728D01*
X1474824Y-16924728D02*
X1493872Y-16915204D01*
X1646253Y-17096157D02*
X1655777Y-17105681D01*
X1655777Y-17105681D02*
X1646253Y-17115204D01*
X1646253Y-17115204D02*
X1636729Y-17105681D01*
X1636729Y-17105681D02*
X1646253Y-17096157D01*
X1646253Y-17096157D02*
X1646253Y-17115204D01*
X1770062Y-17000919D02*
X1751015Y-16991395D01*
X1751015Y-16991395D02*
X1741491Y-16981871D01*
X1741491Y-16981871D02*
X1731967Y-16962823D01*
X1731967Y-16962823D02*
X1731967Y-16953300D01*
X1731967Y-16953300D02*
X1741491Y-16934252D01*
X1741491Y-16934252D02*
X1751015Y-16924728D01*
X1751015Y-16924728D02*
X1770062Y-16915204D01*
X1770062Y-16915204D02*
X1808158Y-16915204D01*
X1808158Y-16915204D02*
X1827205Y-16924728D01*
X1827205Y-16924728D02*
X1836729Y-16934252D01*
X1836729Y-16934252D02*
X1846253Y-16953300D01*
X1846253Y-16953300D02*
X1846253Y-16962823D01*
X1846253Y-16962823D02*
X1836729Y-16981871D01*
X1836729Y-16981871D02*
X1827205Y-16991395D01*
X1827205Y-16991395D02*
X1808158Y-17000919D01*
X1808158Y-17000919D02*
X1770062Y-17000919D01*
X1770062Y-17000919D02*
X1751015Y-17010442D01*
X1751015Y-17010442D02*
X1741491Y-17019966D01*
X1741491Y-17019966D02*
X1731967Y-17039014D01*
X1731967Y-17039014D02*
X1731967Y-17077109D01*
X1731967Y-17077109D02*
X1741491Y-17096157D01*
X1741491Y-17096157D02*
X1751015Y-17105681D01*
X1751015Y-17105681D02*
X1770062Y-17115204D01*
X1770062Y-17115204D02*
X1808158Y-17115204D01*
X1808158Y-17115204D02*
X1827205Y-17105681D01*
X1827205Y-17105681D02*
X1836729Y-17096157D01*
X1836729Y-17096157D02*
X1846253Y-17077109D01*
X1846253Y-17077109D02*
X1846253Y-17039014D01*
X1846253Y-17039014D02*
X1836729Y-17019966D01*
X1836729Y-17019966D02*
X1827205Y-17010442D01*
X1827205Y-17010442D02*
X1808158Y-17000919D01*
X1970062Y-16915204D02*
X1989110Y-16915204D01*
X1989110Y-16915204D02*
X2008158Y-16924728D01*
X2008158Y-16924728D02*
X2017681Y-16934252D01*
X2017681Y-16934252D02*
X2027205Y-16953300D01*
X2027205Y-16953300D02*
X2036729Y-16991395D01*
X2036729Y-16991395D02*
X2036729Y-17039014D01*
X2036729Y-17039014D02*
X2027205Y-17077109D01*
X2027205Y-17077109D02*
X2017681Y-17096157D01*
X2017681Y-17096157D02*
X2008158Y-17105681D01*
X2008158Y-17105681D02*
X1989110Y-17115204D01*
X1989110Y-17115204D02*
X1970062Y-17115204D01*
X1970062Y-17115204D02*
X1951015Y-17105681D01*
X1951015Y-17105681D02*
X1941491Y-17096157D01*
X1941491Y-17096157D02*
X1931967Y-17077109D01*
X1931967Y-17077109D02*
X1922443Y-17039014D01*
X1922443Y-17039014D02*
X1922443Y-16991395D01*
X1922443Y-16991395D02*
X1931967Y-16953300D01*
X1931967Y-16953300D02*
X1941491Y-16934252D01*
X1941491Y-16934252D02*
X1951015Y-16924728D01*
X1951015Y-16924728D02*
X1970062Y-16915204D01*
X2160539Y-16915204D02*
X2179586Y-16915204D01*
X2179586Y-16915204D02*
X2198634Y-16924728D01*
X2198634Y-16924728D02*
X2208158Y-16934252D01*
X2208158Y-16934252D02*
X2217681Y-16953300D01*
X2217681Y-16953300D02*
X2227205Y-16991395D01*
X2227205Y-16991395D02*
X2227205Y-17039014D01*
X2227205Y-17039014D02*
X2217681Y-17077109D01*
X2217681Y-17077109D02*
X2208158Y-17096157D01*
X2208158Y-17096157D02*
X2198634Y-17105681D01*
X2198634Y-17105681D02*
X2179586Y-17115204D01*
X2179586Y-17115204D02*
X2160539Y-17115204D01*
X2160539Y-17115204D02*
X2141491Y-17105681D01*
X2141491Y-17105681D02*
X2131967Y-17096157D01*
X2131967Y-17096157D02*
X2122443Y-17077109D01*
X2122443Y-17077109D02*
X2112920Y-17039014D01*
X2112920Y-17039014D02*
X2112920Y-16991395D01*
X2112920Y-16991395D02*
X2122443Y-16953300D01*
X2122443Y-16953300D02*
X2131967Y-16934252D01*
X2131967Y-16934252D02*
X2141491Y-16924728D01*
X2141491Y-16924728D02*
X2160539Y-16915204D01*
X2312920Y-17115204D02*
X2312920Y-16981871D01*
X2312920Y-17000919D02*
X2322443Y-16991395D01*
X2322443Y-16991395D02*
X2341491Y-16981871D01*
X2341491Y-16981871D02*
X2370062Y-16981871D01*
X2370062Y-16981871D02*
X2389110Y-16991395D01*
X2389110Y-16991395D02*
X2398634Y-17010442D01*
X2398634Y-17010442D02*
X2398634Y-17115204D01*
X2398634Y-17010442D02*
X2408158Y-16991395D01*
X2408158Y-16991395D02*
X2427205Y-16981871D01*
X2427205Y-16981871D02*
X2455777Y-16981871D01*
X2455777Y-16981871D02*
X2474824Y-16991395D01*
X2474824Y-16991395D02*
X2484348Y-17010442D01*
X2484348Y-17010442D02*
X2484348Y-17115204D01*
X2579586Y-17115204D02*
X2579586Y-16981871D01*
X2579586Y-17000919D02*
X2589110Y-16991395D01*
X2589110Y-16991395D02*
X2608158Y-16981871D01*
X2608158Y-16981871D02*
X2636729Y-16981871D01*
X2636729Y-16981871D02*
X2655777Y-16991395D01*
X2655777Y-16991395D02*
X2665301Y-17010442D01*
X2665301Y-17010442D02*
X2665301Y-17115204D01*
X2665301Y-17010442D02*
X2674824Y-16991395D01*
X2674824Y-16991395D02*
X2693872Y-16981871D01*
X2693872Y-16981871D02*
X2722443Y-16981871D01*
X2722443Y-16981871D02*
X2741491Y-16991395D01*
X2741491Y-16991395D02*
X2751015Y-17010442D01*
X2751015Y-17010442D02*
X2751015Y-17115204D01*
X3141491Y-16905681D02*
X2970062Y-17162823D01*
X3398634Y-16915204D02*
X3417682Y-16915204D01*
X3417682Y-16915204D02*
X3436729Y-16924728D01*
X3436729Y-16924728D02*
X3446253Y-16934252D01*
X3446253Y-16934252D02*
X3455777Y-16953300D01*
X3455777Y-16953300D02*
X3465301Y-16991395D01*
X3465301Y-16991395D02*
X3465301Y-17039014D01*
X3465301Y-17039014D02*
X3455777Y-17077109D01*
X3455777Y-17077109D02*
X3446253Y-17096157D01*
X3446253Y-17096157D02*
X3436729Y-17105681D01*
X3436729Y-17105681D02*
X3417682Y-17115204D01*
X3417682Y-17115204D02*
X3398634Y-17115204D01*
X3398634Y-17115204D02*
X3379586Y-17105681D01*
X3379586Y-17105681D02*
X3370062Y-17096157D01*
X3370062Y-17096157D02*
X3360539Y-17077109D01*
X3360539Y-17077109D02*
X3351015Y-17039014D01*
X3351015Y-17039014D02*
X3351015Y-16991395D01*
X3351015Y-16991395D02*
X3360539Y-16953300D01*
X3360539Y-16953300D02*
X3370062Y-16934252D01*
X3370062Y-16934252D02*
X3379586Y-16924728D01*
X3379586Y-16924728D02*
X3398634Y-16915204D01*
X3551015Y-17096157D02*
X3560539Y-17105681D01*
X3560539Y-17105681D02*
X3551015Y-17115204D01*
X3551015Y-17115204D02*
X3541491Y-17105681D01*
X3541491Y-17105681D02*
X3551015Y-17096157D01*
X3551015Y-17096157D02*
X3551015Y-17115204D01*
X3684348Y-16915204D02*
X3703396Y-16915204D01*
X3703396Y-16915204D02*
X3722443Y-16924728D01*
X3722443Y-16924728D02*
X3731967Y-16934252D01*
X3731967Y-16934252D02*
X3741491Y-16953300D01*
X3741491Y-16953300D02*
X3751015Y-16991395D01*
X3751015Y-16991395D02*
X3751015Y-17039014D01*
X3751015Y-17039014D02*
X3741491Y-17077109D01*
X3741491Y-17077109D02*
X3731967Y-17096157D01*
X3731967Y-17096157D02*
X3722443Y-17105681D01*
X3722443Y-17105681D02*
X3703396Y-17115204D01*
X3703396Y-17115204D02*
X3684348Y-17115204D01*
X3684348Y-17115204D02*
X3665301Y-17105681D01*
X3665301Y-17105681D02*
X3655777Y-17096157D01*
X3655777Y-17096157D02*
X3646253Y-17077109D01*
X3646253Y-17077109D02*
X3636729Y-17039014D01*
X3636729Y-17039014D02*
X3636729Y-16991395D01*
X3636729Y-16991395D02*
X3646253Y-16953300D01*
X3646253Y-16953300D02*
X3655777Y-16934252D01*
X3655777Y-16934252D02*
X3665301Y-16924728D01*
X3665301Y-16924728D02*
X3684348Y-16915204D01*
X3817682Y-16915204D02*
X3941491Y-16915204D01*
X3941491Y-16915204D02*
X3874824Y-16991395D01*
X3874824Y-16991395D02*
X3903396Y-16991395D01*
X3903396Y-16991395D02*
X3922443Y-17000919D01*
X3922443Y-17000919D02*
X3931967Y-17010442D01*
X3931967Y-17010442D02*
X3941491Y-17029490D01*
X3941491Y-17029490D02*
X3941491Y-17077109D01*
X3941491Y-17077109D02*
X3931967Y-17096157D01*
X3931967Y-17096157D02*
X3922443Y-17105681D01*
X3922443Y-17105681D02*
X3903396Y-17115204D01*
X3903396Y-17115204D02*
X3846253Y-17115204D01*
X3846253Y-17115204D02*
X3827205Y-17105681D01*
X3827205Y-17105681D02*
X3817682Y-17096157D01*
X4131967Y-17115204D02*
X4017682Y-17115204D01*
X4074824Y-17115204D02*
X4074824Y-16915204D01*
X4074824Y-16915204D02*
X4055777Y-16943776D01*
X4055777Y-16943776D02*
X4036729Y-16962823D01*
X4036729Y-16962823D02*
X4017682Y-16972347D01*
X4312920Y-16915204D02*
X4217682Y-16915204D01*
X4217682Y-16915204D02*
X4208158Y-17010442D01*
X4208158Y-17010442D02*
X4217682Y-17000919D01*
X4217682Y-17000919D02*
X4236729Y-16991395D01*
X4236729Y-16991395D02*
X4284348Y-16991395D01*
X4284348Y-16991395D02*
X4303396Y-17000919D01*
X4303396Y-17000919D02*
X4312920Y-17010442D01*
X4312920Y-17010442D02*
X4322444Y-17029490D01*
X4322444Y-17029490D02*
X4322444Y-17077109D01*
X4322444Y-17077109D02*
X4312920Y-17096157D01*
X4312920Y-17096157D02*
X4303396Y-17105681D01*
X4303396Y-17105681D02*
X4284348Y-17115204D01*
X4284348Y-17115204D02*
X4236729Y-17115204D01*
X4236729Y-17115204D02*
X4217682Y-17105681D01*
X4217682Y-17105681D02*
X4208158Y-17096157D01*
X4398634Y-16915204D02*
X4398634Y-16953300D01*
X4474825Y-16915204D02*
X4474825Y-16953300D01*
X4770063Y-17191395D02*
X4760539Y-17181871D01*
X4760539Y-17181871D02*
X4741491Y-17153300D01*
X4741491Y-17153300D02*
X4731967Y-17134252D01*
X4731967Y-17134252D02*
X4722444Y-17105681D01*
X4722444Y-17105681D02*
X4712920Y-17058061D01*
X4712920Y-17058061D02*
X4712920Y-17019966D01*
X4712920Y-17019966D02*
X4722444Y-16972347D01*
X4722444Y-16972347D02*
X4731967Y-16943776D01*
X4731967Y-16943776D02*
X4741491Y-16924728D01*
X4741491Y-16924728D02*
X4760539Y-16896157D01*
X4760539Y-16896157D02*
X4770063Y-16886633D01*
X4884348Y-16915204D02*
X4903396Y-16915204D01*
X4903396Y-16915204D02*
X4922444Y-16924728D01*
X4922444Y-16924728D02*
X4931967Y-16934252D01*
X4931967Y-16934252D02*
X4941491Y-16953300D01*
X4941491Y-16953300D02*
X4951015Y-16991395D01*
X4951015Y-16991395D02*
X4951015Y-17039014D01*
X4951015Y-17039014D02*
X4941491Y-17077109D01*
X4941491Y-17077109D02*
X4931967Y-17096157D01*
X4931967Y-17096157D02*
X4922444Y-17105681D01*
X4922444Y-17105681D02*
X4903396Y-17115204D01*
X4903396Y-17115204D02*
X4884348Y-17115204D01*
X4884348Y-17115204D02*
X4865301Y-17105681D01*
X4865301Y-17105681D02*
X4855777Y-17096157D01*
X4855777Y-17096157D02*
X4846253Y-17077109D01*
X4846253Y-17077109D02*
X4836729Y-17039014D01*
X4836729Y-17039014D02*
X4836729Y-16991395D01*
X4836729Y-16991395D02*
X4846253Y-16953300D01*
X4846253Y-16953300D02*
X4855777Y-16934252D01*
X4855777Y-16934252D02*
X4865301Y-16924728D01*
X4865301Y-16924728D02*
X4884348Y-16915204D01*
X5189110Y-17115204D02*
X5189110Y-16915204D01*
X5274825Y-17115204D02*
X5274825Y-17010442D01*
X5274825Y-17010442D02*
X5265301Y-16991395D01*
X5265301Y-16991395D02*
X5246253Y-16981871D01*
X5246253Y-16981871D02*
X5217682Y-16981871D01*
X5217682Y-16981871D02*
X5198634Y-16991395D01*
X5198634Y-16991395D02*
X5189110Y-17000919D01*
X5398634Y-17115204D02*
X5379587Y-17105681D01*
X5379587Y-17105681D02*
X5370063Y-17096157D01*
X5370063Y-17096157D02*
X5360539Y-17077109D01*
X5360539Y-17077109D02*
X5360539Y-17019966D01*
X5360539Y-17019966D02*
X5370063Y-17000919D01*
X5370063Y-17000919D02*
X5379587Y-16991395D01*
X5379587Y-16991395D02*
X5398634Y-16981871D01*
X5398634Y-16981871D02*
X5427206Y-16981871D01*
X5427206Y-16981871D02*
X5446253Y-16991395D01*
X5446253Y-16991395D02*
X5455777Y-17000919D01*
X5455777Y-17000919D02*
X5465301Y-17019966D01*
X5465301Y-17019966D02*
X5465301Y-17077109D01*
X5465301Y-17077109D02*
X5455777Y-17096157D01*
X5455777Y-17096157D02*
X5446253Y-17105681D01*
X5446253Y-17105681D02*
X5427206Y-17115204D01*
X5427206Y-17115204D02*
X5398634Y-17115204D01*
X5579587Y-17115204D02*
X5560539Y-17105681D01*
X5560539Y-17105681D02*
X5551015Y-17086633D01*
X5551015Y-17086633D02*
X5551015Y-16915204D01*
X5731967Y-17105681D02*
X5712920Y-17115204D01*
X5712920Y-17115204D02*
X5674825Y-17115204D01*
X5674825Y-17115204D02*
X5655777Y-17105681D01*
X5655777Y-17105681D02*
X5646253Y-17086633D01*
X5646253Y-17086633D02*
X5646253Y-17010442D01*
X5646253Y-17010442D02*
X5655777Y-16991395D01*
X5655777Y-16991395D02*
X5674825Y-16981871D01*
X5674825Y-16981871D02*
X5712920Y-16981871D01*
X5712920Y-16981871D02*
X5731967Y-16991395D01*
X5731967Y-16991395D02*
X5741491Y-17010442D01*
X5741491Y-17010442D02*
X5741491Y-17029490D01*
X5741491Y-17029490D02*
X5646253Y-17048538D01*
X5817682Y-17105681D02*
X5836729Y-17115204D01*
X5836729Y-17115204D02*
X5874825Y-17115204D01*
X5874825Y-17115204D02*
X5893872Y-17105681D01*
X5893872Y-17105681D02*
X5903396Y-17086633D01*
X5903396Y-17086633D02*
X5903396Y-17077109D01*
X5903396Y-17077109D02*
X5893872Y-17058061D01*
X5893872Y-17058061D02*
X5874825Y-17048538D01*
X5874825Y-17048538D02*
X5846253Y-17048538D01*
X5846253Y-17048538D02*
X5827206Y-17039014D01*
X5827206Y-17039014D02*
X5817682Y-17019966D01*
X5817682Y-17019966D02*
X5817682Y-17010442D01*
X5817682Y-17010442D02*
X5827206Y-16991395D01*
X5827206Y-16991395D02*
X5846253Y-16981871D01*
X5846253Y-16981871D02*
X5874825Y-16981871D01*
X5874825Y-16981871D02*
X5893872Y-16991395D01*
X6141491Y-17039014D02*
X6293872Y-17039014D01*
X6217682Y-17115204D02*
X6217682Y-16962823D01*
X6531968Y-16934252D02*
X6541491Y-16924728D01*
X6541491Y-16924728D02*
X6560539Y-16915204D01*
X6560539Y-16915204D02*
X6608158Y-16915204D01*
X6608158Y-16915204D02*
X6627206Y-16924728D01*
X6627206Y-16924728D02*
X6636729Y-16934252D01*
X6636729Y-16934252D02*
X6646253Y-16953300D01*
X6646253Y-16953300D02*
X6646253Y-16972347D01*
X6646253Y-16972347D02*
X6636729Y-17000919D01*
X6636729Y-17000919D02*
X6522444Y-17115204D01*
X6522444Y-17115204D02*
X6646253Y-17115204D01*
X6874825Y-17105681D02*
X6893872Y-17115204D01*
X6893872Y-17115204D02*
X6931968Y-17115204D01*
X6931968Y-17115204D02*
X6951015Y-17105681D01*
X6951015Y-17105681D02*
X6960539Y-17086633D01*
X6960539Y-17086633D02*
X6960539Y-17077109D01*
X6960539Y-17077109D02*
X6951015Y-17058061D01*
X6951015Y-17058061D02*
X6931968Y-17048538D01*
X6931968Y-17048538D02*
X6903396Y-17048538D01*
X6903396Y-17048538D02*
X6884349Y-17039014D01*
X6884349Y-17039014D02*
X6874825Y-17019966D01*
X6874825Y-17019966D02*
X6874825Y-17010442D01*
X6874825Y-17010442D02*
X6884349Y-16991395D01*
X6884349Y-16991395D02*
X6903396Y-16981871D01*
X6903396Y-16981871D02*
X6931968Y-16981871D01*
X6931968Y-16981871D02*
X6951015Y-16991395D01*
X7074825Y-17115204D02*
X7055777Y-17105681D01*
X7055777Y-17105681D02*
X7046253Y-17086633D01*
X7046253Y-17086633D02*
X7046253Y-16915204D01*
X7179587Y-17115204D02*
X7160539Y-17105681D01*
X7160539Y-17105681D02*
X7151015Y-17096157D01*
X7151015Y-17096157D02*
X7141491Y-17077109D01*
X7141491Y-17077109D02*
X7141491Y-17019966D01*
X7141491Y-17019966D02*
X7151015Y-17000919D01*
X7151015Y-17000919D02*
X7160539Y-16991395D01*
X7160539Y-16991395D02*
X7179587Y-16981871D01*
X7179587Y-16981871D02*
X7208158Y-16981871D01*
X7208158Y-16981871D02*
X7227206Y-16991395D01*
X7227206Y-16991395D02*
X7236730Y-17000919D01*
X7236730Y-17000919D02*
X7246253Y-17019966D01*
X7246253Y-17019966D02*
X7246253Y-17077109D01*
X7246253Y-17077109D02*
X7236730Y-17096157D01*
X7236730Y-17096157D02*
X7227206Y-17105681D01*
X7227206Y-17105681D02*
X7208158Y-17115204D01*
X7208158Y-17115204D02*
X7179587Y-17115204D01*
X7303396Y-16981871D02*
X7379587Y-16981871D01*
X7331968Y-16915204D02*
X7331968Y-17086633D01*
X7331968Y-17086633D02*
X7341491Y-17105681D01*
X7341491Y-17105681D02*
X7360539Y-17115204D01*
X7360539Y-17115204D02*
X7379587Y-17115204D01*
X7436730Y-17105681D02*
X7455777Y-17115204D01*
X7455777Y-17115204D02*
X7493872Y-17115204D01*
X7493872Y-17115204D02*
X7512920Y-17105681D01*
X7512920Y-17105681D02*
X7522444Y-17086633D01*
X7522444Y-17086633D02*
X7522444Y-17077109D01*
X7522444Y-17077109D02*
X7512920Y-17058061D01*
X7512920Y-17058061D02*
X7493872Y-17048538D01*
X7493872Y-17048538D02*
X7465301Y-17048538D01*
X7465301Y-17048538D02*
X7446253Y-17039014D01*
X7446253Y-17039014D02*
X7436730Y-17019966D01*
X7436730Y-17019966D02*
X7436730Y-17010442D01*
X7436730Y-17010442D02*
X7446253Y-16991395D01*
X7446253Y-16991395D02*
X7465301Y-16981871D01*
X7465301Y-16981871D02*
X7493872Y-16981871D01*
X7493872Y-16981871D02*
X7512920Y-16991395D01*
X7589111Y-17191395D02*
X7598634Y-17181871D01*
X7598634Y-17181871D02*
X7617682Y-17153300D01*
X7617682Y-17153300D02*
X7627206Y-17134252D01*
X7627206Y-17134252D02*
X7636730Y-17105681D01*
X7636730Y-17105681D02*
X7646253Y-17058061D01*
X7646253Y-17058061D02*
X7646253Y-17019966D01*
X7646253Y-17019966D02*
X7636730Y-16972347D01*
X7636730Y-16972347D02*
X7627206Y-16943776D01*
X7627206Y-16943776D02*
X7617682Y-16924728D01*
X7617682Y-16924728D02*
X7598634Y-16896157D01*
X7598634Y-16896157D02*
X7589111Y-16886633D01*
D10*
X1180356Y-17323076D02*
X1180356Y-17252365D01*
X1109644Y-17252365D01*
X1109644Y-17323076D01*
X1180356Y-17323076D01*
D12*
X1560538Y-17379204D02*
X1446253Y-17379204D01*
X1503396Y-17379204D02*
X1503396Y-17179204D01*
X1503396Y-17179204D02*
X1484348Y-17207776D01*
X1484348Y-17207776D02*
X1465300Y-17226823D01*
X1465300Y-17226823D02*
X1446253Y-17236347D01*
X1646253Y-17360157D02*
X1655777Y-17369681D01*
X1655777Y-17369681D02*
X1646253Y-17379204D01*
X1646253Y-17379204D02*
X1636729Y-17369681D01*
X1636729Y-17369681D02*
X1646253Y-17360157D01*
X1646253Y-17360157D02*
X1646253Y-17379204D01*
X1779586Y-17179204D02*
X1798634Y-17179204D01*
X1798634Y-17179204D02*
X1817681Y-17188728D01*
X1817681Y-17188728D02*
X1827205Y-17198252D01*
X1827205Y-17198252D02*
X1836729Y-17217300D01*
X1836729Y-17217300D02*
X1846253Y-17255395D01*
X1846253Y-17255395D02*
X1846253Y-17303014D01*
X1846253Y-17303014D02*
X1836729Y-17341109D01*
X1836729Y-17341109D02*
X1827205Y-17360157D01*
X1827205Y-17360157D02*
X1817681Y-17369681D01*
X1817681Y-17369681D02*
X1798634Y-17379204D01*
X1798634Y-17379204D02*
X1779586Y-17379204D01*
X1779586Y-17379204D02*
X1760538Y-17369681D01*
X1760538Y-17369681D02*
X1751015Y-17360157D01*
X1751015Y-17360157D02*
X1741491Y-17341109D01*
X1741491Y-17341109D02*
X1731967Y-17303014D01*
X1731967Y-17303014D02*
X1731967Y-17255395D01*
X1731967Y-17255395D02*
X1741491Y-17217300D01*
X1741491Y-17217300D02*
X1751015Y-17198252D01*
X1751015Y-17198252D02*
X1760538Y-17188728D01*
X1760538Y-17188728D02*
X1779586Y-17179204D01*
X1970062Y-17179204D02*
X1989110Y-17179204D01*
X1989110Y-17179204D02*
X2008158Y-17188728D01*
X2008158Y-17188728D02*
X2017681Y-17198252D01*
X2017681Y-17198252D02*
X2027205Y-17217300D01*
X2027205Y-17217300D02*
X2036729Y-17255395D01*
X2036729Y-17255395D02*
X2036729Y-17303014D01*
X2036729Y-17303014D02*
X2027205Y-17341109D01*
X2027205Y-17341109D02*
X2017681Y-17360157D01*
X2017681Y-17360157D02*
X2008158Y-17369681D01*
X2008158Y-17369681D02*
X1989110Y-17379204D01*
X1989110Y-17379204D02*
X1970062Y-17379204D01*
X1970062Y-17379204D02*
X1951015Y-17369681D01*
X1951015Y-17369681D02*
X1941491Y-17360157D01*
X1941491Y-17360157D02*
X1931967Y-17341109D01*
X1931967Y-17341109D02*
X1922443Y-17303014D01*
X1922443Y-17303014D02*
X1922443Y-17255395D01*
X1922443Y-17255395D02*
X1931967Y-17217300D01*
X1931967Y-17217300D02*
X1941491Y-17198252D01*
X1941491Y-17198252D02*
X1951015Y-17188728D01*
X1951015Y-17188728D02*
X1970062Y-17179204D01*
X2160539Y-17179204D02*
X2179586Y-17179204D01*
X2179586Y-17179204D02*
X2198634Y-17188728D01*
X2198634Y-17188728D02*
X2208158Y-17198252D01*
X2208158Y-17198252D02*
X2217681Y-17217300D01*
X2217681Y-17217300D02*
X2227205Y-17255395D01*
X2227205Y-17255395D02*
X2227205Y-17303014D01*
X2227205Y-17303014D02*
X2217681Y-17341109D01*
X2217681Y-17341109D02*
X2208158Y-17360157D01*
X2208158Y-17360157D02*
X2198634Y-17369681D01*
X2198634Y-17369681D02*
X2179586Y-17379204D01*
X2179586Y-17379204D02*
X2160539Y-17379204D01*
X2160539Y-17379204D02*
X2141491Y-17369681D01*
X2141491Y-17369681D02*
X2131967Y-17360157D01*
X2131967Y-17360157D02*
X2122443Y-17341109D01*
X2122443Y-17341109D02*
X2112920Y-17303014D01*
X2112920Y-17303014D02*
X2112920Y-17255395D01*
X2112920Y-17255395D02*
X2122443Y-17217300D01*
X2122443Y-17217300D02*
X2131967Y-17198252D01*
X2131967Y-17198252D02*
X2141491Y-17188728D01*
X2141491Y-17188728D02*
X2160539Y-17179204D01*
X2312920Y-17379204D02*
X2312920Y-17245871D01*
X2312920Y-17264919D02*
X2322443Y-17255395D01*
X2322443Y-17255395D02*
X2341491Y-17245871D01*
X2341491Y-17245871D02*
X2370062Y-17245871D01*
X2370062Y-17245871D02*
X2389110Y-17255395D01*
X2389110Y-17255395D02*
X2398634Y-17274442D01*
X2398634Y-17274442D02*
X2398634Y-17379204D01*
X2398634Y-17274442D02*
X2408158Y-17255395D01*
X2408158Y-17255395D02*
X2427205Y-17245871D01*
X2427205Y-17245871D02*
X2455777Y-17245871D01*
X2455777Y-17245871D02*
X2474824Y-17255395D01*
X2474824Y-17255395D02*
X2484348Y-17274442D01*
X2484348Y-17274442D02*
X2484348Y-17379204D01*
X2579586Y-17379204D02*
X2579586Y-17245871D01*
X2579586Y-17264919D02*
X2589110Y-17255395D01*
X2589110Y-17255395D02*
X2608158Y-17245871D01*
X2608158Y-17245871D02*
X2636729Y-17245871D01*
X2636729Y-17245871D02*
X2655777Y-17255395D01*
X2655777Y-17255395D02*
X2665301Y-17274442D01*
X2665301Y-17274442D02*
X2665301Y-17379204D01*
X2665301Y-17274442D02*
X2674824Y-17255395D01*
X2674824Y-17255395D02*
X2693872Y-17245871D01*
X2693872Y-17245871D02*
X2722443Y-17245871D01*
X2722443Y-17245871D02*
X2741491Y-17255395D01*
X2741491Y-17255395D02*
X2751015Y-17274442D01*
X2751015Y-17274442D02*
X2751015Y-17379204D01*
X3141491Y-17169681D02*
X2970062Y-17426823D01*
X3398634Y-17179204D02*
X3417682Y-17179204D01*
X3417682Y-17179204D02*
X3436729Y-17188728D01*
X3436729Y-17188728D02*
X3446253Y-17198252D01*
X3446253Y-17198252D02*
X3455777Y-17217300D01*
X3455777Y-17217300D02*
X3465301Y-17255395D01*
X3465301Y-17255395D02*
X3465301Y-17303014D01*
X3465301Y-17303014D02*
X3455777Y-17341109D01*
X3455777Y-17341109D02*
X3446253Y-17360157D01*
X3446253Y-17360157D02*
X3436729Y-17369681D01*
X3436729Y-17369681D02*
X3417682Y-17379204D01*
X3417682Y-17379204D02*
X3398634Y-17379204D01*
X3398634Y-17379204D02*
X3379586Y-17369681D01*
X3379586Y-17369681D02*
X3370062Y-17360157D01*
X3370062Y-17360157D02*
X3360539Y-17341109D01*
X3360539Y-17341109D02*
X3351015Y-17303014D01*
X3351015Y-17303014D02*
X3351015Y-17255395D01*
X3351015Y-17255395D02*
X3360539Y-17217300D01*
X3360539Y-17217300D02*
X3370062Y-17198252D01*
X3370062Y-17198252D02*
X3379586Y-17188728D01*
X3379586Y-17188728D02*
X3398634Y-17179204D01*
X3551015Y-17360157D02*
X3560539Y-17369681D01*
X3560539Y-17369681D02*
X3551015Y-17379204D01*
X3551015Y-17379204D02*
X3541491Y-17369681D01*
X3541491Y-17369681D02*
X3551015Y-17360157D01*
X3551015Y-17360157D02*
X3551015Y-17379204D01*
X3684348Y-17179204D02*
X3703396Y-17179204D01*
X3703396Y-17179204D02*
X3722443Y-17188728D01*
X3722443Y-17188728D02*
X3731967Y-17198252D01*
X3731967Y-17198252D02*
X3741491Y-17217300D01*
X3741491Y-17217300D02*
X3751015Y-17255395D01*
X3751015Y-17255395D02*
X3751015Y-17303014D01*
X3751015Y-17303014D02*
X3741491Y-17341109D01*
X3741491Y-17341109D02*
X3731967Y-17360157D01*
X3731967Y-17360157D02*
X3722443Y-17369681D01*
X3722443Y-17369681D02*
X3703396Y-17379204D01*
X3703396Y-17379204D02*
X3684348Y-17379204D01*
X3684348Y-17379204D02*
X3665301Y-17369681D01*
X3665301Y-17369681D02*
X3655777Y-17360157D01*
X3655777Y-17360157D02*
X3646253Y-17341109D01*
X3646253Y-17341109D02*
X3636729Y-17303014D01*
X3636729Y-17303014D02*
X3636729Y-17255395D01*
X3636729Y-17255395D02*
X3646253Y-17217300D01*
X3646253Y-17217300D02*
X3655777Y-17198252D01*
X3655777Y-17198252D02*
X3665301Y-17188728D01*
X3665301Y-17188728D02*
X3684348Y-17179204D01*
X3817682Y-17179204D02*
X3941491Y-17179204D01*
X3941491Y-17179204D02*
X3874824Y-17255395D01*
X3874824Y-17255395D02*
X3903396Y-17255395D01*
X3903396Y-17255395D02*
X3922443Y-17264919D01*
X3922443Y-17264919D02*
X3931967Y-17274442D01*
X3931967Y-17274442D02*
X3941491Y-17293490D01*
X3941491Y-17293490D02*
X3941491Y-17341109D01*
X3941491Y-17341109D02*
X3931967Y-17360157D01*
X3931967Y-17360157D02*
X3922443Y-17369681D01*
X3922443Y-17369681D02*
X3903396Y-17379204D01*
X3903396Y-17379204D02*
X3846253Y-17379204D01*
X3846253Y-17379204D02*
X3827205Y-17369681D01*
X3827205Y-17369681D02*
X3817682Y-17360157D01*
X4036729Y-17379204D02*
X4074824Y-17379204D01*
X4074824Y-17379204D02*
X4093872Y-17369681D01*
X4093872Y-17369681D02*
X4103396Y-17360157D01*
X4103396Y-17360157D02*
X4122443Y-17331585D01*
X4122443Y-17331585D02*
X4131967Y-17293490D01*
X4131967Y-17293490D02*
X4131967Y-17217300D01*
X4131967Y-17217300D02*
X4122443Y-17198252D01*
X4122443Y-17198252D02*
X4112920Y-17188728D01*
X4112920Y-17188728D02*
X4093872Y-17179204D01*
X4093872Y-17179204D02*
X4055777Y-17179204D01*
X4055777Y-17179204D02*
X4036729Y-17188728D01*
X4036729Y-17188728D02*
X4027205Y-17198252D01*
X4027205Y-17198252D02*
X4017682Y-17217300D01*
X4017682Y-17217300D02*
X4017682Y-17264919D01*
X4017682Y-17264919D02*
X4027205Y-17283966D01*
X4027205Y-17283966D02*
X4036729Y-17293490D01*
X4036729Y-17293490D02*
X4055777Y-17303014D01*
X4055777Y-17303014D02*
X4093872Y-17303014D01*
X4093872Y-17303014D02*
X4112920Y-17293490D01*
X4112920Y-17293490D02*
X4122443Y-17283966D01*
X4122443Y-17283966D02*
X4131967Y-17264919D01*
X4303396Y-17245871D02*
X4303396Y-17379204D01*
X4255777Y-17169681D02*
X4208158Y-17312538D01*
X4208158Y-17312538D02*
X4331967Y-17312538D01*
X4398634Y-17179204D02*
X4398634Y-17217300D01*
X4474825Y-17179204D02*
X4474825Y-17217300D01*
X4770063Y-17455395D02*
X4760539Y-17445871D01*
X4760539Y-17445871D02*
X4741491Y-17417300D01*
X4741491Y-17417300D02*
X4731967Y-17398252D01*
X4731967Y-17398252D02*
X4722444Y-17369681D01*
X4722444Y-17369681D02*
X4712920Y-17322061D01*
X4712920Y-17322061D02*
X4712920Y-17283966D01*
X4712920Y-17283966D02*
X4722444Y-17236347D01*
X4722444Y-17236347D02*
X4731967Y-17207776D01*
X4731967Y-17207776D02*
X4741491Y-17188728D01*
X4741491Y-17188728D02*
X4760539Y-17160157D01*
X4760539Y-17160157D02*
X4770063Y-17150633D01*
X4827206Y-17179204D02*
X4960539Y-17179204D01*
X4960539Y-17179204D02*
X4874825Y-17379204D01*
X5027206Y-17198252D02*
X5036729Y-17188728D01*
X5036729Y-17188728D02*
X5055777Y-17179204D01*
X5055777Y-17179204D02*
X5103396Y-17179204D01*
X5103396Y-17179204D02*
X5122444Y-17188728D01*
X5122444Y-17188728D02*
X5131967Y-17198252D01*
X5131967Y-17198252D02*
X5141491Y-17217300D01*
X5141491Y-17217300D02*
X5141491Y-17236347D01*
X5141491Y-17236347D02*
X5131967Y-17264919D01*
X5131967Y-17264919D02*
X5017682Y-17379204D01*
X5017682Y-17379204D02*
X5141491Y-17379204D01*
X5379587Y-17379204D02*
X5379587Y-17179204D01*
X5465301Y-17379204D02*
X5465301Y-17274442D01*
X5465301Y-17274442D02*
X5455777Y-17255395D01*
X5455777Y-17255395D02*
X5436729Y-17245871D01*
X5436729Y-17245871D02*
X5408158Y-17245871D01*
X5408158Y-17245871D02*
X5389110Y-17255395D01*
X5389110Y-17255395D02*
X5379587Y-17264919D01*
X5589110Y-17379204D02*
X5570063Y-17369681D01*
X5570063Y-17369681D02*
X5560539Y-17360157D01*
X5560539Y-17360157D02*
X5551015Y-17341109D01*
X5551015Y-17341109D02*
X5551015Y-17283966D01*
X5551015Y-17283966D02*
X5560539Y-17264919D01*
X5560539Y-17264919D02*
X5570063Y-17255395D01*
X5570063Y-17255395D02*
X5589110Y-17245871D01*
X5589110Y-17245871D02*
X5617682Y-17245871D01*
X5617682Y-17245871D02*
X5636729Y-17255395D01*
X5636729Y-17255395D02*
X5646253Y-17264919D01*
X5646253Y-17264919D02*
X5655777Y-17283966D01*
X5655777Y-17283966D02*
X5655777Y-17341109D01*
X5655777Y-17341109D02*
X5646253Y-17360157D01*
X5646253Y-17360157D02*
X5636729Y-17369681D01*
X5636729Y-17369681D02*
X5617682Y-17379204D01*
X5617682Y-17379204D02*
X5589110Y-17379204D01*
X5770063Y-17379204D02*
X5751015Y-17369681D01*
X5751015Y-17369681D02*
X5741491Y-17350633D01*
X5741491Y-17350633D02*
X5741491Y-17179204D01*
X5922444Y-17369681D02*
X5903396Y-17379204D01*
X5903396Y-17379204D02*
X5865301Y-17379204D01*
X5865301Y-17379204D02*
X5846253Y-17369681D01*
X5846253Y-17369681D02*
X5836729Y-17350633D01*
X5836729Y-17350633D02*
X5836729Y-17274442D01*
X5836729Y-17274442D02*
X5846253Y-17255395D01*
X5846253Y-17255395D02*
X5865301Y-17245871D01*
X5865301Y-17245871D02*
X5903396Y-17245871D01*
X5903396Y-17245871D02*
X5922444Y-17255395D01*
X5922444Y-17255395D02*
X5931967Y-17274442D01*
X5931967Y-17274442D02*
X5931967Y-17293490D01*
X5931967Y-17293490D02*
X5836729Y-17312538D01*
X6008158Y-17369681D02*
X6027206Y-17379204D01*
X6027206Y-17379204D02*
X6065301Y-17379204D01*
X6065301Y-17379204D02*
X6084348Y-17369681D01*
X6084348Y-17369681D02*
X6093872Y-17350633D01*
X6093872Y-17350633D02*
X6093872Y-17341109D01*
X6093872Y-17341109D02*
X6084348Y-17322061D01*
X6084348Y-17322061D02*
X6065301Y-17312538D01*
X6065301Y-17312538D02*
X6036729Y-17312538D01*
X6036729Y-17312538D02*
X6017682Y-17303014D01*
X6017682Y-17303014D02*
X6008158Y-17283966D01*
X6008158Y-17283966D02*
X6008158Y-17274442D01*
X6008158Y-17274442D02*
X6017682Y-17255395D01*
X6017682Y-17255395D02*
X6036729Y-17245871D01*
X6036729Y-17245871D02*
X6065301Y-17245871D01*
X6065301Y-17245871D02*
X6084348Y-17255395D01*
X6160539Y-17455395D02*
X6170063Y-17445871D01*
X6170063Y-17445871D02*
X6189110Y-17417300D01*
X6189110Y-17417300D02*
X6198634Y-17398252D01*
X6198634Y-17398252D02*
X6208158Y-17369681D01*
X6208158Y-17369681D02*
X6217682Y-17322061D01*
X6217682Y-17322061D02*
X6217682Y-17283966D01*
X6217682Y-17283966D02*
X6208158Y-17236347D01*
X6208158Y-17236347D02*
X6198634Y-17207776D01*
X6198634Y-17207776D02*
X6189110Y-17188728D01*
X6189110Y-17188728D02*
X6170063Y-17160157D01*
X6170063Y-17160157D02*
X6160539Y-17150633D01*
D11*
X1135000Y-17611721D02*
X1195000Y-17551721D01*
X1135000Y-17491721D01*
X1075000Y-17551721D01*
X1135000Y-17611721D01*
D12*
X1560538Y-17643204D02*
X1446253Y-17643204D01*
X1503396Y-17643204D02*
X1503396Y-17443204D01*
X1503396Y-17443204D02*
X1484348Y-17471776D01*
X1484348Y-17471776D02*
X1465300Y-17490823D01*
X1465300Y-17490823D02*
X1446253Y-17500347D01*
X1646253Y-17624157D02*
X1655777Y-17633681D01*
X1655777Y-17633681D02*
X1646253Y-17643204D01*
X1646253Y-17643204D02*
X1636729Y-17633681D01*
X1636729Y-17633681D02*
X1646253Y-17624157D01*
X1646253Y-17624157D02*
X1646253Y-17643204D01*
X1731967Y-17462252D02*
X1741491Y-17452728D01*
X1741491Y-17452728D02*
X1760538Y-17443204D01*
X1760538Y-17443204D02*
X1808158Y-17443204D01*
X1808158Y-17443204D02*
X1827205Y-17452728D01*
X1827205Y-17452728D02*
X1836729Y-17462252D01*
X1836729Y-17462252D02*
X1846253Y-17481300D01*
X1846253Y-17481300D02*
X1846253Y-17500347D01*
X1846253Y-17500347D02*
X1836729Y-17528919D01*
X1836729Y-17528919D02*
X1722443Y-17643204D01*
X1722443Y-17643204D02*
X1846253Y-17643204D01*
X1970062Y-17443204D02*
X1989110Y-17443204D01*
X1989110Y-17443204D02*
X2008158Y-17452728D01*
X2008158Y-17452728D02*
X2017681Y-17462252D01*
X2017681Y-17462252D02*
X2027205Y-17481300D01*
X2027205Y-17481300D02*
X2036729Y-17519395D01*
X2036729Y-17519395D02*
X2036729Y-17567014D01*
X2036729Y-17567014D02*
X2027205Y-17605109D01*
X2027205Y-17605109D02*
X2017681Y-17624157D01*
X2017681Y-17624157D02*
X2008158Y-17633681D01*
X2008158Y-17633681D02*
X1989110Y-17643204D01*
X1989110Y-17643204D02*
X1970062Y-17643204D01*
X1970062Y-17643204D02*
X1951015Y-17633681D01*
X1951015Y-17633681D02*
X1941491Y-17624157D01*
X1941491Y-17624157D02*
X1931967Y-17605109D01*
X1931967Y-17605109D02*
X1922443Y-17567014D01*
X1922443Y-17567014D02*
X1922443Y-17519395D01*
X1922443Y-17519395D02*
X1931967Y-17481300D01*
X1931967Y-17481300D02*
X1941491Y-17462252D01*
X1941491Y-17462252D02*
X1951015Y-17452728D01*
X1951015Y-17452728D02*
X1970062Y-17443204D01*
X2160539Y-17443204D02*
X2179586Y-17443204D01*
X2179586Y-17443204D02*
X2198634Y-17452728D01*
X2198634Y-17452728D02*
X2208158Y-17462252D01*
X2208158Y-17462252D02*
X2217681Y-17481300D01*
X2217681Y-17481300D02*
X2227205Y-17519395D01*
X2227205Y-17519395D02*
X2227205Y-17567014D01*
X2227205Y-17567014D02*
X2217681Y-17605109D01*
X2217681Y-17605109D02*
X2208158Y-17624157D01*
X2208158Y-17624157D02*
X2198634Y-17633681D01*
X2198634Y-17633681D02*
X2179586Y-17643204D01*
X2179586Y-17643204D02*
X2160539Y-17643204D01*
X2160539Y-17643204D02*
X2141491Y-17633681D01*
X2141491Y-17633681D02*
X2131967Y-17624157D01*
X2131967Y-17624157D02*
X2122443Y-17605109D01*
X2122443Y-17605109D02*
X2112920Y-17567014D01*
X2112920Y-17567014D02*
X2112920Y-17519395D01*
X2112920Y-17519395D02*
X2122443Y-17481300D01*
X2122443Y-17481300D02*
X2131967Y-17462252D01*
X2131967Y-17462252D02*
X2141491Y-17452728D01*
X2141491Y-17452728D02*
X2160539Y-17443204D01*
X2312920Y-17643204D02*
X2312920Y-17509871D01*
X2312920Y-17528919D02*
X2322443Y-17519395D01*
X2322443Y-17519395D02*
X2341491Y-17509871D01*
X2341491Y-17509871D02*
X2370062Y-17509871D01*
X2370062Y-17509871D02*
X2389110Y-17519395D01*
X2389110Y-17519395D02*
X2398634Y-17538442D01*
X2398634Y-17538442D02*
X2398634Y-17643204D01*
X2398634Y-17538442D02*
X2408158Y-17519395D01*
X2408158Y-17519395D02*
X2427205Y-17509871D01*
X2427205Y-17509871D02*
X2455777Y-17509871D01*
X2455777Y-17509871D02*
X2474824Y-17519395D01*
X2474824Y-17519395D02*
X2484348Y-17538442D01*
X2484348Y-17538442D02*
X2484348Y-17643204D01*
X2579586Y-17643204D02*
X2579586Y-17509871D01*
X2579586Y-17528919D02*
X2589110Y-17519395D01*
X2589110Y-17519395D02*
X2608158Y-17509871D01*
X2608158Y-17509871D02*
X2636729Y-17509871D01*
X2636729Y-17509871D02*
X2655777Y-17519395D01*
X2655777Y-17519395D02*
X2665301Y-17538442D01*
X2665301Y-17538442D02*
X2665301Y-17643204D01*
X2665301Y-17538442D02*
X2674824Y-17519395D01*
X2674824Y-17519395D02*
X2693872Y-17509871D01*
X2693872Y-17509871D02*
X2722443Y-17509871D01*
X2722443Y-17509871D02*
X2741491Y-17519395D01*
X2741491Y-17519395D02*
X2751015Y-17538442D01*
X2751015Y-17538442D02*
X2751015Y-17643204D01*
X3141491Y-17433681D02*
X2970062Y-17690823D01*
X3398634Y-17443204D02*
X3417682Y-17443204D01*
X3417682Y-17443204D02*
X3436729Y-17452728D01*
X3436729Y-17452728D02*
X3446253Y-17462252D01*
X3446253Y-17462252D02*
X3455777Y-17481300D01*
X3455777Y-17481300D02*
X3465301Y-17519395D01*
X3465301Y-17519395D02*
X3465301Y-17567014D01*
X3465301Y-17567014D02*
X3455777Y-17605109D01*
X3455777Y-17605109D02*
X3446253Y-17624157D01*
X3446253Y-17624157D02*
X3436729Y-17633681D01*
X3436729Y-17633681D02*
X3417682Y-17643204D01*
X3417682Y-17643204D02*
X3398634Y-17643204D01*
X3398634Y-17643204D02*
X3379586Y-17633681D01*
X3379586Y-17633681D02*
X3370062Y-17624157D01*
X3370062Y-17624157D02*
X3360539Y-17605109D01*
X3360539Y-17605109D02*
X3351015Y-17567014D01*
X3351015Y-17567014D02*
X3351015Y-17519395D01*
X3351015Y-17519395D02*
X3360539Y-17481300D01*
X3360539Y-17481300D02*
X3370062Y-17462252D01*
X3370062Y-17462252D02*
X3379586Y-17452728D01*
X3379586Y-17452728D02*
X3398634Y-17443204D01*
X3551015Y-17624157D02*
X3560539Y-17633681D01*
X3560539Y-17633681D02*
X3551015Y-17643204D01*
X3551015Y-17643204D02*
X3541491Y-17633681D01*
X3541491Y-17633681D02*
X3551015Y-17624157D01*
X3551015Y-17624157D02*
X3551015Y-17643204D01*
X3684348Y-17443204D02*
X3703396Y-17443204D01*
X3703396Y-17443204D02*
X3722443Y-17452728D01*
X3722443Y-17452728D02*
X3731967Y-17462252D01*
X3731967Y-17462252D02*
X3741491Y-17481300D01*
X3741491Y-17481300D02*
X3751015Y-17519395D01*
X3751015Y-17519395D02*
X3751015Y-17567014D01*
X3751015Y-17567014D02*
X3741491Y-17605109D01*
X3741491Y-17605109D02*
X3731967Y-17624157D01*
X3731967Y-17624157D02*
X3722443Y-17633681D01*
X3722443Y-17633681D02*
X3703396Y-17643204D01*
X3703396Y-17643204D02*
X3684348Y-17643204D01*
X3684348Y-17643204D02*
X3665301Y-17633681D01*
X3665301Y-17633681D02*
X3655777Y-17624157D01*
X3655777Y-17624157D02*
X3646253Y-17605109D01*
X3646253Y-17605109D02*
X3636729Y-17567014D01*
X3636729Y-17567014D02*
X3636729Y-17519395D01*
X3636729Y-17519395D02*
X3646253Y-17481300D01*
X3646253Y-17481300D02*
X3655777Y-17462252D01*
X3655777Y-17462252D02*
X3665301Y-17452728D01*
X3665301Y-17452728D02*
X3684348Y-17443204D01*
X3922443Y-17509871D02*
X3922443Y-17643204D01*
X3874824Y-17433681D02*
X3827205Y-17576538D01*
X3827205Y-17576538D02*
X3951015Y-17576538D01*
X4008158Y-17443204D02*
X4141491Y-17443204D01*
X4141491Y-17443204D02*
X4055777Y-17643204D01*
X4208158Y-17462252D02*
X4217682Y-17452728D01*
X4217682Y-17452728D02*
X4236729Y-17443204D01*
X4236729Y-17443204D02*
X4284348Y-17443204D01*
X4284348Y-17443204D02*
X4303396Y-17452728D01*
X4303396Y-17452728D02*
X4312920Y-17462252D01*
X4312920Y-17462252D02*
X4322444Y-17481300D01*
X4322444Y-17481300D02*
X4322444Y-17500347D01*
X4322444Y-17500347D02*
X4312920Y-17528919D01*
X4312920Y-17528919D02*
X4198634Y-17643204D01*
X4198634Y-17643204D02*
X4322444Y-17643204D01*
X4398634Y-17443204D02*
X4398634Y-17481300D01*
X4474825Y-17443204D02*
X4474825Y-17481300D01*
X4770063Y-17719395D02*
X4760539Y-17709871D01*
X4760539Y-17709871D02*
X4741491Y-17681300D01*
X4741491Y-17681300D02*
X4731967Y-17662252D01*
X4731967Y-17662252D02*
X4722444Y-17633681D01*
X4722444Y-17633681D02*
X4712920Y-17586061D01*
X4712920Y-17586061D02*
X4712920Y-17547966D01*
X4712920Y-17547966D02*
X4722444Y-17500347D01*
X4722444Y-17500347D02*
X4731967Y-17471776D01*
X4731967Y-17471776D02*
X4741491Y-17452728D01*
X4741491Y-17452728D02*
X4760539Y-17424157D01*
X4760539Y-17424157D02*
X4770063Y-17414633D01*
X4827206Y-17443204D02*
X4951015Y-17443204D01*
X4951015Y-17443204D02*
X4884348Y-17519395D01*
X4884348Y-17519395D02*
X4912920Y-17519395D01*
X4912920Y-17519395D02*
X4931967Y-17528919D01*
X4931967Y-17528919D02*
X4941491Y-17538442D01*
X4941491Y-17538442D02*
X4951015Y-17557490D01*
X4951015Y-17557490D02*
X4951015Y-17605109D01*
X4951015Y-17605109D02*
X4941491Y-17624157D01*
X4941491Y-17624157D02*
X4931967Y-17633681D01*
X4931967Y-17633681D02*
X4912920Y-17643204D01*
X4912920Y-17643204D02*
X4855777Y-17643204D01*
X4855777Y-17643204D02*
X4836729Y-17633681D01*
X4836729Y-17633681D02*
X4827206Y-17624157D01*
X5074825Y-17443204D02*
X5093872Y-17443204D01*
X5093872Y-17443204D02*
X5112920Y-17452728D01*
X5112920Y-17452728D02*
X5122444Y-17462252D01*
X5122444Y-17462252D02*
X5131967Y-17481300D01*
X5131967Y-17481300D02*
X5141491Y-17519395D01*
X5141491Y-17519395D02*
X5141491Y-17567014D01*
X5141491Y-17567014D02*
X5131967Y-17605109D01*
X5131967Y-17605109D02*
X5122444Y-17624157D01*
X5122444Y-17624157D02*
X5112920Y-17633681D01*
X5112920Y-17633681D02*
X5093872Y-17643204D01*
X5093872Y-17643204D02*
X5074825Y-17643204D01*
X5074825Y-17643204D02*
X5055777Y-17633681D01*
X5055777Y-17633681D02*
X5046253Y-17624157D01*
X5046253Y-17624157D02*
X5036729Y-17605109D01*
X5036729Y-17605109D02*
X5027206Y-17567014D01*
X5027206Y-17567014D02*
X5027206Y-17519395D01*
X5027206Y-17519395D02*
X5036729Y-17481300D01*
X5036729Y-17481300D02*
X5046253Y-17462252D01*
X5046253Y-17462252D02*
X5055777Y-17452728D01*
X5055777Y-17452728D02*
X5074825Y-17443204D01*
X5379587Y-17643204D02*
X5379587Y-17443204D01*
X5465301Y-17643204D02*
X5465301Y-17538442D01*
X5465301Y-17538442D02*
X5455777Y-17519395D01*
X5455777Y-17519395D02*
X5436729Y-17509871D01*
X5436729Y-17509871D02*
X5408158Y-17509871D01*
X5408158Y-17509871D02*
X5389110Y-17519395D01*
X5389110Y-17519395D02*
X5379587Y-17528919D01*
X5589110Y-17643204D02*
X5570063Y-17633681D01*
X5570063Y-17633681D02*
X5560539Y-17624157D01*
X5560539Y-17624157D02*
X5551015Y-17605109D01*
X5551015Y-17605109D02*
X5551015Y-17547966D01*
X5551015Y-17547966D02*
X5560539Y-17528919D01*
X5560539Y-17528919D02*
X5570063Y-17519395D01*
X5570063Y-17519395D02*
X5589110Y-17509871D01*
X5589110Y-17509871D02*
X5617682Y-17509871D01*
X5617682Y-17509871D02*
X5636729Y-17519395D01*
X5636729Y-17519395D02*
X5646253Y-17528919D01*
X5646253Y-17528919D02*
X5655777Y-17547966D01*
X5655777Y-17547966D02*
X5655777Y-17605109D01*
X5655777Y-17605109D02*
X5646253Y-17624157D01*
X5646253Y-17624157D02*
X5636729Y-17633681D01*
X5636729Y-17633681D02*
X5617682Y-17643204D01*
X5617682Y-17643204D02*
X5589110Y-17643204D01*
X5770063Y-17643204D02*
X5751015Y-17633681D01*
X5751015Y-17633681D02*
X5741491Y-17614633D01*
X5741491Y-17614633D02*
X5741491Y-17443204D01*
X5922444Y-17633681D02*
X5903396Y-17643204D01*
X5903396Y-17643204D02*
X5865301Y-17643204D01*
X5865301Y-17643204D02*
X5846253Y-17633681D01*
X5846253Y-17633681D02*
X5836729Y-17614633D01*
X5836729Y-17614633D02*
X5836729Y-17538442D01*
X5836729Y-17538442D02*
X5846253Y-17519395D01*
X5846253Y-17519395D02*
X5865301Y-17509871D01*
X5865301Y-17509871D02*
X5903396Y-17509871D01*
X5903396Y-17509871D02*
X5922444Y-17519395D01*
X5922444Y-17519395D02*
X5931967Y-17538442D01*
X5931967Y-17538442D02*
X5931967Y-17557490D01*
X5931967Y-17557490D02*
X5836729Y-17576538D01*
X6008158Y-17633681D02*
X6027206Y-17643204D01*
X6027206Y-17643204D02*
X6065301Y-17643204D01*
X6065301Y-17643204D02*
X6084348Y-17633681D01*
X6084348Y-17633681D02*
X6093872Y-17614633D01*
X6093872Y-17614633D02*
X6093872Y-17605109D01*
X6093872Y-17605109D02*
X6084348Y-17586061D01*
X6084348Y-17586061D02*
X6065301Y-17576538D01*
X6065301Y-17576538D02*
X6036729Y-17576538D01*
X6036729Y-17576538D02*
X6017682Y-17567014D01*
X6017682Y-17567014D02*
X6008158Y-17547966D01*
X6008158Y-17547966D02*
X6008158Y-17538442D01*
X6008158Y-17538442D02*
X6017682Y-17519395D01*
X6017682Y-17519395D02*
X6036729Y-17509871D01*
X6036729Y-17509871D02*
X6065301Y-17509871D01*
X6065301Y-17509871D02*
X6084348Y-17519395D01*
X6160539Y-17719395D02*
X6170063Y-17709871D01*
X6170063Y-17709871D02*
X6189110Y-17681300D01*
X6189110Y-17681300D02*
X6198634Y-17662252D01*
X6198634Y-17662252D02*
X6208158Y-17633681D01*
X6208158Y-17633681D02*
X6217682Y-17586061D01*
X6217682Y-17586061D02*
X6217682Y-17547966D01*
X6217682Y-17547966D02*
X6208158Y-17500347D01*
X6208158Y-17500347D02*
X6198634Y-17471776D01*
X6198634Y-17471776D02*
X6189110Y-17452728D01*
X6189110Y-17452728D02*
X6170063Y-17424157D01*
X6170063Y-17424157D02*
X6160539Y-17414633D01*
D13*
X1065000Y-17750721D02*
X1195000Y-17880721D01*
X1195000Y-17750721D02*
X1065000Y-17880721D01*
X1195000Y-17815721D02*
G75*
G02*
X1065000Y-17815721I-65000J0D01*
G01*
X1065000Y-17815721D02*
G75*
G02*
X1195000Y-17815721I65000J0D01*
G01*
D12*
X1560538Y-17907204D02*
X1446253Y-17907204D01*
X1503396Y-17907204D02*
X1503396Y-17707204D01*
X1503396Y-17707204D02*
X1484348Y-17735776D01*
X1484348Y-17735776D02*
X1465300Y-17754823D01*
X1465300Y-17754823D02*
X1446253Y-17764347D01*
X1646253Y-17888157D02*
X1655777Y-17897681D01*
X1655777Y-17897681D02*
X1646253Y-17907204D01*
X1646253Y-17907204D02*
X1636729Y-17897681D01*
X1636729Y-17897681D02*
X1646253Y-17888157D01*
X1646253Y-17888157D02*
X1646253Y-17907204D01*
X1722443Y-17707204D02*
X1846253Y-17707204D01*
X1846253Y-17707204D02*
X1779586Y-17783395D01*
X1779586Y-17783395D02*
X1808158Y-17783395D01*
X1808158Y-17783395D02*
X1827205Y-17792919D01*
X1827205Y-17792919D02*
X1836729Y-17802442D01*
X1836729Y-17802442D02*
X1846253Y-17821490D01*
X1846253Y-17821490D02*
X1846253Y-17869109D01*
X1846253Y-17869109D02*
X1836729Y-17888157D01*
X1836729Y-17888157D02*
X1827205Y-17897681D01*
X1827205Y-17897681D02*
X1808158Y-17907204D01*
X1808158Y-17907204D02*
X1751015Y-17907204D01*
X1751015Y-17907204D02*
X1731967Y-17897681D01*
X1731967Y-17897681D02*
X1722443Y-17888157D01*
X1970062Y-17707204D02*
X1989110Y-17707204D01*
X1989110Y-17707204D02*
X2008158Y-17716728D01*
X2008158Y-17716728D02*
X2017681Y-17726252D01*
X2017681Y-17726252D02*
X2027205Y-17745300D01*
X2027205Y-17745300D02*
X2036729Y-17783395D01*
X2036729Y-17783395D02*
X2036729Y-17831014D01*
X2036729Y-17831014D02*
X2027205Y-17869109D01*
X2027205Y-17869109D02*
X2017681Y-17888157D01*
X2017681Y-17888157D02*
X2008158Y-17897681D01*
X2008158Y-17897681D02*
X1989110Y-17907204D01*
X1989110Y-17907204D02*
X1970062Y-17907204D01*
X1970062Y-17907204D02*
X1951015Y-17897681D01*
X1951015Y-17897681D02*
X1941491Y-17888157D01*
X1941491Y-17888157D02*
X1931967Y-17869109D01*
X1931967Y-17869109D02*
X1922443Y-17831014D01*
X1922443Y-17831014D02*
X1922443Y-17783395D01*
X1922443Y-17783395D02*
X1931967Y-17745300D01*
X1931967Y-17745300D02*
X1941491Y-17726252D01*
X1941491Y-17726252D02*
X1951015Y-17716728D01*
X1951015Y-17716728D02*
X1970062Y-17707204D01*
X2160539Y-17707204D02*
X2179586Y-17707204D01*
X2179586Y-17707204D02*
X2198634Y-17716728D01*
X2198634Y-17716728D02*
X2208158Y-17726252D01*
X2208158Y-17726252D02*
X2217681Y-17745300D01*
X2217681Y-17745300D02*
X2227205Y-17783395D01*
X2227205Y-17783395D02*
X2227205Y-17831014D01*
X2227205Y-17831014D02*
X2217681Y-17869109D01*
X2217681Y-17869109D02*
X2208158Y-17888157D01*
X2208158Y-17888157D02*
X2198634Y-17897681D01*
X2198634Y-17897681D02*
X2179586Y-17907204D01*
X2179586Y-17907204D02*
X2160539Y-17907204D01*
X2160539Y-17907204D02*
X2141491Y-17897681D01*
X2141491Y-17897681D02*
X2131967Y-17888157D01*
X2131967Y-17888157D02*
X2122443Y-17869109D01*
X2122443Y-17869109D02*
X2112920Y-17831014D01*
X2112920Y-17831014D02*
X2112920Y-17783395D01*
X2112920Y-17783395D02*
X2122443Y-17745300D01*
X2122443Y-17745300D02*
X2131967Y-17726252D01*
X2131967Y-17726252D02*
X2141491Y-17716728D01*
X2141491Y-17716728D02*
X2160539Y-17707204D01*
X2312920Y-17907204D02*
X2312920Y-17773871D01*
X2312920Y-17792919D02*
X2322443Y-17783395D01*
X2322443Y-17783395D02*
X2341491Y-17773871D01*
X2341491Y-17773871D02*
X2370062Y-17773871D01*
X2370062Y-17773871D02*
X2389110Y-17783395D01*
X2389110Y-17783395D02*
X2398634Y-17802442D01*
X2398634Y-17802442D02*
X2398634Y-17907204D01*
X2398634Y-17802442D02*
X2408158Y-17783395D01*
X2408158Y-17783395D02*
X2427205Y-17773871D01*
X2427205Y-17773871D02*
X2455777Y-17773871D01*
X2455777Y-17773871D02*
X2474824Y-17783395D01*
X2474824Y-17783395D02*
X2484348Y-17802442D01*
X2484348Y-17802442D02*
X2484348Y-17907204D01*
X2579586Y-17907204D02*
X2579586Y-17773871D01*
X2579586Y-17792919D02*
X2589110Y-17783395D01*
X2589110Y-17783395D02*
X2608158Y-17773871D01*
X2608158Y-17773871D02*
X2636729Y-17773871D01*
X2636729Y-17773871D02*
X2655777Y-17783395D01*
X2655777Y-17783395D02*
X2665301Y-17802442D01*
X2665301Y-17802442D02*
X2665301Y-17907204D01*
X2665301Y-17802442D02*
X2674824Y-17783395D01*
X2674824Y-17783395D02*
X2693872Y-17773871D01*
X2693872Y-17773871D02*
X2722443Y-17773871D01*
X2722443Y-17773871D02*
X2741491Y-17783395D01*
X2741491Y-17783395D02*
X2751015Y-17802442D01*
X2751015Y-17802442D02*
X2751015Y-17907204D01*
X3141491Y-17697681D02*
X2970062Y-17954823D01*
X3398634Y-17707204D02*
X3417682Y-17707204D01*
X3417682Y-17707204D02*
X3436729Y-17716728D01*
X3436729Y-17716728D02*
X3446253Y-17726252D01*
X3446253Y-17726252D02*
X3455777Y-17745300D01*
X3455777Y-17745300D02*
X3465301Y-17783395D01*
X3465301Y-17783395D02*
X3465301Y-17831014D01*
X3465301Y-17831014D02*
X3455777Y-17869109D01*
X3455777Y-17869109D02*
X3446253Y-17888157D01*
X3446253Y-17888157D02*
X3436729Y-17897681D01*
X3436729Y-17897681D02*
X3417682Y-17907204D01*
X3417682Y-17907204D02*
X3398634Y-17907204D01*
X3398634Y-17907204D02*
X3379586Y-17897681D01*
X3379586Y-17897681D02*
X3370062Y-17888157D01*
X3370062Y-17888157D02*
X3360539Y-17869109D01*
X3360539Y-17869109D02*
X3351015Y-17831014D01*
X3351015Y-17831014D02*
X3351015Y-17783395D01*
X3351015Y-17783395D02*
X3360539Y-17745300D01*
X3360539Y-17745300D02*
X3370062Y-17726252D01*
X3370062Y-17726252D02*
X3379586Y-17716728D01*
X3379586Y-17716728D02*
X3398634Y-17707204D01*
X3551015Y-17888157D02*
X3560539Y-17897681D01*
X3560539Y-17897681D02*
X3551015Y-17907204D01*
X3551015Y-17907204D02*
X3541491Y-17897681D01*
X3541491Y-17897681D02*
X3551015Y-17888157D01*
X3551015Y-17888157D02*
X3551015Y-17907204D01*
X3684348Y-17707204D02*
X3703396Y-17707204D01*
X3703396Y-17707204D02*
X3722443Y-17716728D01*
X3722443Y-17716728D02*
X3731967Y-17726252D01*
X3731967Y-17726252D02*
X3741491Y-17745300D01*
X3741491Y-17745300D02*
X3751015Y-17783395D01*
X3751015Y-17783395D02*
X3751015Y-17831014D01*
X3751015Y-17831014D02*
X3741491Y-17869109D01*
X3741491Y-17869109D02*
X3731967Y-17888157D01*
X3731967Y-17888157D02*
X3722443Y-17897681D01*
X3722443Y-17897681D02*
X3703396Y-17907204D01*
X3703396Y-17907204D02*
X3684348Y-17907204D01*
X3684348Y-17907204D02*
X3665301Y-17897681D01*
X3665301Y-17897681D02*
X3655777Y-17888157D01*
X3655777Y-17888157D02*
X3646253Y-17869109D01*
X3646253Y-17869109D02*
X3636729Y-17831014D01*
X3636729Y-17831014D02*
X3636729Y-17783395D01*
X3636729Y-17783395D02*
X3646253Y-17745300D01*
X3646253Y-17745300D02*
X3655777Y-17726252D01*
X3655777Y-17726252D02*
X3665301Y-17716728D01*
X3665301Y-17716728D02*
X3684348Y-17707204D01*
X3931967Y-17707204D02*
X3836729Y-17707204D01*
X3836729Y-17707204D02*
X3827205Y-17802442D01*
X3827205Y-17802442D02*
X3836729Y-17792919D01*
X3836729Y-17792919D02*
X3855777Y-17783395D01*
X3855777Y-17783395D02*
X3903396Y-17783395D01*
X3903396Y-17783395D02*
X3922443Y-17792919D01*
X3922443Y-17792919D02*
X3931967Y-17802442D01*
X3931967Y-17802442D02*
X3941491Y-17821490D01*
X3941491Y-17821490D02*
X3941491Y-17869109D01*
X3941491Y-17869109D02*
X3931967Y-17888157D01*
X3931967Y-17888157D02*
X3922443Y-17897681D01*
X3922443Y-17897681D02*
X3903396Y-17907204D01*
X3903396Y-17907204D02*
X3855777Y-17907204D01*
X3855777Y-17907204D02*
X3836729Y-17897681D01*
X3836729Y-17897681D02*
X3827205Y-17888157D01*
X4131967Y-17907204D02*
X4017682Y-17907204D01*
X4074824Y-17907204D02*
X4074824Y-17707204D01*
X4074824Y-17707204D02*
X4055777Y-17735776D01*
X4055777Y-17735776D02*
X4036729Y-17754823D01*
X4036729Y-17754823D02*
X4017682Y-17764347D01*
X4208158Y-17726252D02*
X4217682Y-17716728D01*
X4217682Y-17716728D02*
X4236729Y-17707204D01*
X4236729Y-17707204D02*
X4284348Y-17707204D01*
X4284348Y-17707204D02*
X4303396Y-17716728D01*
X4303396Y-17716728D02*
X4312920Y-17726252D01*
X4312920Y-17726252D02*
X4322444Y-17745300D01*
X4322444Y-17745300D02*
X4322444Y-17764347D01*
X4322444Y-17764347D02*
X4312920Y-17792919D01*
X4312920Y-17792919D02*
X4198634Y-17907204D01*
X4198634Y-17907204D02*
X4322444Y-17907204D01*
X4398634Y-17707204D02*
X4398634Y-17745300D01*
X4474825Y-17707204D02*
X4474825Y-17745300D01*
X4770063Y-17983395D02*
X4760539Y-17973871D01*
X4760539Y-17973871D02*
X4741491Y-17945300D01*
X4741491Y-17945300D02*
X4731967Y-17926252D01*
X4731967Y-17926252D02*
X4722444Y-17897681D01*
X4722444Y-17897681D02*
X4712920Y-17850061D01*
X4712920Y-17850061D02*
X4712920Y-17811966D01*
X4712920Y-17811966D02*
X4722444Y-17764347D01*
X4722444Y-17764347D02*
X4731967Y-17735776D01*
X4731967Y-17735776D02*
X4741491Y-17716728D01*
X4741491Y-17716728D02*
X4760539Y-17688157D01*
X4760539Y-17688157D02*
X4770063Y-17678633D01*
X4884348Y-17707204D02*
X4903396Y-17707204D01*
X4903396Y-17707204D02*
X4922444Y-17716728D01*
X4922444Y-17716728D02*
X4931967Y-17726252D01*
X4931967Y-17726252D02*
X4941491Y-17745300D01*
X4941491Y-17745300D02*
X4951015Y-17783395D01*
X4951015Y-17783395D02*
X4951015Y-17831014D01*
X4951015Y-17831014D02*
X4941491Y-17869109D01*
X4941491Y-17869109D02*
X4931967Y-17888157D01*
X4931967Y-17888157D02*
X4922444Y-17897681D01*
X4922444Y-17897681D02*
X4903396Y-17907204D01*
X4903396Y-17907204D02*
X4884348Y-17907204D01*
X4884348Y-17907204D02*
X4865301Y-17897681D01*
X4865301Y-17897681D02*
X4855777Y-17888157D01*
X4855777Y-17888157D02*
X4846253Y-17869109D01*
X4846253Y-17869109D02*
X4836729Y-17831014D01*
X4836729Y-17831014D02*
X4836729Y-17783395D01*
X4836729Y-17783395D02*
X4846253Y-17745300D01*
X4846253Y-17745300D02*
X4855777Y-17726252D01*
X4855777Y-17726252D02*
X4865301Y-17716728D01*
X4865301Y-17716728D02*
X4884348Y-17707204D01*
X5189110Y-17907204D02*
X5189110Y-17707204D01*
X5274825Y-17907204D02*
X5274825Y-17802442D01*
X5274825Y-17802442D02*
X5265301Y-17783395D01*
X5265301Y-17783395D02*
X5246253Y-17773871D01*
X5246253Y-17773871D02*
X5217682Y-17773871D01*
X5217682Y-17773871D02*
X5198634Y-17783395D01*
X5198634Y-17783395D02*
X5189110Y-17792919D01*
X5398634Y-17907204D02*
X5379587Y-17897681D01*
X5379587Y-17897681D02*
X5370063Y-17888157D01*
X5370063Y-17888157D02*
X5360539Y-17869109D01*
X5360539Y-17869109D02*
X5360539Y-17811966D01*
X5360539Y-17811966D02*
X5370063Y-17792919D01*
X5370063Y-17792919D02*
X5379587Y-17783395D01*
X5379587Y-17783395D02*
X5398634Y-17773871D01*
X5398634Y-17773871D02*
X5427206Y-17773871D01*
X5427206Y-17773871D02*
X5446253Y-17783395D01*
X5446253Y-17783395D02*
X5455777Y-17792919D01*
X5455777Y-17792919D02*
X5465301Y-17811966D01*
X5465301Y-17811966D02*
X5465301Y-17869109D01*
X5465301Y-17869109D02*
X5455777Y-17888157D01*
X5455777Y-17888157D02*
X5446253Y-17897681D01*
X5446253Y-17897681D02*
X5427206Y-17907204D01*
X5427206Y-17907204D02*
X5398634Y-17907204D01*
X5579587Y-17907204D02*
X5560539Y-17897681D01*
X5560539Y-17897681D02*
X5551015Y-17878633D01*
X5551015Y-17878633D02*
X5551015Y-17707204D01*
X5731967Y-17897681D02*
X5712920Y-17907204D01*
X5712920Y-17907204D02*
X5674825Y-17907204D01*
X5674825Y-17907204D02*
X5655777Y-17897681D01*
X5655777Y-17897681D02*
X5646253Y-17878633D01*
X5646253Y-17878633D02*
X5646253Y-17802442D01*
X5646253Y-17802442D02*
X5655777Y-17783395D01*
X5655777Y-17783395D02*
X5674825Y-17773871D01*
X5674825Y-17773871D02*
X5712920Y-17773871D01*
X5712920Y-17773871D02*
X5731967Y-17783395D01*
X5731967Y-17783395D02*
X5741491Y-17802442D01*
X5741491Y-17802442D02*
X5741491Y-17821490D01*
X5741491Y-17821490D02*
X5646253Y-17840538D01*
X5817682Y-17897681D02*
X5836729Y-17907204D01*
X5836729Y-17907204D02*
X5874825Y-17907204D01*
X5874825Y-17907204D02*
X5893872Y-17897681D01*
X5893872Y-17897681D02*
X5903396Y-17878633D01*
X5903396Y-17878633D02*
X5903396Y-17869109D01*
X5903396Y-17869109D02*
X5893872Y-17850061D01*
X5893872Y-17850061D02*
X5874825Y-17840538D01*
X5874825Y-17840538D02*
X5846253Y-17840538D01*
X5846253Y-17840538D02*
X5827206Y-17831014D01*
X5827206Y-17831014D02*
X5817682Y-17811966D01*
X5817682Y-17811966D02*
X5817682Y-17802442D01*
X5817682Y-17802442D02*
X5827206Y-17783395D01*
X5827206Y-17783395D02*
X5846253Y-17773871D01*
X5846253Y-17773871D02*
X5874825Y-17773871D01*
X5874825Y-17773871D02*
X5893872Y-17783395D01*
X6141491Y-17831014D02*
X6293872Y-17831014D01*
X6217682Y-17907204D02*
X6217682Y-17754823D01*
X6636729Y-17707204D02*
X6541491Y-17707204D01*
X6541491Y-17707204D02*
X6531968Y-17802442D01*
X6531968Y-17802442D02*
X6541491Y-17792919D01*
X6541491Y-17792919D02*
X6560539Y-17783395D01*
X6560539Y-17783395D02*
X6608158Y-17783395D01*
X6608158Y-17783395D02*
X6627206Y-17792919D01*
X6627206Y-17792919D02*
X6636729Y-17802442D01*
X6636729Y-17802442D02*
X6646253Y-17821490D01*
X6646253Y-17821490D02*
X6646253Y-17869109D01*
X6646253Y-17869109D02*
X6636729Y-17888157D01*
X6636729Y-17888157D02*
X6627206Y-17897681D01*
X6627206Y-17897681D02*
X6608158Y-17907204D01*
X6608158Y-17907204D02*
X6560539Y-17907204D01*
X6560539Y-17907204D02*
X6541491Y-17897681D01*
X6541491Y-17897681D02*
X6531968Y-17888157D01*
X6874825Y-17897681D02*
X6893872Y-17907204D01*
X6893872Y-17907204D02*
X6931968Y-17907204D01*
X6931968Y-17907204D02*
X6951015Y-17897681D01*
X6951015Y-17897681D02*
X6960539Y-17878633D01*
X6960539Y-17878633D02*
X6960539Y-17869109D01*
X6960539Y-17869109D02*
X6951015Y-17850061D01*
X6951015Y-17850061D02*
X6931968Y-17840538D01*
X6931968Y-17840538D02*
X6903396Y-17840538D01*
X6903396Y-17840538D02*
X6884349Y-17831014D01*
X6884349Y-17831014D02*
X6874825Y-17811966D01*
X6874825Y-17811966D02*
X6874825Y-17802442D01*
X6874825Y-17802442D02*
X6884349Y-17783395D01*
X6884349Y-17783395D02*
X6903396Y-17773871D01*
X6903396Y-17773871D02*
X6931968Y-17773871D01*
X6931968Y-17773871D02*
X6951015Y-17783395D01*
X7074825Y-17907204D02*
X7055777Y-17897681D01*
X7055777Y-17897681D02*
X7046253Y-17878633D01*
X7046253Y-17878633D02*
X7046253Y-17707204D01*
X7179587Y-17907204D02*
X7160539Y-17897681D01*
X7160539Y-17897681D02*
X7151015Y-17888157D01*
X7151015Y-17888157D02*
X7141491Y-17869109D01*
X7141491Y-17869109D02*
X7141491Y-17811966D01*
X7141491Y-17811966D02*
X7151015Y-17792919D01*
X7151015Y-17792919D02*
X7160539Y-17783395D01*
X7160539Y-17783395D02*
X7179587Y-17773871D01*
X7179587Y-17773871D02*
X7208158Y-17773871D01*
X7208158Y-17773871D02*
X7227206Y-17783395D01*
X7227206Y-17783395D02*
X7236730Y-17792919D01*
X7236730Y-17792919D02*
X7246253Y-17811966D01*
X7246253Y-17811966D02*
X7246253Y-17869109D01*
X7246253Y-17869109D02*
X7236730Y-17888157D01*
X7236730Y-17888157D02*
X7227206Y-17897681D01*
X7227206Y-17897681D02*
X7208158Y-17907204D01*
X7208158Y-17907204D02*
X7179587Y-17907204D01*
X7303396Y-17773871D02*
X7379587Y-17773871D01*
X7331968Y-17707204D02*
X7331968Y-17878633D01*
X7331968Y-17878633D02*
X7341491Y-17897681D01*
X7341491Y-17897681D02*
X7360539Y-17907204D01*
X7360539Y-17907204D02*
X7379587Y-17907204D01*
X7436730Y-17897681D02*
X7455777Y-17907204D01*
X7455777Y-17907204D02*
X7493872Y-17907204D01*
X7493872Y-17907204D02*
X7512920Y-17897681D01*
X7512920Y-17897681D02*
X7522444Y-17878633D01*
X7522444Y-17878633D02*
X7522444Y-17869109D01*
X7522444Y-17869109D02*
X7512920Y-17850061D01*
X7512920Y-17850061D02*
X7493872Y-17840538D01*
X7493872Y-17840538D02*
X7465301Y-17840538D01*
X7465301Y-17840538D02*
X7446253Y-17831014D01*
X7446253Y-17831014D02*
X7436730Y-17811966D01*
X7436730Y-17811966D02*
X7436730Y-17802442D01*
X7436730Y-17802442D02*
X7446253Y-17783395D01*
X7446253Y-17783395D02*
X7465301Y-17773871D01*
X7465301Y-17773871D02*
X7493872Y-17773871D01*
X7493872Y-17773871D02*
X7512920Y-17783395D01*
X7589111Y-17983395D02*
X7598634Y-17973871D01*
X7598634Y-17973871D02*
X7617682Y-17945300D01*
X7617682Y-17945300D02*
X7627206Y-17926252D01*
X7627206Y-17926252D02*
X7636730Y-17897681D01*
X7636730Y-17897681D02*
X7646253Y-17850061D01*
X7646253Y-17850061D02*
X7646253Y-17811966D01*
X7646253Y-17811966D02*
X7636730Y-17764347D01*
X7636730Y-17764347D02*
X7627206Y-17735776D01*
X7627206Y-17735776D02*
X7617682Y-17716728D01*
X7617682Y-17716728D02*
X7598634Y-17688157D01*
X7598634Y-17688157D02*
X7589111Y-17678633D01*
D14*
X1025000Y-17994721D02*
X1195000Y-18164721D01*
X1195000Y-17994721D02*
X1025000Y-18164721D01*
X1110000Y-17994721D02*
X1110000Y-18164721D01*
X1025000Y-18079721D02*
X1195000Y-18079721D01*
D12*
X1560538Y-18171204D02*
X1446253Y-18171204D01*
X1503396Y-18171204D02*
X1503396Y-17971204D01*
X1503396Y-17971204D02*
X1484348Y-17999776D01*
X1484348Y-17999776D02*
X1465300Y-18018823D01*
X1465300Y-18018823D02*
X1446253Y-18028347D01*
X1646253Y-18152157D02*
X1655777Y-18161681D01*
X1655777Y-18161681D02*
X1646253Y-18171204D01*
X1646253Y-18171204D02*
X1636729Y-18161681D01*
X1636729Y-18161681D02*
X1646253Y-18152157D01*
X1646253Y-18152157D02*
X1646253Y-18171204D01*
X1722443Y-17971204D02*
X1855777Y-17971204D01*
X1855777Y-17971204D02*
X1770062Y-18171204D01*
X1970062Y-17971204D02*
X1989110Y-17971204D01*
X1989110Y-17971204D02*
X2008158Y-17980728D01*
X2008158Y-17980728D02*
X2017681Y-17990252D01*
X2017681Y-17990252D02*
X2027205Y-18009300D01*
X2027205Y-18009300D02*
X2036729Y-18047395D01*
X2036729Y-18047395D02*
X2036729Y-18095014D01*
X2036729Y-18095014D02*
X2027205Y-18133109D01*
X2027205Y-18133109D02*
X2017681Y-18152157D01*
X2017681Y-18152157D02*
X2008158Y-18161681D01*
X2008158Y-18161681D02*
X1989110Y-18171204D01*
X1989110Y-18171204D02*
X1970062Y-18171204D01*
X1970062Y-18171204D02*
X1951015Y-18161681D01*
X1951015Y-18161681D02*
X1941491Y-18152157D01*
X1941491Y-18152157D02*
X1931967Y-18133109D01*
X1931967Y-18133109D02*
X1922443Y-18095014D01*
X1922443Y-18095014D02*
X1922443Y-18047395D01*
X1922443Y-18047395D02*
X1931967Y-18009300D01*
X1931967Y-18009300D02*
X1941491Y-17990252D01*
X1941491Y-17990252D02*
X1951015Y-17980728D01*
X1951015Y-17980728D02*
X1970062Y-17971204D01*
X2160539Y-17971204D02*
X2179586Y-17971204D01*
X2179586Y-17971204D02*
X2198634Y-17980728D01*
X2198634Y-17980728D02*
X2208158Y-17990252D01*
X2208158Y-17990252D02*
X2217681Y-18009300D01*
X2217681Y-18009300D02*
X2227205Y-18047395D01*
X2227205Y-18047395D02*
X2227205Y-18095014D01*
X2227205Y-18095014D02*
X2217681Y-18133109D01*
X2217681Y-18133109D02*
X2208158Y-18152157D01*
X2208158Y-18152157D02*
X2198634Y-18161681D01*
X2198634Y-18161681D02*
X2179586Y-18171204D01*
X2179586Y-18171204D02*
X2160539Y-18171204D01*
X2160539Y-18171204D02*
X2141491Y-18161681D01*
X2141491Y-18161681D02*
X2131967Y-18152157D01*
X2131967Y-18152157D02*
X2122443Y-18133109D01*
X2122443Y-18133109D02*
X2112920Y-18095014D01*
X2112920Y-18095014D02*
X2112920Y-18047395D01*
X2112920Y-18047395D02*
X2122443Y-18009300D01*
X2122443Y-18009300D02*
X2131967Y-17990252D01*
X2131967Y-17990252D02*
X2141491Y-17980728D01*
X2141491Y-17980728D02*
X2160539Y-17971204D01*
X2312920Y-18171204D02*
X2312920Y-18037871D01*
X2312920Y-18056919D02*
X2322443Y-18047395D01*
X2322443Y-18047395D02*
X2341491Y-18037871D01*
X2341491Y-18037871D02*
X2370062Y-18037871D01*
X2370062Y-18037871D02*
X2389110Y-18047395D01*
X2389110Y-18047395D02*
X2398634Y-18066442D01*
X2398634Y-18066442D02*
X2398634Y-18171204D01*
X2398634Y-18066442D02*
X2408158Y-18047395D01*
X2408158Y-18047395D02*
X2427205Y-18037871D01*
X2427205Y-18037871D02*
X2455777Y-18037871D01*
X2455777Y-18037871D02*
X2474824Y-18047395D01*
X2474824Y-18047395D02*
X2484348Y-18066442D01*
X2484348Y-18066442D02*
X2484348Y-18171204D01*
X2579586Y-18171204D02*
X2579586Y-18037871D01*
X2579586Y-18056919D02*
X2589110Y-18047395D01*
X2589110Y-18047395D02*
X2608158Y-18037871D01*
X2608158Y-18037871D02*
X2636729Y-18037871D01*
X2636729Y-18037871D02*
X2655777Y-18047395D01*
X2655777Y-18047395D02*
X2665301Y-18066442D01*
X2665301Y-18066442D02*
X2665301Y-18171204D01*
X2665301Y-18066442D02*
X2674824Y-18047395D01*
X2674824Y-18047395D02*
X2693872Y-18037871D01*
X2693872Y-18037871D02*
X2722443Y-18037871D01*
X2722443Y-18037871D02*
X2741491Y-18047395D01*
X2741491Y-18047395D02*
X2751015Y-18066442D01*
X2751015Y-18066442D02*
X2751015Y-18171204D01*
X3141491Y-17961681D02*
X2970062Y-18218823D01*
X3398634Y-17971204D02*
X3417682Y-17971204D01*
X3417682Y-17971204D02*
X3436729Y-17980728D01*
X3436729Y-17980728D02*
X3446253Y-17990252D01*
X3446253Y-17990252D02*
X3455777Y-18009300D01*
X3455777Y-18009300D02*
X3465301Y-18047395D01*
X3465301Y-18047395D02*
X3465301Y-18095014D01*
X3465301Y-18095014D02*
X3455777Y-18133109D01*
X3455777Y-18133109D02*
X3446253Y-18152157D01*
X3446253Y-18152157D02*
X3436729Y-18161681D01*
X3436729Y-18161681D02*
X3417682Y-18171204D01*
X3417682Y-18171204D02*
X3398634Y-18171204D01*
X3398634Y-18171204D02*
X3379586Y-18161681D01*
X3379586Y-18161681D02*
X3370062Y-18152157D01*
X3370062Y-18152157D02*
X3360539Y-18133109D01*
X3360539Y-18133109D02*
X3351015Y-18095014D01*
X3351015Y-18095014D02*
X3351015Y-18047395D01*
X3351015Y-18047395D02*
X3360539Y-18009300D01*
X3360539Y-18009300D02*
X3370062Y-17990252D01*
X3370062Y-17990252D02*
X3379586Y-17980728D01*
X3379586Y-17980728D02*
X3398634Y-17971204D01*
X3551015Y-18152157D02*
X3560539Y-18161681D01*
X3560539Y-18161681D02*
X3551015Y-18171204D01*
X3551015Y-18171204D02*
X3541491Y-18161681D01*
X3541491Y-18161681D02*
X3551015Y-18152157D01*
X3551015Y-18152157D02*
X3551015Y-18171204D01*
X3684348Y-17971204D02*
X3703396Y-17971204D01*
X3703396Y-17971204D02*
X3722443Y-17980728D01*
X3722443Y-17980728D02*
X3731967Y-17990252D01*
X3731967Y-17990252D02*
X3741491Y-18009300D01*
X3741491Y-18009300D02*
X3751015Y-18047395D01*
X3751015Y-18047395D02*
X3751015Y-18095014D01*
X3751015Y-18095014D02*
X3741491Y-18133109D01*
X3741491Y-18133109D02*
X3731967Y-18152157D01*
X3731967Y-18152157D02*
X3722443Y-18161681D01*
X3722443Y-18161681D02*
X3703396Y-18171204D01*
X3703396Y-18171204D02*
X3684348Y-18171204D01*
X3684348Y-18171204D02*
X3665301Y-18161681D01*
X3665301Y-18161681D02*
X3655777Y-18152157D01*
X3655777Y-18152157D02*
X3646253Y-18133109D01*
X3646253Y-18133109D02*
X3636729Y-18095014D01*
X3636729Y-18095014D02*
X3636729Y-18047395D01*
X3636729Y-18047395D02*
X3646253Y-18009300D01*
X3646253Y-18009300D02*
X3655777Y-17990252D01*
X3655777Y-17990252D02*
X3665301Y-17980728D01*
X3665301Y-17980728D02*
X3684348Y-17971204D01*
X3922443Y-17971204D02*
X3884348Y-17971204D01*
X3884348Y-17971204D02*
X3865301Y-17980728D01*
X3865301Y-17980728D02*
X3855777Y-17990252D01*
X3855777Y-17990252D02*
X3836729Y-18018823D01*
X3836729Y-18018823D02*
X3827205Y-18056919D01*
X3827205Y-18056919D02*
X3827205Y-18133109D01*
X3827205Y-18133109D02*
X3836729Y-18152157D01*
X3836729Y-18152157D02*
X3846253Y-18161681D01*
X3846253Y-18161681D02*
X3865301Y-18171204D01*
X3865301Y-18171204D02*
X3903396Y-18171204D01*
X3903396Y-18171204D02*
X3922443Y-18161681D01*
X3922443Y-18161681D02*
X3931967Y-18152157D01*
X3931967Y-18152157D02*
X3941491Y-18133109D01*
X3941491Y-18133109D02*
X3941491Y-18085490D01*
X3941491Y-18085490D02*
X3931967Y-18066442D01*
X3931967Y-18066442D02*
X3922443Y-18056919D01*
X3922443Y-18056919D02*
X3903396Y-18047395D01*
X3903396Y-18047395D02*
X3865301Y-18047395D01*
X3865301Y-18047395D02*
X3846253Y-18056919D01*
X3846253Y-18056919D02*
X3836729Y-18066442D01*
X3836729Y-18066442D02*
X3827205Y-18085490D01*
X4112920Y-17971204D02*
X4074824Y-17971204D01*
X4074824Y-17971204D02*
X4055777Y-17980728D01*
X4055777Y-17980728D02*
X4046253Y-17990252D01*
X4046253Y-17990252D02*
X4027205Y-18018823D01*
X4027205Y-18018823D02*
X4017682Y-18056919D01*
X4017682Y-18056919D02*
X4017682Y-18133109D01*
X4017682Y-18133109D02*
X4027205Y-18152157D01*
X4027205Y-18152157D02*
X4036729Y-18161681D01*
X4036729Y-18161681D02*
X4055777Y-18171204D01*
X4055777Y-18171204D02*
X4093872Y-18171204D01*
X4093872Y-18171204D02*
X4112920Y-18161681D01*
X4112920Y-18161681D02*
X4122443Y-18152157D01*
X4122443Y-18152157D02*
X4131967Y-18133109D01*
X4131967Y-18133109D02*
X4131967Y-18085490D01*
X4131967Y-18085490D02*
X4122443Y-18066442D01*
X4122443Y-18066442D02*
X4112920Y-18056919D01*
X4112920Y-18056919D02*
X4093872Y-18047395D01*
X4093872Y-18047395D02*
X4055777Y-18047395D01*
X4055777Y-18047395D02*
X4036729Y-18056919D01*
X4036729Y-18056919D02*
X4027205Y-18066442D01*
X4027205Y-18066442D02*
X4017682Y-18085490D01*
X4227205Y-18171204D02*
X4265301Y-18171204D01*
X4265301Y-18171204D02*
X4284348Y-18161681D01*
X4284348Y-18161681D02*
X4293872Y-18152157D01*
X4293872Y-18152157D02*
X4312920Y-18123585D01*
X4312920Y-18123585D02*
X4322444Y-18085490D01*
X4322444Y-18085490D02*
X4322444Y-18009300D01*
X4322444Y-18009300D02*
X4312920Y-17990252D01*
X4312920Y-17990252D02*
X4303396Y-17980728D01*
X4303396Y-17980728D02*
X4284348Y-17971204D01*
X4284348Y-17971204D02*
X4246253Y-17971204D01*
X4246253Y-17971204D02*
X4227205Y-17980728D01*
X4227205Y-17980728D02*
X4217682Y-17990252D01*
X4217682Y-17990252D02*
X4208158Y-18009300D01*
X4208158Y-18009300D02*
X4208158Y-18056919D01*
X4208158Y-18056919D02*
X4217682Y-18075966D01*
X4217682Y-18075966D02*
X4227205Y-18085490D01*
X4227205Y-18085490D02*
X4246253Y-18095014D01*
X4246253Y-18095014D02*
X4284348Y-18095014D01*
X4284348Y-18095014D02*
X4303396Y-18085490D01*
X4303396Y-18085490D02*
X4312920Y-18075966D01*
X4312920Y-18075966D02*
X4322444Y-18056919D01*
X4398634Y-17971204D02*
X4398634Y-18009300D01*
X4474825Y-17971204D02*
X4474825Y-18009300D01*
X4770063Y-18247395D02*
X4760539Y-18237871D01*
X4760539Y-18237871D02*
X4741491Y-18209300D01*
X4741491Y-18209300D02*
X4731967Y-18190252D01*
X4731967Y-18190252D02*
X4722444Y-18161681D01*
X4722444Y-18161681D02*
X4712920Y-18114061D01*
X4712920Y-18114061D02*
X4712920Y-18075966D01*
X4712920Y-18075966D02*
X4722444Y-18028347D01*
X4722444Y-18028347D02*
X4731967Y-17999776D01*
X4731967Y-17999776D02*
X4741491Y-17980728D01*
X4741491Y-17980728D02*
X4760539Y-17952157D01*
X4760539Y-17952157D02*
X4770063Y-17942633D01*
X4951015Y-18171204D02*
X4836729Y-18171204D01*
X4893872Y-18171204D02*
X4893872Y-17971204D01*
X4893872Y-17971204D02*
X4874825Y-17999776D01*
X4874825Y-17999776D02*
X4855777Y-18018823D01*
X4855777Y-18018823D02*
X4836729Y-18028347D01*
X5122444Y-17971204D02*
X5084348Y-17971204D01*
X5084348Y-17971204D02*
X5065301Y-17980728D01*
X5065301Y-17980728D02*
X5055777Y-17990252D01*
X5055777Y-17990252D02*
X5036729Y-18018823D01*
X5036729Y-18018823D02*
X5027206Y-18056919D01*
X5027206Y-18056919D02*
X5027206Y-18133109D01*
X5027206Y-18133109D02*
X5036729Y-18152157D01*
X5036729Y-18152157D02*
X5046253Y-18161681D01*
X5046253Y-18161681D02*
X5065301Y-18171204D01*
X5065301Y-18171204D02*
X5103396Y-18171204D01*
X5103396Y-18171204D02*
X5122444Y-18161681D01*
X5122444Y-18161681D02*
X5131967Y-18152157D01*
X5131967Y-18152157D02*
X5141491Y-18133109D01*
X5141491Y-18133109D02*
X5141491Y-18085490D01*
X5141491Y-18085490D02*
X5131967Y-18066442D01*
X5131967Y-18066442D02*
X5122444Y-18056919D01*
X5122444Y-18056919D02*
X5103396Y-18047395D01*
X5103396Y-18047395D02*
X5065301Y-18047395D01*
X5065301Y-18047395D02*
X5046253Y-18056919D01*
X5046253Y-18056919D02*
X5036729Y-18066442D01*
X5036729Y-18066442D02*
X5027206Y-18085490D01*
X5379587Y-18171204D02*
X5379587Y-17971204D01*
X5465301Y-18171204D02*
X5465301Y-18066442D01*
X5465301Y-18066442D02*
X5455777Y-18047395D01*
X5455777Y-18047395D02*
X5436729Y-18037871D01*
X5436729Y-18037871D02*
X5408158Y-18037871D01*
X5408158Y-18037871D02*
X5389110Y-18047395D01*
X5389110Y-18047395D02*
X5379587Y-18056919D01*
X5589110Y-18171204D02*
X5570063Y-18161681D01*
X5570063Y-18161681D02*
X5560539Y-18152157D01*
X5560539Y-18152157D02*
X5551015Y-18133109D01*
X5551015Y-18133109D02*
X5551015Y-18075966D01*
X5551015Y-18075966D02*
X5560539Y-18056919D01*
X5560539Y-18056919D02*
X5570063Y-18047395D01*
X5570063Y-18047395D02*
X5589110Y-18037871D01*
X5589110Y-18037871D02*
X5617682Y-18037871D01*
X5617682Y-18037871D02*
X5636729Y-18047395D01*
X5636729Y-18047395D02*
X5646253Y-18056919D01*
X5646253Y-18056919D02*
X5655777Y-18075966D01*
X5655777Y-18075966D02*
X5655777Y-18133109D01*
X5655777Y-18133109D02*
X5646253Y-18152157D01*
X5646253Y-18152157D02*
X5636729Y-18161681D01*
X5636729Y-18161681D02*
X5617682Y-18171204D01*
X5617682Y-18171204D02*
X5589110Y-18171204D01*
X5770063Y-18171204D02*
X5751015Y-18161681D01*
X5751015Y-18161681D02*
X5741491Y-18142633D01*
X5741491Y-18142633D02*
X5741491Y-17971204D01*
X5922444Y-18161681D02*
X5903396Y-18171204D01*
X5903396Y-18171204D02*
X5865301Y-18171204D01*
X5865301Y-18171204D02*
X5846253Y-18161681D01*
X5846253Y-18161681D02*
X5836729Y-18142633D01*
X5836729Y-18142633D02*
X5836729Y-18066442D01*
X5836729Y-18066442D02*
X5846253Y-18047395D01*
X5846253Y-18047395D02*
X5865301Y-18037871D01*
X5865301Y-18037871D02*
X5903396Y-18037871D01*
X5903396Y-18037871D02*
X5922444Y-18047395D01*
X5922444Y-18047395D02*
X5931967Y-18066442D01*
X5931967Y-18066442D02*
X5931967Y-18085490D01*
X5931967Y-18085490D02*
X5836729Y-18104538D01*
X6008158Y-18161681D02*
X6027206Y-18171204D01*
X6027206Y-18171204D02*
X6065301Y-18171204D01*
X6065301Y-18171204D02*
X6084348Y-18161681D01*
X6084348Y-18161681D02*
X6093872Y-18142633D01*
X6093872Y-18142633D02*
X6093872Y-18133109D01*
X6093872Y-18133109D02*
X6084348Y-18114061D01*
X6084348Y-18114061D02*
X6065301Y-18104538D01*
X6065301Y-18104538D02*
X6036729Y-18104538D01*
X6036729Y-18104538D02*
X6017682Y-18095014D01*
X6017682Y-18095014D02*
X6008158Y-18075966D01*
X6008158Y-18075966D02*
X6008158Y-18066442D01*
X6008158Y-18066442D02*
X6017682Y-18047395D01*
X6017682Y-18047395D02*
X6036729Y-18037871D01*
X6036729Y-18037871D02*
X6065301Y-18037871D01*
X6065301Y-18037871D02*
X6084348Y-18047395D01*
X6160539Y-18247395D02*
X6170063Y-18237871D01*
X6170063Y-18237871D02*
X6189110Y-18209300D01*
X6189110Y-18209300D02*
X6198634Y-18190252D01*
X6198634Y-18190252D02*
X6208158Y-18161681D01*
X6208158Y-18161681D02*
X6217682Y-18114061D01*
X6217682Y-18114061D02*
X6217682Y-18075966D01*
X6217682Y-18075966D02*
X6208158Y-18028347D01*
X6208158Y-18028347D02*
X6198634Y-17999776D01*
X6198634Y-17999776D02*
X6189110Y-17980728D01*
X6189110Y-17980728D02*
X6170063Y-17952157D01*
X6170063Y-17952157D02*
X6160539Y-17942633D01*
X995000Y-18269721D02*
X1195000Y-18469721D01*
X1195000Y-18269721D02*
X995000Y-18469721D01*
X1165711Y-18440432D02*
X1165711Y-18299009D01*
X1024288Y-18299009D01*
X1024288Y-18440432D01*
X1165711Y-18440432D01*
X1446253Y-18280252D02*
X1455777Y-18270728D01*
X1455777Y-18270728D02*
X1474824Y-18261204D01*
X1474824Y-18261204D02*
X1522443Y-18261204D01*
X1522443Y-18261204D02*
X1541491Y-18270728D01*
X1541491Y-18270728D02*
X1551015Y-18280252D01*
X1551015Y-18280252D02*
X1560538Y-18299300D01*
X1560538Y-18299300D02*
X1560538Y-18318347D01*
X1560538Y-18318347D02*
X1551015Y-18346919D01*
X1551015Y-18346919D02*
X1436729Y-18461204D01*
X1436729Y-18461204D02*
X1560538Y-18461204D01*
X1646253Y-18442157D02*
X1655777Y-18451681D01*
X1655777Y-18451681D02*
X1646253Y-18461204D01*
X1646253Y-18461204D02*
X1636729Y-18451681D01*
X1636729Y-18451681D02*
X1646253Y-18442157D01*
X1646253Y-18442157D02*
X1646253Y-18461204D01*
X1779586Y-18261204D02*
X1798634Y-18261204D01*
X1798634Y-18261204D02*
X1817681Y-18270728D01*
X1817681Y-18270728D02*
X1827205Y-18280252D01*
X1827205Y-18280252D02*
X1836729Y-18299300D01*
X1836729Y-18299300D02*
X1846253Y-18337395D01*
X1846253Y-18337395D02*
X1846253Y-18385014D01*
X1846253Y-18385014D02*
X1836729Y-18423109D01*
X1836729Y-18423109D02*
X1827205Y-18442157D01*
X1827205Y-18442157D02*
X1817681Y-18451681D01*
X1817681Y-18451681D02*
X1798634Y-18461204D01*
X1798634Y-18461204D02*
X1779586Y-18461204D01*
X1779586Y-18461204D02*
X1760538Y-18451681D01*
X1760538Y-18451681D02*
X1751015Y-18442157D01*
X1751015Y-18442157D02*
X1741491Y-18423109D01*
X1741491Y-18423109D02*
X1731967Y-18385014D01*
X1731967Y-18385014D02*
X1731967Y-18337395D01*
X1731967Y-18337395D02*
X1741491Y-18299300D01*
X1741491Y-18299300D02*
X1751015Y-18280252D01*
X1751015Y-18280252D02*
X1760538Y-18270728D01*
X1760538Y-18270728D02*
X1779586Y-18261204D01*
X1970062Y-18261204D02*
X1989110Y-18261204D01*
X1989110Y-18261204D02*
X2008158Y-18270728D01*
X2008158Y-18270728D02*
X2017681Y-18280252D01*
X2017681Y-18280252D02*
X2027205Y-18299300D01*
X2027205Y-18299300D02*
X2036729Y-18337395D01*
X2036729Y-18337395D02*
X2036729Y-18385014D01*
X2036729Y-18385014D02*
X2027205Y-18423109D01*
X2027205Y-18423109D02*
X2017681Y-18442157D01*
X2017681Y-18442157D02*
X2008158Y-18451681D01*
X2008158Y-18451681D02*
X1989110Y-18461204D01*
X1989110Y-18461204D02*
X1970062Y-18461204D01*
X1970062Y-18461204D02*
X1951015Y-18451681D01*
X1951015Y-18451681D02*
X1941491Y-18442157D01*
X1941491Y-18442157D02*
X1931967Y-18423109D01*
X1931967Y-18423109D02*
X1922443Y-18385014D01*
X1922443Y-18385014D02*
X1922443Y-18337395D01*
X1922443Y-18337395D02*
X1931967Y-18299300D01*
X1931967Y-18299300D02*
X1941491Y-18280252D01*
X1941491Y-18280252D02*
X1951015Y-18270728D01*
X1951015Y-18270728D02*
X1970062Y-18261204D01*
X2160539Y-18261204D02*
X2179586Y-18261204D01*
X2179586Y-18261204D02*
X2198634Y-18270728D01*
X2198634Y-18270728D02*
X2208158Y-18280252D01*
X2208158Y-18280252D02*
X2217681Y-18299300D01*
X2217681Y-18299300D02*
X2227205Y-18337395D01*
X2227205Y-18337395D02*
X2227205Y-18385014D01*
X2227205Y-18385014D02*
X2217681Y-18423109D01*
X2217681Y-18423109D02*
X2208158Y-18442157D01*
X2208158Y-18442157D02*
X2198634Y-18451681D01*
X2198634Y-18451681D02*
X2179586Y-18461204D01*
X2179586Y-18461204D02*
X2160539Y-18461204D01*
X2160539Y-18461204D02*
X2141491Y-18451681D01*
X2141491Y-18451681D02*
X2131967Y-18442157D01*
X2131967Y-18442157D02*
X2122443Y-18423109D01*
X2122443Y-18423109D02*
X2112920Y-18385014D01*
X2112920Y-18385014D02*
X2112920Y-18337395D01*
X2112920Y-18337395D02*
X2122443Y-18299300D01*
X2122443Y-18299300D02*
X2131967Y-18280252D01*
X2131967Y-18280252D02*
X2141491Y-18270728D01*
X2141491Y-18270728D02*
X2160539Y-18261204D01*
X2312920Y-18461204D02*
X2312920Y-18327871D01*
X2312920Y-18346919D02*
X2322443Y-18337395D01*
X2322443Y-18337395D02*
X2341491Y-18327871D01*
X2341491Y-18327871D02*
X2370062Y-18327871D01*
X2370062Y-18327871D02*
X2389110Y-18337395D01*
X2389110Y-18337395D02*
X2398634Y-18356442D01*
X2398634Y-18356442D02*
X2398634Y-18461204D01*
X2398634Y-18356442D02*
X2408158Y-18337395D01*
X2408158Y-18337395D02*
X2427205Y-18327871D01*
X2427205Y-18327871D02*
X2455777Y-18327871D01*
X2455777Y-18327871D02*
X2474824Y-18337395D01*
X2474824Y-18337395D02*
X2484348Y-18356442D01*
X2484348Y-18356442D02*
X2484348Y-18461204D01*
X2579586Y-18461204D02*
X2579586Y-18327871D01*
X2579586Y-18346919D02*
X2589110Y-18337395D01*
X2589110Y-18337395D02*
X2608158Y-18327871D01*
X2608158Y-18327871D02*
X2636729Y-18327871D01*
X2636729Y-18327871D02*
X2655777Y-18337395D01*
X2655777Y-18337395D02*
X2665301Y-18356442D01*
X2665301Y-18356442D02*
X2665301Y-18461204D01*
X2665301Y-18356442D02*
X2674824Y-18337395D01*
X2674824Y-18337395D02*
X2693872Y-18327871D01*
X2693872Y-18327871D02*
X2722443Y-18327871D01*
X2722443Y-18327871D02*
X2741491Y-18337395D01*
X2741491Y-18337395D02*
X2751015Y-18356442D01*
X2751015Y-18356442D02*
X2751015Y-18461204D01*
X3141491Y-18251681D02*
X2970062Y-18508823D01*
X3398634Y-18261204D02*
X3417682Y-18261204D01*
X3417682Y-18261204D02*
X3436729Y-18270728D01*
X3436729Y-18270728D02*
X3446253Y-18280252D01*
X3446253Y-18280252D02*
X3455777Y-18299300D01*
X3455777Y-18299300D02*
X3465301Y-18337395D01*
X3465301Y-18337395D02*
X3465301Y-18385014D01*
X3465301Y-18385014D02*
X3455777Y-18423109D01*
X3455777Y-18423109D02*
X3446253Y-18442157D01*
X3446253Y-18442157D02*
X3436729Y-18451681D01*
X3436729Y-18451681D02*
X3417682Y-18461204D01*
X3417682Y-18461204D02*
X3398634Y-18461204D01*
X3398634Y-18461204D02*
X3379586Y-18451681D01*
X3379586Y-18451681D02*
X3370062Y-18442157D01*
X3370062Y-18442157D02*
X3360539Y-18423109D01*
X3360539Y-18423109D02*
X3351015Y-18385014D01*
X3351015Y-18385014D02*
X3351015Y-18337395D01*
X3351015Y-18337395D02*
X3360539Y-18299300D01*
X3360539Y-18299300D02*
X3370062Y-18280252D01*
X3370062Y-18280252D02*
X3379586Y-18270728D01*
X3379586Y-18270728D02*
X3398634Y-18261204D01*
X3551015Y-18442157D02*
X3560539Y-18451681D01*
X3560539Y-18451681D02*
X3551015Y-18461204D01*
X3551015Y-18461204D02*
X3541491Y-18451681D01*
X3541491Y-18451681D02*
X3551015Y-18442157D01*
X3551015Y-18442157D02*
X3551015Y-18461204D01*
X3684348Y-18261204D02*
X3703396Y-18261204D01*
X3703396Y-18261204D02*
X3722443Y-18270728D01*
X3722443Y-18270728D02*
X3731967Y-18280252D01*
X3731967Y-18280252D02*
X3741491Y-18299300D01*
X3741491Y-18299300D02*
X3751015Y-18337395D01*
X3751015Y-18337395D02*
X3751015Y-18385014D01*
X3751015Y-18385014D02*
X3741491Y-18423109D01*
X3741491Y-18423109D02*
X3731967Y-18442157D01*
X3731967Y-18442157D02*
X3722443Y-18451681D01*
X3722443Y-18451681D02*
X3703396Y-18461204D01*
X3703396Y-18461204D02*
X3684348Y-18461204D01*
X3684348Y-18461204D02*
X3665301Y-18451681D01*
X3665301Y-18451681D02*
X3655777Y-18442157D01*
X3655777Y-18442157D02*
X3646253Y-18423109D01*
X3646253Y-18423109D02*
X3636729Y-18385014D01*
X3636729Y-18385014D02*
X3636729Y-18337395D01*
X3636729Y-18337395D02*
X3646253Y-18299300D01*
X3646253Y-18299300D02*
X3655777Y-18280252D01*
X3655777Y-18280252D02*
X3665301Y-18270728D01*
X3665301Y-18270728D02*
X3684348Y-18261204D01*
X3817682Y-18261204D02*
X3951015Y-18261204D01*
X3951015Y-18261204D02*
X3865301Y-18461204D01*
X4055777Y-18346919D02*
X4036729Y-18337395D01*
X4036729Y-18337395D02*
X4027205Y-18327871D01*
X4027205Y-18327871D02*
X4017682Y-18308823D01*
X4017682Y-18308823D02*
X4017682Y-18299300D01*
X4017682Y-18299300D02*
X4027205Y-18280252D01*
X4027205Y-18280252D02*
X4036729Y-18270728D01*
X4036729Y-18270728D02*
X4055777Y-18261204D01*
X4055777Y-18261204D02*
X4093872Y-18261204D01*
X4093872Y-18261204D02*
X4112920Y-18270728D01*
X4112920Y-18270728D02*
X4122443Y-18280252D01*
X4122443Y-18280252D02*
X4131967Y-18299300D01*
X4131967Y-18299300D02*
X4131967Y-18308823D01*
X4131967Y-18308823D02*
X4122443Y-18327871D01*
X4122443Y-18327871D02*
X4112920Y-18337395D01*
X4112920Y-18337395D02*
X4093872Y-18346919D01*
X4093872Y-18346919D02*
X4055777Y-18346919D01*
X4055777Y-18346919D02*
X4036729Y-18356442D01*
X4036729Y-18356442D02*
X4027205Y-18365966D01*
X4027205Y-18365966D02*
X4017682Y-18385014D01*
X4017682Y-18385014D02*
X4017682Y-18423109D01*
X4017682Y-18423109D02*
X4027205Y-18442157D01*
X4027205Y-18442157D02*
X4036729Y-18451681D01*
X4036729Y-18451681D02*
X4055777Y-18461204D01*
X4055777Y-18461204D02*
X4093872Y-18461204D01*
X4093872Y-18461204D02*
X4112920Y-18451681D01*
X4112920Y-18451681D02*
X4122443Y-18442157D01*
X4122443Y-18442157D02*
X4131967Y-18423109D01*
X4131967Y-18423109D02*
X4131967Y-18385014D01*
X4131967Y-18385014D02*
X4122443Y-18365966D01*
X4122443Y-18365966D02*
X4112920Y-18356442D01*
X4112920Y-18356442D02*
X4093872Y-18346919D01*
X4198634Y-18261204D02*
X4331967Y-18261204D01*
X4331967Y-18261204D02*
X4246253Y-18461204D01*
X4398634Y-18261204D02*
X4398634Y-18299300D01*
X4474825Y-18261204D02*
X4474825Y-18299300D01*
X4770063Y-18537395D02*
X4760539Y-18527871D01*
X4760539Y-18527871D02*
X4741491Y-18499300D01*
X4741491Y-18499300D02*
X4731967Y-18480252D01*
X4731967Y-18480252D02*
X4722444Y-18451681D01*
X4722444Y-18451681D02*
X4712920Y-18404061D01*
X4712920Y-18404061D02*
X4712920Y-18365966D01*
X4712920Y-18365966D02*
X4722444Y-18318347D01*
X4722444Y-18318347D02*
X4731967Y-18289776D01*
X4731967Y-18289776D02*
X4741491Y-18270728D01*
X4741491Y-18270728D02*
X4760539Y-18242157D01*
X4760539Y-18242157D02*
X4770063Y-18232633D01*
X4884348Y-18261204D02*
X4903396Y-18261204D01*
X4903396Y-18261204D02*
X4922444Y-18270728D01*
X4922444Y-18270728D02*
X4931967Y-18280252D01*
X4931967Y-18280252D02*
X4941491Y-18299300D01*
X4941491Y-18299300D02*
X4951015Y-18337395D01*
X4951015Y-18337395D02*
X4951015Y-18385014D01*
X4951015Y-18385014D02*
X4941491Y-18423109D01*
X4941491Y-18423109D02*
X4931967Y-18442157D01*
X4931967Y-18442157D02*
X4922444Y-18451681D01*
X4922444Y-18451681D02*
X4903396Y-18461204D01*
X4903396Y-18461204D02*
X4884348Y-18461204D01*
X4884348Y-18461204D02*
X4865301Y-18451681D01*
X4865301Y-18451681D02*
X4855777Y-18442157D01*
X4855777Y-18442157D02*
X4846253Y-18423109D01*
X4846253Y-18423109D02*
X4836729Y-18385014D01*
X4836729Y-18385014D02*
X4836729Y-18337395D01*
X4836729Y-18337395D02*
X4846253Y-18299300D01*
X4846253Y-18299300D02*
X4855777Y-18280252D01*
X4855777Y-18280252D02*
X4865301Y-18270728D01*
X4865301Y-18270728D02*
X4884348Y-18261204D01*
X5189110Y-18461204D02*
X5189110Y-18261204D01*
X5274825Y-18461204D02*
X5274825Y-18356442D01*
X5274825Y-18356442D02*
X5265301Y-18337395D01*
X5265301Y-18337395D02*
X5246253Y-18327871D01*
X5246253Y-18327871D02*
X5217682Y-18327871D01*
X5217682Y-18327871D02*
X5198634Y-18337395D01*
X5198634Y-18337395D02*
X5189110Y-18346919D01*
X5398634Y-18461204D02*
X5379587Y-18451681D01*
X5379587Y-18451681D02*
X5370063Y-18442157D01*
X5370063Y-18442157D02*
X5360539Y-18423109D01*
X5360539Y-18423109D02*
X5360539Y-18365966D01*
X5360539Y-18365966D02*
X5370063Y-18346919D01*
X5370063Y-18346919D02*
X5379587Y-18337395D01*
X5379587Y-18337395D02*
X5398634Y-18327871D01*
X5398634Y-18327871D02*
X5427206Y-18327871D01*
X5427206Y-18327871D02*
X5446253Y-18337395D01*
X5446253Y-18337395D02*
X5455777Y-18346919D01*
X5455777Y-18346919D02*
X5465301Y-18365966D01*
X5465301Y-18365966D02*
X5465301Y-18423109D01*
X5465301Y-18423109D02*
X5455777Y-18442157D01*
X5455777Y-18442157D02*
X5446253Y-18451681D01*
X5446253Y-18451681D02*
X5427206Y-18461204D01*
X5427206Y-18461204D02*
X5398634Y-18461204D01*
X5579587Y-18461204D02*
X5560539Y-18451681D01*
X5560539Y-18451681D02*
X5551015Y-18432633D01*
X5551015Y-18432633D02*
X5551015Y-18261204D01*
X5731967Y-18451681D02*
X5712920Y-18461204D01*
X5712920Y-18461204D02*
X5674825Y-18461204D01*
X5674825Y-18461204D02*
X5655777Y-18451681D01*
X5655777Y-18451681D02*
X5646253Y-18432633D01*
X5646253Y-18432633D02*
X5646253Y-18356442D01*
X5646253Y-18356442D02*
X5655777Y-18337395D01*
X5655777Y-18337395D02*
X5674825Y-18327871D01*
X5674825Y-18327871D02*
X5712920Y-18327871D01*
X5712920Y-18327871D02*
X5731967Y-18337395D01*
X5731967Y-18337395D02*
X5741491Y-18356442D01*
X5741491Y-18356442D02*
X5741491Y-18375490D01*
X5741491Y-18375490D02*
X5646253Y-18394538D01*
X5817682Y-18451681D02*
X5836729Y-18461204D01*
X5836729Y-18461204D02*
X5874825Y-18461204D01*
X5874825Y-18461204D02*
X5893872Y-18451681D01*
X5893872Y-18451681D02*
X5903396Y-18432633D01*
X5903396Y-18432633D02*
X5903396Y-18423109D01*
X5903396Y-18423109D02*
X5893872Y-18404061D01*
X5893872Y-18404061D02*
X5874825Y-18394538D01*
X5874825Y-18394538D02*
X5846253Y-18394538D01*
X5846253Y-18394538D02*
X5827206Y-18385014D01*
X5827206Y-18385014D02*
X5817682Y-18365966D01*
X5817682Y-18365966D02*
X5817682Y-18356442D01*
X5817682Y-18356442D02*
X5827206Y-18337395D01*
X5827206Y-18337395D02*
X5846253Y-18327871D01*
X5846253Y-18327871D02*
X5874825Y-18327871D01*
X5874825Y-18327871D02*
X5893872Y-18337395D01*
X6141491Y-18385014D02*
X6293872Y-18385014D01*
X6217682Y-18461204D02*
X6217682Y-18308823D01*
X6531968Y-18280252D02*
X6541491Y-18270728D01*
X6541491Y-18270728D02*
X6560539Y-18261204D01*
X6560539Y-18261204D02*
X6608158Y-18261204D01*
X6608158Y-18261204D02*
X6627206Y-18270728D01*
X6627206Y-18270728D02*
X6636729Y-18280252D01*
X6636729Y-18280252D02*
X6646253Y-18299300D01*
X6646253Y-18299300D02*
X6646253Y-18318347D01*
X6646253Y-18318347D02*
X6636729Y-18346919D01*
X6636729Y-18346919D02*
X6522444Y-18461204D01*
X6522444Y-18461204D02*
X6646253Y-18461204D01*
X6817682Y-18327871D02*
X6817682Y-18461204D01*
X6770063Y-18251681D02*
X6722444Y-18394538D01*
X6722444Y-18394538D02*
X6846253Y-18394538D01*
X7065301Y-18451681D02*
X7084349Y-18461204D01*
X7084349Y-18461204D02*
X7122444Y-18461204D01*
X7122444Y-18461204D02*
X7141491Y-18451681D01*
X7141491Y-18451681D02*
X7151015Y-18432633D01*
X7151015Y-18432633D02*
X7151015Y-18423109D01*
X7151015Y-18423109D02*
X7141491Y-18404061D01*
X7141491Y-18404061D02*
X7122444Y-18394538D01*
X7122444Y-18394538D02*
X7093872Y-18394538D01*
X7093872Y-18394538D02*
X7074825Y-18385014D01*
X7074825Y-18385014D02*
X7065301Y-18365966D01*
X7065301Y-18365966D02*
X7065301Y-18356442D01*
X7065301Y-18356442D02*
X7074825Y-18337395D01*
X7074825Y-18337395D02*
X7093872Y-18327871D01*
X7093872Y-18327871D02*
X7122444Y-18327871D01*
X7122444Y-18327871D02*
X7141491Y-18337395D01*
X7265301Y-18461204D02*
X7246253Y-18451681D01*
X7246253Y-18451681D02*
X7236730Y-18432633D01*
X7236730Y-18432633D02*
X7236730Y-18261204D01*
X7370063Y-18461204D02*
X7351015Y-18451681D01*
X7351015Y-18451681D02*
X7341491Y-18442157D01*
X7341491Y-18442157D02*
X7331968Y-18423109D01*
X7331968Y-18423109D02*
X7331968Y-18365966D01*
X7331968Y-18365966D02*
X7341491Y-18346919D01*
X7341491Y-18346919D02*
X7351015Y-18337395D01*
X7351015Y-18337395D02*
X7370063Y-18327871D01*
X7370063Y-18327871D02*
X7398634Y-18327871D01*
X7398634Y-18327871D02*
X7417682Y-18337395D01*
X7417682Y-18337395D02*
X7427206Y-18346919D01*
X7427206Y-18346919D02*
X7436730Y-18365966D01*
X7436730Y-18365966D02*
X7436730Y-18423109D01*
X7436730Y-18423109D02*
X7427206Y-18442157D01*
X7427206Y-18442157D02*
X7417682Y-18451681D01*
X7417682Y-18451681D02*
X7398634Y-18461204D01*
X7398634Y-18461204D02*
X7370063Y-18461204D01*
X7493872Y-18327871D02*
X7570063Y-18327871D01*
X7522444Y-18261204D02*
X7522444Y-18432633D01*
X7522444Y-18432633D02*
X7531968Y-18451681D01*
X7531968Y-18451681D02*
X7551015Y-18461204D01*
X7551015Y-18461204D02*
X7570063Y-18461204D01*
X7627206Y-18451681D02*
X7646253Y-18461204D01*
X7646253Y-18461204D02*
X7684349Y-18461204D01*
X7684349Y-18461204D02*
X7703396Y-18451681D01*
X7703396Y-18451681D02*
X7712920Y-18432633D01*
X7712920Y-18432633D02*
X7712920Y-18423109D01*
X7712920Y-18423109D02*
X7703396Y-18404061D01*
X7703396Y-18404061D02*
X7684349Y-18394538D01*
X7684349Y-18394538D02*
X7655777Y-18394538D01*
X7655777Y-18394538D02*
X7636730Y-18385014D01*
X7636730Y-18385014D02*
X7627206Y-18365966D01*
X7627206Y-18365966D02*
X7627206Y-18356442D01*
X7627206Y-18356442D02*
X7636730Y-18337395D01*
X7636730Y-18337395D02*
X7655777Y-18327871D01*
X7655777Y-18327871D02*
X7684349Y-18327871D01*
X7684349Y-18327871D02*
X7703396Y-18337395D01*
X7779587Y-18537395D02*
X7789111Y-18527871D01*
X7789111Y-18527871D02*
X7808158Y-18499300D01*
X7808158Y-18499300D02*
X7817682Y-18480252D01*
X7817682Y-18480252D02*
X7827206Y-18451681D01*
X7827206Y-18451681D02*
X7836730Y-18404061D01*
X7836730Y-18404061D02*
X7836730Y-18365966D01*
X7836730Y-18365966D02*
X7827206Y-18318347D01*
X7827206Y-18318347D02*
X7817682Y-18289776D01*
X7817682Y-18289776D02*
X7808158Y-18270728D01*
X7808158Y-18270728D02*
X7789111Y-18242157D01*
X7789111Y-18242157D02*
X7779587Y-18232633D01*
X995000Y-18589721D02*
X1195000Y-18789721D01*
X1195000Y-18589721D02*
X995000Y-18789721D01*
X1095000Y-18789721D02*
X1195000Y-18689721D01*
X1095000Y-18589721D01*
X995000Y-18689721D01*
X1095000Y-18789721D01*
X1446253Y-18600252D02*
X1455777Y-18590728D01*
X1455777Y-18590728D02*
X1474824Y-18581204D01*
X1474824Y-18581204D02*
X1522443Y-18581204D01*
X1522443Y-18581204D02*
X1541491Y-18590728D01*
X1541491Y-18590728D02*
X1551015Y-18600252D01*
X1551015Y-18600252D02*
X1560538Y-18619300D01*
X1560538Y-18619300D02*
X1560538Y-18638347D01*
X1560538Y-18638347D02*
X1551015Y-18666919D01*
X1551015Y-18666919D02*
X1436729Y-18781204D01*
X1436729Y-18781204D02*
X1560538Y-18781204D01*
X1646253Y-18762157D02*
X1655777Y-18771681D01*
X1655777Y-18771681D02*
X1646253Y-18781204D01*
X1646253Y-18781204D02*
X1636729Y-18771681D01*
X1636729Y-18771681D02*
X1646253Y-18762157D01*
X1646253Y-18762157D02*
X1646253Y-18781204D01*
X1836729Y-18581204D02*
X1741491Y-18581204D01*
X1741491Y-18581204D02*
X1731967Y-18676442D01*
X1731967Y-18676442D02*
X1741491Y-18666919D01*
X1741491Y-18666919D02*
X1760538Y-18657395D01*
X1760538Y-18657395D02*
X1808158Y-18657395D01*
X1808158Y-18657395D02*
X1827205Y-18666919D01*
X1827205Y-18666919D02*
X1836729Y-18676442D01*
X1836729Y-18676442D02*
X1846253Y-18695490D01*
X1846253Y-18695490D02*
X1846253Y-18743109D01*
X1846253Y-18743109D02*
X1836729Y-18762157D01*
X1836729Y-18762157D02*
X1827205Y-18771681D01*
X1827205Y-18771681D02*
X1808158Y-18781204D01*
X1808158Y-18781204D02*
X1760538Y-18781204D01*
X1760538Y-18781204D02*
X1741491Y-18771681D01*
X1741491Y-18771681D02*
X1731967Y-18762157D01*
X1970062Y-18581204D02*
X1989110Y-18581204D01*
X1989110Y-18581204D02*
X2008158Y-18590728D01*
X2008158Y-18590728D02*
X2017681Y-18600252D01*
X2017681Y-18600252D02*
X2027205Y-18619300D01*
X2027205Y-18619300D02*
X2036729Y-18657395D01*
X2036729Y-18657395D02*
X2036729Y-18705014D01*
X2036729Y-18705014D02*
X2027205Y-18743109D01*
X2027205Y-18743109D02*
X2017681Y-18762157D01*
X2017681Y-18762157D02*
X2008158Y-18771681D01*
X2008158Y-18771681D02*
X1989110Y-18781204D01*
X1989110Y-18781204D02*
X1970062Y-18781204D01*
X1970062Y-18781204D02*
X1951015Y-18771681D01*
X1951015Y-18771681D02*
X1941491Y-18762157D01*
X1941491Y-18762157D02*
X1931967Y-18743109D01*
X1931967Y-18743109D02*
X1922443Y-18705014D01*
X1922443Y-18705014D02*
X1922443Y-18657395D01*
X1922443Y-18657395D02*
X1931967Y-18619300D01*
X1931967Y-18619300D02*
X1941491Y-18600252D01*
X1941491Y-18600252D02*
X1951015Y-18590728D01*
X1951015Y-18590728D02*
X1970062Y-18581204D01*
X2160539Y-18581204D02*
X2179586Y-18581204D01*
X2179586Y-18581204D02*
X2198634Y-18590728D01*
X2198634Y-18590728D02*
X2208158Y-18600252D01*
X2208158Y-18600252D02*
X2217681Y-18619300D01*
X2217681Y-18619300D02*
X2227205Y-18657395D01*
X2227205Y-18657395D02*
X2227205Y-18705014D01*
X2227205Y-18705014D02*
X2217681Y-18743109D01*
X2217681Y-18743109D02*
X2208158Y-18762157D01*
X2208158Y-18762157D02*
X2198634Y-18771681D01*
X2198634Y-18771681D02*
X2179586Y-18781204D01*
X2179586Y-18781204D02*
X2160539Y-18781204D01*
X2160539Y-18781204D02*
X2141491Y-18771681D01*
X2141491Y-18771681D02*
X2131967Y-18762157D01*
X2131967Y-18762157D02*
X2122443Y-18743109D01*
X2122443Y-18743109D02*
X2112920Y-18705014D01*
X2112920Y-18705014D02*
X2112920Y-18657395D01*
X2112920Y-18657395D02*
X2122443Y-18619300D01*
X2122443Y-18619300D02*
X2131967Y-18600252D01*
X2131967Y-18600252D02*
X2141491Y-18590728D01*
X2141491Y-18590728D02*
X2160539Y-18581204D01*
X2312920Y-18781204D02*
X2312920Y-18647871D01*
X2312920Y-18666919D02*
X2322443Y-18657395D01*
X2322443Y-18657395D02*
X2341491Y-18647871D01*
X2341491Y-18647871D02*
X2370062Y-18647871D01*
X2370062Y-18647871D02*
X2389110Y-18657395D01*
X2389110Y-18657395D02*
X2398634Y-18676442D01*
X2398634Y-18676442D02*
X2398634Y-18781204D01*
X2398634Y-18676442D02*
X2408158Y-18657395D01*
X2408158Y-18657395D02*
X2427205Y-18647871D01*
X2427205Y-18647871D02*
X2455777Y-18647871D01*
X2455777Y-18647871D02*
X2474824Y-18657395D01*
X2474824Y-18657395D02*
X2484348Y-18676442D01*
X2484348Y-18676442D02*
X2484348Y-18781204D01*
X2579586Y-18781204D02*
X2579586Y-18647871D01*
X2579586Y-18666919D02*
X2589110Y-18657395D01*
X2589110Y-18657395D02*
X2608158Y-18647871D01*
X2608158Y-18647871D02*
X2636729Y-18647871D01*
X2636729Y-18647871D02*
X2655777Y-18657395D01*
X2655777Y-18657395D02*
X2665301Y-18676442D01*
X2665301Y-18676442D02*
X2665301Y-18781204D01*
X2665301Y-18676442D02*
X2674824Y-18657395D01*
X2674824Y-18657395D02*
X2693872Y-18647871D01*
X2693872Y-18647871D02*
X2722443Y-18647871D01*
X2722443Y-18647871D02*
X2741491Y-18657395D01*
X2741491Y-18657395D02*
X2751015Y-18676442D01*
X2751015Y-18676442D02*
X2751015Y-18781204D01*
X3141491Y-18571681D02*
X2970062Y-18828823D01*
X3398634Y-18581204D02*
X3417682Y-18581204D01*
X3417682Y-18581204D02*
X3436729Y-18590728D01*
X3436729Y-18590728D02*
X3446253Y-18600252D01*
X3446253Y-18600252D02*
X3455777Y-18619300D01*
X3455777Y-18619300D02*
X3465301Y-18657395D01*
X3465301Y-18657395D02*
X3465301Y-18705014D01*
X3465301Y-18705014D02*
X3455777Y-18743109D01*
X3455777Y-18743109D02*
X3446253Y-18762157D01*
X3446253Y-18762157D02*
X3436729Y-18771681D01*
X3436729Y-18771681D02*
X3417682Y-18781204D01*
X3417682Y-18781204D02*
X3398634Y-18781204D01*
X3398634Y-18781204D02*
X3379586Y-18771681D01*
X3379586Y-18771681D02*
X3370062Y-18762157D01*
X3370062Y-18762157D02*
X3360539Y-18743109D01*
X3360539Y-18743109D02*
X3351015Y-18705014D01*
X3351015Y-18705014D02*
X3351015Y-18657395D01*
X3351015Y-18657395D02*
X3360539Y-18619300D01*
X3360539Y-18619300D02*
X3370062Y-18600252D01*
X3370062Y-18600252D02*
X3379586Y-18590728D01*
X3379586Y-18590728D02*
X3398634Y-18581204D01*
X3551015Y-18762157D02*
X3560539Y-18771681D01*
X3560539Y-18771681D02*
X3551015Y-18781204D01*
X3551015Y-18781204D02*
X3541491Y-18771681D01*
X3541491Y-18771681D02*
X3551015Y-18762157D01*
X3551015Y-18762157D02*
X3551015Y-18781204D01*
X3684348Y-18581204D02*
X3703396Y-18581204D01*
X3703396Y-18581204D02*
X3722443Y-18590728D01*
X3722443Y-18590728D02*
X3731967Y-18600252D01*
X3731967Y-18600252D02*
X3741491Y-18619300D01*
X3741491Y-18619300D02*
X3751015Y-18657395D01*
X3751015Y-18657395D02*
X3751015Y-18705014D01*
X3751015Y-18705014D02*
X3741491Y-18743109D01*
X3741491Y-18743109D02*
X3731967Y-18762157D01*
X3731967Y-18762157D02*
X3722443Y-18771681D01*
X3722443Y-18771681D02*
X3703396Y-18781204D01*
X3703396Y-18781204D02*
X3684348Y-18781204D01*
X3684348Y-18781204D02*
X3665301Y-18771681D01*
X3665301Y-18771681D02*
X3655777Y-18762157D01*
X3655777Y-18762157D02*
X3646253Y-18743109D01*
X3646253Y-18743109D02*
X3636729Y-18705014D01*
X3636729Y-18705014D02*
X3636729Y-18657395D01*
X3636729Y-18657395D02*
X3646253Y-18619300D01*
X3646253Y-18619300D02*
X3655777Y-18600252D01*
X3655777Y-18600252D02*
X3665301Y-18590728D01*
X3665301Y-18590728D02*
X3684348Y-18581204D01*
X3846253Y-18781204D02*
X3884348Y-18781204D01*
X3884348Y-18781204D02*
X3903396Y-18771681D01*
X3903396Y-18771681D02*
X3912920Y-18762157D01*
X3912920Y-18762157D02*
X3931967Y-18733585D01*
X3931967Y-18733585D02*
X3941491Y-18695490D01*
X3941491Y-18695490D02*
X3941491Y-18619300D01*
X3941491Y-18619300D02*
X3931967Y-18600252D01*
X3931967Y-18600252D02*
X3922443Y-18590728D01*
X3922443Y-18590728D02*
X3903396Y-18581204D01*
X3903396Y-18581204D02*
X3865301Y-18581204D01*
X3865301Y-18581204D02*
X3846253Y-18590728D01*
X3846253Y-18590728D02*
X3836729Y-18600252D01*
X3836729Y-18600252D02*
X3827205Y-18619300D01*
X3827205Y-18619300D02*
X3827205Y-18666919D01*
X3827205Y-18666919D02*
X3836729Y-18685966D01*
X3836729Y-18685966D02*
X3846253Y-18695490D01*
X3846253Y-18695490D02*
X3865301Y-18705014D01*
X3865301Y-18705014D02*
X3903396Y-18705014D01*
X3903396Y-18705014D02*
X3922443Y-18695490D01*
X3922443Y-18695490D02*
X3931967Y-18685966D01*
X3931967Y-18685966D02*
X3941491Y-18666919D01*
X4055777Y-18666919D02*
X4036729Y-18657395D01*
X4036729Y-18657395D02*
X4027205Y-18647871D01*
X4027205Y-18647871D02*
X4017682Y-18628823D01*
X4017682Y-18628823D02*
X4017682Y-18619300D01*
X4017682Y-18619300D02*
X4027205Y-18600252D01*
X4027205Y-18600252D02*
X4036729Y-18590728D01*
X4036729Y-18590728D02*
X4055777Y-18581204D01*
X4055777Y-18581204D02*
X4093872Y-18581204D01*
X4093872Y-18581204D02*
X4112920Y-18590728D01*
X4112920Y-18590728D02*
X4122443Y-18600252D01*
X4122443Y-18600252D02*
X4131967Y-18619300D01*
X4131967Y-18619300D02*
X4131967Y-18628823D01*
X4131967Y-18628823D02*
X4122443Y-18647871D01*
X4122443Y-18647871D02*
X4112920Y-18657395D01*
X4112920Y-18657395D02*
X4093872Y-18666919D01*
X4093872Y-18666919D02*
X4055777Y-18666919D01*
X4055777Y-18666919D02*
X4036729Y-18676442D01*
X4036729Y-18676442D02*
X4027205Y-18685966D01*
X4027205Y-18685966D02*
X4017682Y-18705014D01*
X4017682Y-18705014D02*
X4017682Y-18743109D01*
X4017682Y-18743109D02*
X4027205Y-18762157D01*
X4027205Y-18762157D02*
X4036729Y-18771681D01*
X4036729Y-18771681D02*
X4055777Y-18781204D01*
X4055777Y-18781204D02*
X4093872Y-18781204D01*
X4093872Y-18781204D02*
X4112920Y-18771681D01*
X4112920Y-18771681D02*
X4122443Y-18762157D01*
X4122443Y-18762157D02*
X4131967Y-18743109D01*
X4131967Y-18743109D02*
X4131967Y-18705014D01*
X4131967Y-18705014D02*
X4122443Y-18685966D01*
X4122443Y-18685966D02*
X4112920Y-18676442D01*
X4112920Y-18676442D02*
X4093872Y-18666919D01*
X4303396Y-18647871D02*
X4303396Y-18781204D01*
X4255777Y-18571681D02*
X4208158Y-18714538D01*
X4208158Y-18714538D02*
X4331967Y-18714538D01*
X4398634Y-18581204D02*
X4398634Y-18619300D01*
X4474825Y-18581204D02*
X4474825Y-18619300D01*
X4770063Y-18857395D02*
X4760539Y-18847871D01*
X4760539Y-18847871D02*
X4741491Y-18819300D01*
X4741491Y-18819300D02*
X4731967Y-18800252D01*
X4731967Y-18800252D02*
X4722444Y-18771681D01*
X4722444Y-18771681D02*
X4712920Y-18724061D01*
X4712920Y-18724061D02*
X4712920Y-18685966D01*
X4712920Y-18685966D02*
X4722444Y-18638347D01*
X4722444Y-18638347D02*
X4731967Y-18609776D01*
X4731967Y-18609776D02*
X4741491Y-18590728D01*
X4741491Y-18590728D02*
X4760539Y-18562157D01*
X4760539Y-18562157D02*
X4770063Y-18552633D01*
X4951015Y-18781204D02*
X4836729Y-18781204D01*
X4893872Y-18781204D02*
X4893872Y-18581204D01*
X4893872Y-18581204D02*
X4874825Y-18609776D01*
X4874825Y-18609776D02*
X4855777Y-18628823D01*
X4855777Y-18628823D02*
X4836729Y-18638347D01*
X5027206Y-18600252D02*
X5036729Y-18590728D01*
X5036729Y-18590728D02*
X5055777Y-18581204D01*
X5055777Y-18581204D02*
X5103396Y-18581204D01*
X5103396Y-18581204D02*
X5122444Y-18590728D01*
X5122444Y-18590728D02*
X5131967Y-18600252D01*
X5131967Y-18600252D02*
X5141491Y-18619300D01*
X5141491Y-18619300D02*
X5141491Y-18638347D01*
X5141491Y-18638347D02*
X5131967Y-18666919D01*
X5131967Y-18666919D02*
X5017682Y-18781204D01*
X5017682Y-18781204D02*
X5141491Y-18781204D01*
X5379587Y-18781204D02*
X5379587Y-18581204D01*
X5465301Y-18781204D02*
X5465301Y-18676442D01*
X5465301Y-18676442D02*
X5455777Y-18657395D01*
X5455777Y-18657395D02*
X5436729Y-18647871D01*
X5436729Y-18647871D02*
X5408158Y-18647871D01*
X5408158Y-18647871D02*
X5389110Y-18657395D01*
X5389110Y-18657395D02*
X5379587Y-18666919D01*
X5589110Y-18781204D02*
X5570063Y-18771681D01*
X5570063Y-18771681D02*
X5560539Y-18762157D01*
X5560539Y-18762157D02*
X5551015Y-18743109D01*
X5551015Y-18743109D02*
X5551015Y-18685966D01*
X5551015Y-18685966D02*
X5560539Y-18666919D01*
X5560539Y-18666919D02*
X5570063Y-18657395D01*
X5570063Y-18657395D02*
X5589110Y-18647871D01*
X5589110Y-18647871D02*
X5617682Y-18647871D01*
X5617682Y-18647871D02*
X5636729Y-18657395D01*
X5636729Y-18657395D02*
X5646253Y-18666919D01*
X5646253Y-18666919D02*
X5655777Y-18685966D01*
X5655777Y-18685966D02*
X5655777Y-18743109D01*
X5655777Y-18743109D02*
X5646253Y-18762157D01*
X5646253Y-18762157D02*
X5636729Y-18771681D01*
X5636729Y-18771681D02*
X5617682Y-18781204D01*
X5617682Y-18781204D02*
X5589110Y-18781204D01*
X5770063Y-18781204D02*
X5751015Y-18771681D01*
X5751015Y-18771681D02*
X5741491Y-18752633D01*
X5741491Y-18752633D02*
X5741491Y-18581204D01*
X5922444Y-18771681D02*
X5903396Y-18781204D01*
X5903396Y-18781204D02*
X5865301Y-18781204D01*
X5865301Y-18781204D02*
X5846253Y-18771681D01*
X5846253Y-18771681D02*
X5836729Y-18752633D01*
X5836729Y-18752633D02*
X5836729Y-18676442D01*
X5836729Y-18676442D02*
X5846253Y-18657395D01*
X5846253Y-18657395D02*
X5865301Y-18647871D01*
X5865301Y-18647871D02*
X5903396Y-18647871D01*
X5903396Y-18647871D02*
X5922444Y-18657395D01*
X5922444Y-18657395D02*
X5931967Y-18676442D01*
X5931967Y-18676442D02*
X5931967Y-18695490D01*
X5931967Y-18695490D02*
X5836729Y-18714538D01*
X6008158Y-18771681D02*
X6027206Y-18781204D01*
X6027206Y-18781204D02*
X6065301Y-18781204D01*
X6065301Y-18781204D02*
X6084348Y-18771681D01*
X6084348Y-18771681D02*
X6093872Y-18752633D01*
X6093872Y-18752633D02*
X6093872Y-18743109D01*
X6093872Y-18743109D02*
X6084348Y-18724061D01*
X6084348Y-18724061D02*
X6065301Y-18714538D01*
X6065301Y-18714538D02*
X6036729Y-18714538D01*
X6036729Y-18714538D02*
X6017682Y-18705014D01*
X6017682Y-18705014D02*
X6008158Y-18685966D01*
X6008158Y-18685966D02*
X6008158Y-18676442D01*
X6008158Y-18676442D02*
X6017682Y-18657395D01*
X6017682Y-18657395D02*
X6036729Y-18647871D01*
X6036729Y-18647871D02*
X6065301Y-18647871D01*
X6065301Y-18647871D02*
X6084348Y-18657395D01*
X6160539Y-18857395D02*
X6170063Y-18847871D01*
X6170063Y-18847871D02*
X6189110Y-18819300D01*
X6189110Y-18819300D02*
X6198634Y-18800252D01*
X6198634Y-18800252D02*
X6208158Y-18771681D01*
X6208158Y-18771681D02*
X6217682Y-18724061D01*
X6217682Y-18724061D02*
X6217682Y-18685966D01*
X6217682Y-18685966D02*
X6208158Y-18638347D01*
X6208158Y-18638347D02*
X6198634Y-18609776D01*
X6198634Y-18609776D02*
X6189110Y-18590728D01*
X6189110Y-18590728D02*
X6170063Y-18562157D01*
X6170063Y-18562157D02*
X6160539Y-18552633D01*
M02*
