M48
; DRILL file {KiCad 8.0.3} date 2024-06-12T10:41:48+0300
; FORMAT={-:-/ absolute / metric / decimal}
; #@! TF.CreationDate,2024-06-12T10:41:48+03:00
; #@! TF.GenerationSoftware,Kicad,Pcbnew,8.0.3
; #@! TF.FileFunction,Plated,1,2,PTH
FMAT,2
METRIC
; #@! TA.AperFunction,Plated,PTH,ViaDrill
T1C0.400
; #@! TA.AperFunction,Plated,PTH,ComponentDrill
T2C0.400
; #@! TA.AperFunction,Plated,PTH,ComponentDrill
T3C0.800
; #@! TA.AperFunction,Plated,PTH,ComponentDrill
T4C1.000
; #@! TA.AperFunction,Plated,PTH,ComponentDrill
T5C1.200
; #@! TA.AperFunction,Plated,PTH,ComponentDrill
T6C1.300
; #@! TA.AperFunction,Plated,PTH,ComponentDrill
T7C1.700
; #@! TA.AperFunction,Plated,PTH,ComponentDrill
T8C2.000
; #@! TA.AperFunction,Plated,PTH,ComponentDrill
T9C2.500
%
G90
G05
T1
X23.709Y-53.254
X26.021Y-53.28
X26.072Y-62.17
X26.072Y-75.149
X26.072Y-93.234
X26.072Y-110.049
X26.072Y-127.194
X26.097Y-143.323
X34.555Y-64.761
X34.708Y-98.746
X34.86Y-132.756
X35.0Y-84.514
X35.0Y-118.514
X35.0Y-152.514
X35.876Y-83.425
X35.876Y-117.425
X35.876Y-151.425
X39.61Y-33.557
X39.61Y-39.78
X39.686Y-77.463
X39.686Y-111.463
X39.686Y-145.463
X41.642Y-134.128
X41.972Y-66.153
X42.023Y-100.143
X42.658Y-154.042
X44.69Y-91.329
X44.741Y-125.39
X44.893Y-57.496
X47.382Y-125.39
X48.881Y-23.841
X49.186Y-91.38
X50.228Y-48.378
X50.608Y-57.395
X51.776Y-155.82
X54.272Y-103.521
X54.297Y-69.553
X54.323Y-137.582
X55.561Y-64.532
X55.561Y-115.967
X55.612Y-150.028
X55.83Y-81.996
X56.501Y-118.87
X56.602Y-152.739
X56.958Y-84.613
X59.092Y-40.961
X59.346Y-111.624
X59.346Y-145.71
X59.396Y-77.689
X59.481Y-107.567
X59.498Y-103.521
X59.507Y-73.599
X59.523Y-69.553
X59.532Y-141.628
X59.549Y-137.582
X60.641Y-103.514
X60.666Y-69.546
X60.692Y-137.575
X61.809Y-87.748
X62.038Y-107.204
X62.063Y-73.236
X62.089Y-141.265
X62.241Y-122.368
X65.696Y-75.302
X65.721Y-71.974
X65.733Y-105.858
X65.733Y-109.16
X65.759Y-139.843
X65.759Y-143.145
X68.286Y-25.67
X72.477Y-95.647
X72.503Y-89.576
X72.63Y-57.115
X72.655Y-62.881
X72.655Y-123.079
X72.655Y-128.108
X77.024Y-69.201
X77.024Y-103.201
X77.024Y-137.201
X84.976Y-80.599
X84.976Y-114.599
X84.976Y-148.599
X91.68Y-43.983
X91.705Y-41.012
X93.661Y-74.408
X93.661Y-76.44
X93.661Y-108.408
X93.661Y-110.44
X93.661Y-142.408
X93.661Y-144.44
X94.677Y-64.629
X94.677Y-98.629
X94.677Y-132.629
X95.693Y-61.454
X95.693Y-83.298
X95.693Y-95.454
X95.693Y-117.298
X95.693Y-129.454
X95.693Y-151.298
X95.82Y-88.251
X95.82Y-122.251
X95.82Y-156.251
X96.963Y-88.251
X96.963Y-122.251
X96.963Y-156.251
X97.0Y-61.454
X97.0Y-83.679
X97.0Y-95.454
X97.0Y-117.679
X97.0Y-129.454
X97.0Y-151.679
X98.598Y-68.312
X98.598Y-102.312
X98.598Y-136.312
X103.313Y-61.454
X103.313Y-95.454
X103.313Y-129.454
X104.456Y-136.058
X105.599Y-69.201
X105.599Y-103.201
X109.079Y-124.882
X109.104Y-118.126
X109.104Y-120.945
X109.13Y-129.15
X109.434Y-138.497
X109.46Y-143.45
X109.587Y-152.416
X109.968Y-90.897
X109.968Y-95.088
X109.993Y-61.128
X109.993Y-87.036
X110.044Y-55.667
X110.044Y-70.653
X110.044Y-84.115
X116.013Y-65.772
X116.013Y-99.772
X116.013Y-133.772
X117.918Y-59.676
X117.918Y-93.676
X117.918Y-127.676
X119.442Y-85.584
X119.442Y-119.584
X119.442Y-153.584
X119.696Y-69.074
X119.696Y-103.074
X119.696Y-137.074
X120.966Y-82.79
X120.966Y-116.79
X120.966Y-150.79
X125.03Y-62.47
X125.03Y-96.47
X125.03Y-130.47
X126.173Y-85.584
X126.173Y-87.235
X126.173Y-89.521
X126.173Y-119.584
X126.173Y-121.235
X126.173Y-123.521
X126.173Y-153.584
X126.173Y-155.235
X126.173Y-157.521
X126.681Y-79.742
X126.681Y-113.742
X126.681Y-147.742
X126.808Y-63.613
X126.808Y-97.613
X126.808Y-131.613
X130.516Y-58.588
X132.193Y-54.118
X132.586Y-85.076
X132.586Y-119.076
X132.586Y-153.076
X132.675Y-16.932
X132.675Y-20.59
X132.726Y-24.578
X134.149Y-42.536
X134.174Y-45.888
X138.797Y-60.747
X139.889Y-55.769
X141.337Y-40.351
X144.766Y-63.821
X145.883Y-54.626
X148.068Y-84.446
X150.582Y-108.372
X150.811Y-84.446
X151.065Y-72.482
X154.367Y-43.577
X154.469Y-35.754
X157.415Y-84.369
X160.082Y-84.293
X160.565Y-74.946
X162.622Y-39.538
X169.023Y-142.383
X169.124Y-70.196
X169.124Y-108.398
X175.17Y-62.348
X176.821Y-57.649
X177.278Y-84.801
X180.3Y-45.66
X180.427Y-84.776
X180.504Y-74.921
X185.025Y-58.741
X185.736Y-84.674
X188.047Y-84.674
X188.606Y-70.907
X194.677Y-64.837
T4
X44.032Y-68.464
X44.032Y-70.464
X44.032Y-72.464
X44.032Y-74.464
X44.032Y-76.464
X44.032Y-78.464
X44.032Y-102.464
X44.032Y-104.464
X44.032Y-106.464
X44.032Y-108.464
X44.032Y-110.464
X44.032Y-112.464
X44.032Y-136.464
X44.032Y-138.464
X44.032Y-140.464
X44.032Y-142.464
X44.032Y-144.464
X44.032Y-146.464
X81.148Y-68.399
X81.148Y-70.399
X81.148Y-72.399
X81.148Y-74.399
X81.148Y-76.399
X81.148Y-78.399
X81.148Y-102.399
X81.148Y-104.399
X81.148Y-106.399
X81.148Y-108.399
X81.148Y-110.399
X81.148Y-112.399
X81.148Y-136.399
X81.148Y-138.399
X81.148Y-140.399
X81.148Y-142.399
X81.148Y-144.399
X81.148Y-146.399
X102.148Y-68.399
X102.148Y-70.399
X102.148Y-72.399
X102.148Y-74.399
X102.148Y-76.399
X102.148Y-78.399
X102.148Y-102.399
X102.148Y-104.399
X102.148Y-106.399
X102.148Y-108.399
X102.148Y-110.399
X102.148Y-112.399
X102.148Y-136.399
X102.148Y-138.399
X102.148Y-140.399
X102.148Y-142.399
X102.148Y-144.399
X102.148Y-146.399
X123.148Y-68.399
X123.148Y-70.399
X123.148Y-72.399
X123.148Y-74.399
X123.148Y-76.399
X123.148Y-78.399
X123.148Y-102.399
X123.148Y-104.399
X123.148Y-106.399
X123.148Y-108.399
X123.148Y-110.399
X123.148Y-112.399
X123.148Y-136.399
X123.148Y-138.399
X123.148Y-140.399
X123.148Y-142.399
X123.148Y-144.399
X123.148Y-146.399
T5
X23.125Y-70.514
X23.125Y-84.514
X23.125Y-104.464
X23.125Y-118.464
X23.125Y-138.514
X23.125Y-152.514
X131.104Y-34.639
X131.104Y-38.139
X132.25Y-71.714
X132.25Y-75.214
X132.25Y-105.714
X132.25Y-109.214
X132.25Y-139.714
X132.25Y-143.214
X136.354Y-35.439
X137.5Y-72.514
X137.5Y-106.514
X137.5Y-140.514
X199.354Y-37.339
X200.5Y-74.414
X200.5Y-108.414
X200.5Y-142.414
X204.604Y-34.639
X204.604Y-38.139
X205.75Y-71.714
X205.75Y-75.214
X205.75Y-105.714
X205.75Y-109.214
X205.75Y-139.714
X205.75Y-143.214
T7
X135.254Y-40.639
X136.4Y-77.714
X136.4Y-111.714
X136.4Y-145.714
X136.454Y-32.139
X137.6Y-69.214
X137.6Y-103.214
X137.6Y-137.214
X199.254Y-32.139
X200.4Y-69.214
X200.4Y-103.214
X200.4Y-137.214
X200.454Y-40.639
X201.6Y-77.714
X201.6Y-111.714
X201.6Y-145.714
T9
X18.375Y-61.364
X18.375Y-66.514
X18.375Y-80.514
X18.375Y-85.664
X18.375Y-95.314
X18.375Y-100.464
X18.375Y-114.464
X18.375Y-119.614
X18.375Y-129.364
X18.375Y-134.514
X18.375Y-148.514
X18.375Y-153.664
T2
X99.964Y-21.001G85X99.964Y-22.001
G05
X105.464Y-16.501G85X104.464Y-16.501
G05
X109.964Y-22.001G85X109.964Y-21.001
G05
T3
X102.464Y-21.151G85X102.464Y-21.851
G05
X107.464Y-21.851G85X107.464Y-21.151
G05
T6
X115.096Y-18.064G85X115.096Y-18.764
G05
X115.246Y-25.714G85X115.946Y-25.714
G05
X120.046Y-14.514G85X119.346Y-14.514
G05
X122.196Y-20.964G85X122.196Y-21.664
G05
X124.896Y-22.164G85X124.896Y-22.864
G05
T8
X32.582Y-67.664G85X33.482Y-67.664
G05
X32.582Y-79.264G85X33.482Y-79.264
G05
X32.582Y-101.664G85X33.482Y-101.664
G05
X32.582Y-113.264G85X33.482Y-113.264
G05
X32.582Y-135.664G85X33.482Y-135.664
G05
X32.582Y-147.264G85X33.482Y-147.264
G05
X69.698Y-67.599G85X70.598Y-67.599
G05
X69.698Y-79.199G85X70.598Y-79.199
G05
X69.698Y-101.599G85X70.598Y-101.599
G05
X69.698Y-113.199G85X70.598Y-113.199
G05
X69.698Y-135.599G85X70.598Y-135.599
G05
X69.698Y-147.199G85X70.598Y-147.199
G05
X90.698Y-67.599G85X91.598Y-67.599
G05
X90.698Y-79.199G85X91.598Y-79.199
G05
X90.698Y-101.599G85X91.598Y-101.599
G05
X90.698Y-113.199G85X91.598Y-113.199
G05
X90.698Y-135.599G85X91.598Y-135.599
G05
X90.698Y-147.199G85X91.598Y-147.199
G05
X111.698Y-67.599G85X112.598Y-67.599
G05
X111.698Y-79.199G85X112.598Y-79.199
G05
X111.698Y-101.599G85X112.598Y-101.599
G05
X111.698Y-113.199G85X112.598Y-113.199
G05
X111.698Y-135.599G85X112.598Y-135.599
G05
X111.698Y-147.199G85X112.598Y-147.199
G05
M30
